<svg width="21" height="21" viewBox="0 0 21 21" fill="none" xmlns="http://www.w3.org/2000/svg">
<g clip-path="url(#clip0_1003_11389)">
<path d="M9.90815 7.37011V8.81167C9.7486 8.90527 9.62431 9.04878 9.55441 9.22005C9.48452 9.39132 9.47292 9.58082 9.52142 9.75933C9.56992 9.93784 9.67581 10.0954 9.82276 10.2078C9.96971 10.3201 10.1496 10.381 10.3345 10.381C10.5195 10.381 10.6993 10.3201 10.8463 10.2078C10.9932 10.0954 11.0991 9.93784 11.1476 9.75933C11.1961 9.58082 11.1845 9.39132 11.1146 9.22005C11.0448 9.04878 10.9205 8.90527 10.7609 8.81167V7.41073C10.7609 7.29765 10.716 7.18922 10.636 7.10926C10.5561 7.0293 10.4476 6.98438 10.3345 6.98438C10.2214 6.98438 10.113 7.0293 10.033 7.10926C9.95307 7.18922 9.90815 7.29765 9.90815 7.41073V7.37011Z" fill="#334155" stroke="#334155" stroke-width="0.35" stroke-miterlimit="10"/>
<path d="M17.5217 0.182739C17.1049 0.208487 16.6975 0.316644 16.3228 0.50094C15.9482 0.685236 15.6138 0.942001 15.339 1.2564C15.0643 1.5708 14.8546 1.93656 14.7222 2.33254C14.5898 2.72851 14.5372 3.14681 14.5676 3.56323C14.5676 4.92356 15.5827 7.33968 17.1055 7.73559V15.8569C17.1351 16.8639 16.7635 17.8414 16.0724 18.5743C15.3813 19.3073 14.4274 19.7357 13.4204 19.7653C12.4135 19.795 11.436 19.4233 10.703 18.7323C9.97003 18.0412 9.54163 17.0872 9.51201 16.0803C10.8419 15.9178 12.0296 15.6031 12.0296 15.0042V13.3799C12.7841 13.0519 13.4263 12.5106 13.8774 11.8226C14.3285 11.1346 14.5688 10.3298 14.5688 9.50705C14.5688 8.68434 14.3285 7.87956 13.8774 7.19154C13.4263 6.50352 12.7841 5.96223 12.0296 5.63419V3.16734C12.0296 1.95929 7.0959 1.89838 6.10103 1.89838C5.10617 1.89838 0.182617 1.95929 0.182617 3.16734V15.0042C0.182617 16.2122 5.11632 16.2732 6.10103 16.2732C6.5071 16.2732 7.55274 16.2732 8.65928 16.1716C8.73898 17.3762 9.28405 18.5025 10.1792 19.3124C11.0744 20.1223 12.2495 20.5523 13.456 20.5115C14.6625 20.4706 15.8058 19.962 16.6441 19.0934C17.4825 18.2248 17.9501 17.0641 17.9481 15.8569V7.73559C19.4607 7.33968 20.486 4.92356 20.486 3.56323C20.5163 3.14601 20.4634 2.72694 20.3303 2.33034C20.1973 1.93373 19.9867 1.56752 19.7109 1.25299C19.4351 0.938458 19.0995 0.681848 18.7237 0.49812C18.3479 0.314393 17.9393 0.207197 17.5217 0.182739ZM13.7148 9.49184C13.7128 10.16 13.5128 10.8126 13.1402 11.3672C12.7675 11.9217 12.2388 12.3535 11.6209 12.6078C11.0031 12.8621 10.3237 12.9276 9.66859 12.796C9.0135 12.6644 8.4121 12.3417 7.94034 11.8685C7.46859 11.3953 7.14764 10.7929 7.01802 10.1374C6.88841 9.48197 6.95593 8.80279 7.21209 8.18568C7.46824 7.56856 7.90155 7.04121 8.45725 6.6702C9.01295 6.2992 9.66613 6.10116 10.3343 6.10115C11.2318 6.10384 12.0916 6.46228 12.7253 7.09786C13.359 7.73344 13.7148 8.59434 13.7148 9.49184ZM6.10103 2.72066C7.65481 2.69896 9.20655 2.8419 10.7302 3.14704C7.67247 3.70195 4.53979 3.70195 1.48203 3.14704C3.00226 2.84178 4.55061 2.69884 6.10103 2.72066ZM2.72054 15.2072C2.14294 15.153 1.57382 15.0303 1.02519 14.8418V3.8678C1.57733 4.04138 2.14517 4.16039 2.72054 4.22312V15.2072ZM6.10103 15.4103C5.18738 15.4103 4.31434 15.4103 3.56311 15.2986V4.31448C4.66965 4.40585 5.70512 4.416 6.10103 4.416C7.80938 4.44921 9.51501 4.26499 11.1769 3.8678V5.33978C10.8991 5.28663 10.6171 5.25946 10.3343 5.25858C9.76162 5.23051 9.1892 5.31906 8.65178 5.51888C8.11436 5.71869 7.62311 6.02561 7.20787 6.421C6.79263 6.81638 6.46206 7.29199 6.23617 7.81899C6.01028 8.34599 5.8938 8.91339 5.8938 9.48676C5.8938 10.0601 6.01028 10.6275 6.23617 11.1545C6.46206 11.6815 6.79263 12.1571 7.20787 12.5525C7.62311 12.9479 8.11436 13.2548 8.65178 13.4546C9.1892 13.6544 9.76162 13.743 10.3343 13.7149C10.6171 13.714 10.8991 13.6869 11.1769 13.6337V14.8418C9.52249 15.282 7.81181 15.4736 6.10103 15.4103ZM17.5217 6.95392C16.4557 6.95392 15.4101 4.81189 15.4101 3.56323C15.353 3.25283 15.3649 2.93368 15.4449 2.62837C15.5249 2.32306 15.671 2.03907 15.873 1.79654C16.075 1.55402 16.3278 1.3589 16.6136 1.22498C16.8994 1.09107 17.2111 1.02163 17.5268 1.02163C17.8424 1.02163 18.1541 1.09107 18.4399 1.22498C18.7257 1.3589 18.9785 1.55402 19.1805 1.79654C19.3825 2.03907 19.5287 2.32306 19.6087 2.62837C19.6887 2.93368 19.7005 3.25283 19.6434 3.56323C19.6434 4.81189 18.5977 6.95392 17.5217 6.95392Z" fill="#334155" stroke="#334155" stroke-width="0.35" stroke-miterlimit="10"/>
</g>
<defs>
<clipPath id="clip0_1003_11389">
<rect width="20.6587" height="20.6587" fill="white"/>
</clipPath>
</defs>
</svg>
