<svg width="20" height="20" viewBox="0 0 20 20" fill="none" xmlns="http://www.w3.org/2000/svg">
<path d="M6.66675 1.66666V4.16666" stroke="#334155" stroke-width="1.5" stroke-miterlimit="10" stroke-linecap="round" stroke-linejoin="round"/>
<path d="M13.3333 1.66666V4.16666" stroke="#334155" stroke-width="1.5" stroke-miterlimit="10" stroke-linecap="round" stroke-linejoin="round"/>
<path d="M2.91675 7.57501H17.0834" stroke="#334155" stroke-width="1.5" stroke-miterlimit="10" stroke-linecap="round" stroke-linejoin="round"/>
<path d="M16.0083 13.1417L13.0583 16.0917C12.9416 16.2083 12.8333 16.425 12.8083 16.5833L12.6499 17.7083C12.5916 18.1167 12.875 18.4 13.2833 18.3417L14.4083 18.1833C14.5666 18.1583 14.7916 18.05 14.9 17.9333L17.85 14.9833C18.3583 14.475 18.6 13.8833 17.85 13.1333C17.1083 12.3917 16.5166 12.6333 16.0083 13.1417Z" stroke="#334155" stroke-width="1.5" stroke-miterlimit="10" stroke-linecap="round" stroke-linejoin="round"/>
<path d="M15.5833 13.5667C15.8333 14.4667 16.5333 15.1667 17.4333 15.4167" stroke="#334155" stroke-width="1.5" stroke-miterlimit="10" stroke-linecap="round" stroke-linejoin="round"/>
<path d="M10 18.3333H6.66667C3.75 18.3333 2.5 16.6667 2.5 14.1667V7.08332C2.5 4.58332 3.75 2.91666 6.66667 2.91666H13.3333C16.25 2.91666 17.5 4.58332 17.5 7.08332V9.99999" stroke="#334155" stroke-width="1.5" stroke-miterlimit="10" stroke-linecap="round" stroke-linejoin="round"/>
<path d="M9.99632 11.4167H10.0038" stroke="#334155" stroke-width="2" stroke-linecap="round" stroke-linejoin="round"/>
<path d="M6.91185 11.4167H6.91933" stroke="#334155" stroke-width="2" stroke-linecap="round" stroke-linejoin="round"/>
<path d="M6.91185 13.9167H6.91933" stroke="#334155" stroke-width="2" stroke-linecap="round" stroke-linejoin="round"/>
</svg>
