<svg width="24" height="25" viewBox="0 0 24 25" fill="none" xmlns="http://www.w3.org/2000/svg">
    <path d="M12.53 20.9181H6.21C3.05 20.9181 2 18.8181 2 16.7081V8.28813C2 5.12812 3.05 4.07812 6.21 4.07812H12.53C15.69 4.07812 16.74 5.12812 16.74 8.28813V16.7081C16.74 19.8681 15.68 20.9181 12.53 20.9181Z" stroke="#295DE1" stroke-width="1.5" stroke-linecap="round" stroke-linejoin="round"/>
    <path d="M19.5202 17.6001L16.7402 15.6501V9.34013L19.5202 7.39013C20.8802 6.44013 22.0002 7.02013 22.0002 8.69013V16.3101C22.0002 17.9801 20.8802 18.5601 19.5202 17.6001Z" stroke="#295DE1" stroke-width="1.5" stroke-linecap="round" stroke-linejoin="round"/>
    <path d="M11.5 11.5C12.3284 11.5 13 10.8284 13 10C13 9.17157 12.3284 8.5 11.5 8.5C10.6716 8.5 10 9.17157 10 10C10 10.8284 10.6716 11.5 11.5 11.5Z" stroke="#295DE1" stroke-width="1.5" stroke-linecap="round" stroke-linejoin="round"/>
</svg>
