<svg width="31" height="30" viewBox="0 0 31 30" fill="none" xmlns="http://www.w3.org/2000/svg">
    <path d="M16.518 25.5227H8.61797C4.66797 25.5227 3.35547 22.8977 3.35547 20.2602V9.73516C3.35547 5.78516 4.66797 4.47266 8.61797 4.47266H16.518C20.468 4.47266 21.7805 5.78516 21.7805 9.73516V20.2602C21.7805 24.2102 20.4555 25.5227 16.518 25.5227Z" stroke="#295DE1" stroke-width="2" stroke-linecap="round" stroke-linejoin="round"/>
    <path d="M25.2523 21.3761L21.7773 18.9386V11.0511L25.2523 8.61364C26.9523 7.42614 28.3523 8.15114 28.3523 10.2386V19.7636C28.3523 21.8511 26.9523 22.5761 25.2523 21.3761Z" stroke="#295DE1" stroke-width="2" stroke-linecap="round" stroke-linejoin="round"/>
    <path d="M15.2305 13.75C16.266 13.75 17.1055 12.9105 17.1055 11.875C17.1055 10.8395 16.266 10 15.2305 10C14.1949 10 13.3555 10.8395 13.3555 11.875C13.3555 12.9105 14.1949 13.75 15.2305 13.75Z" stroke="#295DE1" stroke-width="2" stroke-linecap="round" stroke-linejoin="round"/>
</svg>
