<svg width="20" height="20" viewBox="0 0 20 20" fill="none" xmlns="http://www.w3.org/2000/svg">
<path d="M5.30835 7.92499C1.90835 8.16665 1.91668 13.0916 5.30835 13.3333H13.3584C14.3334 13.3416 15.275 12.975 16 12.3167C18.3834 10.2333 17.1084 6.06663 13.9667 5.66663C12.8417 -1.1167 3.01669 1.45832 5.34169 7.92499" stroke="#334155" stroke-width="1.5" stroke-miterlimit="10" stroke-linecap="round" stroke-linejoin="round"/>
<path d="M10 13.3333V15.8333" stroke="#334155" stroke-width="1.5" stroke-miterlimit="10" stroke-linecap="round" stroke-linejoin="round"/>
<path d="M9.99992 19.1667C10.9204 19.1667 11.6666 18.4205 11.6666 17.5C11.6666 16.5795 10.9204 15.8333 9.99992 15.8333C9.07944 15.8333 8.33325 16.5795 8.33325 17.5C8.33325 18.4205 9.07944 19.1667 9.99992 19.1667Z" stroke="#334155" stroke-width="1.5" stroke-miterlimit="10" stroke-linecap="round" stroke-linejoin="round"/>
<path d="M15.0001 17.5H11.6667" stroke="#334155" stroke-width="1.5" stroke-miterlimit="10" stroke-linecap="round" stroke-linejoin="round"/>
<path d="M8.33333 17.5H5" stroke="#334155" stroke-width="1.5" stroke-miterlimit="10" stroke-linecap="round" stroke-linejoin="round"/>
</svg>
