<svg width="43" height="74" viewBox="0 0 43 74" fill="none" xmlns="http://www.w3.org/2000/svg">
<path d="M18.055 24.6709V22.2109H15.585V24.6709H18.055Z" fill="white"/>
<path d="M13.1153 24.6709V22.2109H10.6553V24.6709H13.1153Z" fill="white"/>
<path d="M8.18484 24.6709V22.2109H5.71484V24.6709H8.18484Z" fill="white"/>
<path d="M22.9856 24.6709V22.2109H20.5156V24.6709H22.9856Z" fill="white"/>
<path d="M27.9153 24.6709V22.2109H25.4453V24.6709H27.9153Z" fill="white"/>
<path d="M32.8548 24.6709V22.2109H30.3848V24.6709H32.8548Z" fill="white"/>
<path d="M37.7854 24.6709V22.2109H35.3154V24.6709H37.7854Z" fill="white"/>
<path d="M37.7854 7.39969V4.92969H35.3154V7.39969H37.7854Z" fill="white"/>
<path d="M37.7854 69.0794V66.6094H35.3154V69.0794H37.7854Z" fill="white"/>
<path d="M8.18484 69.0794V66.6094H5.71484V69.0794H8.18484Z" fill="white"/>
<path d="M8.18484 7.39969V4.92969H5.71484V7.39969H8.18484Z" fill="white"/>
<path d="M27.9152 72.77C27.9178 73.0971 28.0496 73.41 28.2819 73.6404C28.5141 73.8707 28.828 74 29.1552 74H41.4852C41.8114 74 42.1242 73.8704 42.3549 73.6397C42.5856 73.4091 42.7152 73.0962 42.7152 72.77V1.23C42.7152 0.903784 42.5856 0.590928 42.3549 0.360259C42.1242 0.129589 41.8114 6.56562e-10 41.4852 6.56562e-10L29.1552 6.56562e-10C28.828 -1.06376e-05 28.5141 0.129258 28.2819 0.359645C28.0496 0.590032 27.9178 0.902867 27.9152 1.23C27.9486 2.06049 27.8139 2.88918 27.5192 3.66632C27.2244 4.44347 26.7757 5.15306 26.1999 5.75249C25.6242 6.35192 24.9332 6.82884 24.1686 7.15463C23.4039 7.48041 22.5813 7.64834 21.7502 7.64834C20.919 7.64834 20.0964 7.48041 19.3317 7.15463C18.5671 6.82884 17.8761 6.35192 17.3004 5.75249C16.7246 5.15306 16.2759 4.44347 15.9811 3.66632C15.6864 2.88918 15.5517 2.06049 15.5852 1.23C15.5852 1.06847 15.5533 0.90853 15.4915 0.759299C15.4297 0.610069 15.3391 0.474475 15.2249 0.360259C15.1107 0.246043 14.9751 0.155441 14.8259 0.0936282C14.6766 0.0318149 14.5167 6.56562e-10 14.3552 6.56562e-10L2.01516 6.56562e-10C1.68894 6.56562e-10 1.37608 0.129589 1.14541 0.360259C0.914745 0.590928 0.785156 0.903784 0.785156 1.23V72.77C0.785156 73.0962 0.914745 73.4091 1.14541 73.6397C1.37608 73.8704 1.68894 74 2.01516 74H14.3552C14.6814 74 14.9942 73.8704 15.2249 73.6397C15.4556 73.4091 15.5852 73.0962 15.5852 72.77C15.5517 71.9395 15.6864 71.1108 15.9811 70.3337C16.2759 69.5565 16.7246 68.8469 17.3004 68.2475C17.8761 67.6481 18.5671 67.1712 19.3317 66.8454C20.0964 66.5196 20.919 66.3517 21.7502 66.3517C22.5813 66.3517 23.4039 66.5196 24.1686 66.8454C24.9332 67.1712 25.6242 67.6481 26.1999 68.2475C26.7757 68.8469 27.2244 69.5565 27.5192 70.3337C27.8139 71.1108 27.9486 71.9395 27.9152 72.77ZM20.5252 64.21C18.6794 64.4791 16.9699 65.3369 15.651 66.6559C14.3321 67.9748 13.4743 69.6843 13.2052 71.53H3.25516V2.47H13.2552C13.5463 4.52901 14.5711 6.41366 16.1411 7.77727C17.7111 9.14088 19.7207 9.89175 21.8002 9.89175C23.8797 9.89175 25.8892 9.14088 27.4592 7.77727C29.0292 6.41366 30.054 4.52901 30.3452 2.47H40.3452V71.53H30.3452C30.1836 70.4034 29.801 69.3199 29.2195 68.3416C28.6379 67.3633 27.8688 66.5095 26.9563 65.8293C26.0438 65.1491 25.0059 64.6559 23.9023 64.378C22.7986 64.1001 21.6509 64.043 20.5252 64.21Z" fill="white"/>
<path d="M26.3653 53.0593C25.6147 54.0085 24.5516 54.6606 23.3653 54.8993C23.2653 54.8993 23.2253 54.9993 23.2253 55.0693V56.6993C23.2251 56.7448 23.2152 56.7898 23.1962 56.8312C23.1773 56.8726 23.1497 56.9094 23.1153 56.9393C23.0849 56.9724 23.0477 56.9984 23.0063 57.0157C22.9649 57.033 22.9202 57.041 22.8753 57.0393H20.5353C20.489 57.0412 20.4427 57.0332 20.3997 57.016C20.3566 56.9987 20.3176 56.9726 20.2853 56.9393C20.2523 56.9089 20.2262 56.8717 20.2089 56.8303C20.1917 56.7889 20.1836 56.7442 20.1853 56.6993V55.0093C20.1857 54.9754 20.1737 54.9425 20.1516 54.9168C20.1296 54.891 20.0989 54.8742 20.0653 54.8693C18.9392 54.5866 17.944 53.9266 17.2453 52.9993C16.5279 52.0629 16.1537 50.9086 16.1853 49.7293V48.8793C16.1849 48.8346 16.1935 48.7903 16.2107 48.7491C16.2279 48.7078 16.2533 48.6705 16.2853 48.6393C16.3176 48.606 16.3566 48.5799 16.3997 48.5627C16.4427 48.5454 16.489 48.5375 16.5353 48.5393H19.8653C19.9117 48.5375 19.9579 48.5454 20.001 48.5627C20.0441 48.5799 20.083 48.606 20.1153 48.6393C20.1474 48.6705 20.1728 48.7078 20.19 48.7491C20.2071 48.7903 20.2158 48.8346 20.2153 48.8793V49.5193C20.1803 50.0526 20.3442 50.5799 20.6753 50.9993C20.8135 51.1739 20.99 51.3143 21.1911 51.4097C21.3923 51.5051 21.6127 51.5528 21.8353 51.5493C22.0577 51.5514 22.2776 51.5029 22.4785 51.4076C22.6795 51.3124 22.8562 51.1728 22.9953 50.9993C23.3153 50.62 23.4828 50.1353 23.4653 49.6393C23.4728 49.0862 23.2648 48.5518 22.8853 48.1493C22.1839 47.4718 21.428 46.8531 20.6253 46.2993C19.8079 45.7272 19.0234 45.1095 18.2753 44.4493C17.649 43.8778 17.1278 43.2009 16.7353 42.4493C16.2935 41.5977 16.0734 40.6485 16.0953 39.6893C16.0579 38.4615 16.4348 37.2568 17.1653 36.2693C17.8935 35.3306 18.9323 34.6818 20.0953 34.4393C20.1334 34.432 20.1672 34.4102 20.1896 34.3785C20.212 34.3468 20.2212 34.3077 20.2153 34.2693V32.3793C20.2149 32.3346 20.2235 32.2903 20.2407 32.2491C20.2579 32.2078 20.2833 32.1705 20.3153 32.1393C20.3476 32.106 20.3866 32.0799 20.4297 32.0627C20.4727 32.0454 20.519 32.0375 20.5653 32.0393H22.8853C22.9317 32.0375 22.9779 32.0454 23.021 32.0627C23.0641 32.0799 23.103 32.106 23.1353 32.1393C23.1966 32.2046 23.2321 32.2899 23.2353 32.3793V34.2693C23.2291 34.3063 23.2369 34.3442 23.2573 34.3757C23.2777 34.4071 23.3091 34.4298 23.3453 34.4393C24.5426 34.6817 25.6098 35.354 26.3453 36.3293C27.0841 37.3475 27.4639 38.582 27.4253 39.8393V40.5293C27.4272 40.5757 27.4192 40.6219 27.402 40.665C27.3847 40.7081 27.3586 40.747 27.3253 40.7793C27.2942 40.8114 27.2568 40.8368 27.2156 40.854C27.1743 40.8711 27.13 40.8798 27.0853 40.8793H23.6653C23.619 40.8812 23.5727 40.8732 23.5297 40.856C23.4866 40.8387 23.4476 40.8126 23.4153 40.7793C23.3518 40.7115 23.3161 40.6223 23.3153 40.5293V39.7493C23.3415 39.2311 23.1819 38.7205 22.8653 38.3093C22.7231 38.1382 22.5439 38.0016 22.3413 37.9098C22.1386 37.818 21.9177 37.7734 21.6953 37.7793C21.4806 37.7726 21.2671 37.8151 21.0713 37.9035C20.8754 37.9919 20.7024 38.1238 20.5653 38.2893C20.2518 38.6862 20.0952 39.1845 20.1253 39.6893C20.1227 40.2512 20.3174 40.7962 20.6753 41.2293C21.3368 41.9218 22.0673 42.5451 22.8553 43.0893C23.7954 43.7619 24.7 44.4829 25.5653 45.2493C26.1454 45.7646 26.6266 46.3814 26.9853 47.0693C27.3417 47.8145 27.5164 48.6336 27.4953 49.4593C27.5464 50.7539 27.1471 52.0262 26.3653 53.0593Z" fill="white"/>
</svg>
