<svg width="43" height="74" viewBox="0 0 43 74" fill="none" xmlns="http://www.w3.org/2000/svg">
<path d="M18.0488 24.6737L18.0488 22.207L15.5822 22.207L15.5822 24.6737L18.0488 24.6737Z" fill="white"/>
<path d="M13.1172 24.6737L13.1172 22.207L10.6505 22.207L10.6505 24.6737L13.1172 24.6737Z" fill="white"/>
<path d="M8.18359 24.6737L8.18359 22.207L5.71693 22.207L5.71693 24.6737L8.18359 24.6737Z" fill="white"/>
<path d="M22.9824 24.6737L22.9824 22.207L20.5158 22.207L20.5158 24.6737L22.9824 24.6737Z" fill="white"/>
<path d="M27.915 24.6737L27.915 22.207L25.4484 22.207L25.4484 24.6737L27.915 24.6737Z" fill="white"/>
<path d="M32.8496 24.6737L32.8496 22.207L30.3829 22.207L30.3829 24.6737L32.8496 24.6737Z" fill="white"/>
<path d="M37.7822 24.6737L37.7822 22.207L35.3156 22.207L35.3156 24.6737L37.7822 24.6737Z" fill="white"/>
<path d="M37.7822 7.39635L37.7822 4.92969L35.3156 4.92969L35.3156 7.39635L37.7822 7.39635Z" fill="white"/>
<path d="M37.7832 69.076L37.7832 66.6094L35.3165 66.6094L35.3165 69.076L37.7832 69.076Z" fill="white"/>
<path d="M8.18359 69.076L8.18359 66.6094L5.71693 66.6094L5.71693 69.076L8.18359 69.076Z" fill="white"/>
<path d="M8.18359 7.39635L8.18359 4.92969L5.71693 4.92969L5.71693 7.39635L8.18359 7.39635Z" fill="white"/>
<path d="M27.9168 72.7667C27.9168 73.4478 28.469 74 29.1501 74L41.4835 74C42.1646 74 42.7168 73.4478 42.7168 72.7667L42.7168 1.23333C42.7168 0.552225 42.1646 -2.41385e-08 41.4835 -5.39107e-08L29.1501 -5.93018e-07C28.469 -6.2279e-07 27.9168 0.552224 27.9168 1.23333C27.9168 4.63903 25.1558 7.4 21.7501 7.4C18.3444 7.4 15.5835 4.63903 15.5835 1.23333C15.5835 0.552224 15.0312 -1.21017e-06 14.3501 -1.23995e-06L2.01679 -1.77905e-06C1.33568 -1.80883e-06 0.783455 0.552223 0.783455 1.23333L0.783452 72.7667C0.783452 73.4478 1.33567 74 2.01679 74L14.3501 74C15.0312 74 15.5835 73.4478 15.5835 72.7667C15.5835 69.361 18.3444 66.6 21.7501 66.6C25.1558 66.6 27.9168 69.361 27.9168 72.7667ZM20.5236 64.2141C16.7295 64.7586 13.7489 67.7394 13.2044 71.5333L3.25012 71.5333L3.25012 2.46666L13.2044 2.46667C13.8818 7.18632 18.2569 10.4633 22.9767 9.78588C26.7706 9.24137 29.7514 6.26071 30.2959 2.46667L40.2501 2.46667L40.2501 71.5333L30.2959 71.5333C29.6185 66.8137 25.2434 63.5367 20.5236 64.2141Z" fill="white"/>
<path d="M34.083 51.7971C34.083 54.5217 31.8743 56.7305 29.1497 56.7305C26.4251 56.7305 24.2163 54.5217 24.2163 51.7971C24.2163 49.0725 26.4251 46.8638 29.1497 46.8638C31.8743 46.8638 34.083 49.0725 34.083 51.7971ZM26.683 51.7971C26.683 53.1595 27.7873 54.2638 29.1497 54.2638C30.512 54.2638 31.6163 53.1595 31.6163 51.7971C31.6163 50.4348 30.512 49.3305 29.1497 49.3305C27.7873 49.3305 26.683 50.4348 26.683 51.7971Z" fill="white"/>
<path d="M19.2822 37.0003C19.2822 39.7248 17.0735 41.9336 14.3489 41.9336C11.6243 41.9336 9.41556 39.7248 9.41556 37.0003C9.41556 34.2757 11.6243 32.0669 14.3489 32.0669C17.0735 32.0669 19.2822 34.2757 19.2822 37.0003ZM11.8822 37.0003C11.8822 38.3626 12.9865 39.4669 14.3489 39.4669C15.7113 39.4669 16.8156 38.3626 16.8156 37.0003C16.8156 35.6379 15.7113 34.5336 14.3489 34.5336C12.9865 34.5336 11.8822 35.6379 11.8822 37.0003Z" fill="white"/>
<path d="M32.4917 35.4038L12.7588 55.1367L11.0146 53.3925L30.7475 33.6596L32.4917 35.4038Z" fill="white"/>
</svg>
