<svg width="20" height="20" viewBox="0 0 20 20" fill="none" xmlns="http://www.w3.org/2000/svg">
<path d="M7.49996 18.3333H12.5C16.6666 18.3333 18.3333 16.6667 18.3333 12.5V7.49999C18.3333 3.33332 16.6666 1.66666 12.5 1.66666H7.49996C3.33329 1.66666 1.66663 3.33332 1.66663 7.49999V12.5C1.66663 16.6667 3.33329 18.3333 7.49996 18.3333Z" stroke="#BCBCBC" stroke-width="1.5" stroke-linecap="round" stroke-linejoin="round"/>
<path d="M12.9166 8.125C13.607 8.125 14.1666 7.56536 14.1666 6.875C14.1666 6.18464 13.607 5.625 12.9166 5.625C12.2263 5.625 11.6666 6.18464 11.6666 6.875C11.6666 7.56536 12.2263 8.125 12.9166 8.125Z" stroke="#BCBCBC" stroke-width="1.5" stroke-miterlimit="10" stroke-linecap="round" stroke-linejoin="round"/>
<path d="M7.08337 8.125C7.77373 8.125 8.33337 7.56536 8.33337 6.875C8.33337 6.18464 7.77373 5.625 7.08337 5.625C6.39302 5.625 5.83337 6.18464 5.83337 6.875C5.83337 7.56536 6.39302 8.125 7.08337 8.125Z" stroke="#BCBCBC" stroke-width="1.5" stroke-miterlimit="10" stroke-linecap="round" stroke-linejoin="round"/>
<path d="M7 11.0833H13C13.4167 11.0833 13.75 11.4167 13.75 11.8333C13.75 13.9083 12.075 15.5833 10 15.5833C7.925 15.5833 6.25 13.9083 6.25 11.8333C6.25 11.4167 6.58333 11.0833 7 11.0833Z" stroke="#BCBCBC" stroke-width="1.5" stroke-miterlimit="10" stroke-linecap="round" stroke-linejoin="round"/>
</svg>
