<svg width="19" height="19" viewBox="0 0 19 19" fill="none" xmlns="http://www.w3.org/2000/svg">
<path d="M11.3366 15.0971C11.3366 15.58 11.0199 16.2133 10.6162 16.4587L9.49995 17.1792C8.46286 17.8204 7.02203 17.1 7.02203 15.8175V11.5821C7.02203 11.02 6.70536 10.2996 6.38078 9.90375L3.34076 6.70541C2.93701 6.30166 2.62036 5.58917 2.62036 5.10625V3.26958C2.62036 2.31166 3.34079 1.59125 4.21954 1.59125H14.7804C15.6591 1.59125 16.3795 2.31166 16.3795 3.19041V4.94791C16.3795 5.58916 15.9758 6.38875 15.5799 6.78458" stroke="#334155" stroke-width="1.5" stroke-miterlimit="10" stroke-linecap="round" stroke-linejoin="round"/>
<path d="M12.7221 13.0783C14.1212 13.0783 15.2554 11.9441 15.2554 10.545C15.2554 9.14588 14.1212 8.01166 12.7221 8.01166C11.3229 8.01166 10.1887 9.14588 10.1887 10.545C10.1887 11.9441 11.3229 13.0783 12.7221 13.0783Z" stroke="#334155" stroke-width="1.5" stroke-linecap="round" stroke-linejoin="round"/>
<path d="M15.7304 13.5533L14.9387 12.7617" stroke="#334155" stroke-width="1.5" stroke-linecap="round" stroke-linejoin="round"/>
</svg>
