<svg width="17" height="25" viewBox="0 0 17 25" fill="none" xmlns="http://www.w3.org/2000/svg">
<g clip-path="url(#clip0_1003_11534)">
<path d="M16.1779 0.847457C16.0084 0.691423 15.8103 0.569836 15.5944 0.489437C15.3732 0.410276 15.1399 0.369866 14.9049 0.370057H2.09521C1.8603 0.3709 1.62721 0.41128 1.40568 0.489437C1.19243 0.567112 0.998052 0.689128 0.835445 0.847457C0.670027 0.994027 0.538788 1.17508 0.450918 1.37787C0.370747 1.57117 0.33017 1.77858 0.331578 1.98784L0.742652 14.161C0.792497 15.6202 1.32933 17.0206 2.2676 18.1392C3.26051 19.3031 4.57539 20.1473 6.04686 20.5659V24.1329C6.05241 24.2292 6.09521 24.3196 6.1662 24.3849C6.24315 24.4528 6.34207 24.4904 6.44466 24.491H10.5554C10.658 24.4904 10.757 24.4528 10.8339 24.3849C10.8709 24.3541 10.9007 24.3156 10.9213 24.2721C10.942 24.2286 10.9528 24.1811 10.9532 24.1329V20.5261C12.426 20.1105 13.7417 19.2657 14.7325 18.0994C15.6762 16.984 16.2138 15.5816 16.2574 14.1213L16.6685 1.94806C16.6833 1.73776 16.6421 1.52731 16.5492 1.33809C16.4659 1.13613 16.3392 0.955027 16.1779 0.807677V0.847457ZM10.1576 23.7617H6.85574V18.3646H10.1576V23.7617ZM15.4618 14.1345C15.4011 15.3922 14.936 16.5968 14.1358 17.569C13.2912 18.5895 12.1735 19.3484 10.9135 19.757V18.3646H11.192C11.2985 18.3638 11.4015 18.3263 11.4836 18.2585C11.5176 18.226 11.5445 18.1869 11.5628 18.1435C11.581 18.1002 11.5902 18.0536 11.5898 18.0066C11.5892 17.9617 11.5795 17.9174 11.5612 17.8764C11.543 17.8353 11.5166 17.7984 11.4836 17.7679C11.4446 17.7316 11.3987 17.7035 11.3486 17.6852C11.2985 17.667 11.2452 17.659 11.192 17.6618H5.72858C5.67719 17.6575 5.62551 17.6648 5.57731 17.6832C5.52912 17.7016 5.48565 17.7305 5.45012 17.7679C5.41344 17.796 5.38363 17.8321 5.36296 17.8735C5.34228 17.9148 5.33129 17.9604 5.33078 18.0066C5.32922 18.055 5.33925 18.1032 5.36 18.147C5.38076 18.1908 5.41164 18.2291 5.45012 18.2585C5.5257 18.3286 5.62552 18.3667 5.72858 18.3646H6.00708V19.757C4.74919 19.3516 3.63494 18.5918 2.79802 17.569C1.99272 16.5997 1.52697 15.3934 1.47196 14.1345L1.06089 1.97461C1.06237 1.85666 1.08481 1.73991 1.12718 1.62982C1.17784 1.51946 1.24997 1.42029 1.33935 1.33809C1.43238 1.25613 1.5405 1.1931 1.65763 1.15246C1.77471 1.101 1.90104 1.07389 2.02892 1.07286H14.8386C14.9667 1.07232 15.0933 1.0995 15.2099 1.15246C15.3285 1.18989 15.4372 1.25329 15.5281 1.33809C15.6214 1.41679 15.6942 1.51688 15.7403 1.62982C15.7887 1.7381 15.8114 1.85611 15.8066 1.97461L15.4618 14.1345Z" fill="#334155" stroke="#334155" stroke-width="0.5" stroke-miterlimit="10"/>
<path d="M14.2021 2.20001H2.79804H2.65219C2.60137 2.21348 2.55538 2.24106 2.51958 2.27957L2.42675 2.39891C2.42058 2.4429 2.42058 2.48754 2.42675 2.53153L2.75826 12.3974C2.76835 12.4971 2.81697 12.5889 2.89375 12.6533C2.97052 12.7177 3.0694 12.7496 3.16933 12.7422H13.8971C13.9982 12.7465 14.0974 12.7135 14.1756 12.6493C14.2466 12.584 14.2894 12.4937 14.2949 12.3974L14.6265 2.53153C14.6326 2.48754 14.6326 2.4429 14.6265 2.39891L14.5336 2.27957C14.5029 2.24144 14.4613 2.21367 14.4143 2.20001H14.2552H14.2021ZM13.486 12.0659H3.52735L3.20911 2.90282H13.8175L13.486 12.0659Z" fill="#334155" stroke="#334155" stroke-width="0.5" stroke-miterlimit="10"/>
<path d="M8.49999 14.0417C8.22115 14.0444 7.94753 14.1173 7.70439 14.2538C7.48275 14.3926 7.30376 14.59 7.18721 14.8241C7.08193 15.0567 7.05404 15.317 7.10765 15.5667C7.17016 15.8159 7.30378 16.0417 7.49222 16.2164C7.70372 16.3948 7.95837 16.5144 8.23067 16.5633C8.50298 16.6121 8.78335 16.5885 9.04368 16.4949C9.29971 16.4046 9.52189 16.238 9.6802 16.0175C9.84066 15.8181 9.9294 15.5706 9.93215 15.3147C9.92805 15.1431 9.88818 14.9743 9.81512 14.8191C9.74205 14.6638 9.63738 14.5255 9.5078 14.413C9.22929 14.169 8.87026 14.0367 8.49999 14.0417ZM8.49999 15.8716C8.37856 15.8742 8.25896 15.842 8.15524 15.7788C8.05029 15.7232 7.96646 15.6347 7.91656 15.5269C7.88311 15.4234 7.88311 15.312 7.91656 15.2086C7.94233 15.0958 8.00255 14.9938 8.08892 14.9169C8.17602 14.8345 8.28793 14.7832 8.4072 14.771C8.52419 14.7375 8.64823 14.7375 8.76522 14.771C8.87843 14.81 8.97607 14.8844 9.04368 14.9832C9.11548 15.0683 9.15329 15.1769 9.14978 15.2882C9.14694 15.4383 9.08499 15.5813 8.97739 15.686C8.85212 15.7933 8.69138 15.85 8.52654 15.8451L8.49999 15.8716Z" fill="#334155" stroke="#334155" stroke-width="0.1" stroke-miterlimit="10"/>
<path d="M13.2074 15.0097L11.4305 14.0947C11.3659 14.0735 11.2962 14.0735 11.2316 14.0947C11.1666 14.0766 11.0978 14.0766 11.0327 14.0947C10.9751 14.128 10.9254 14.1732 10.8869 14.2273C10.8733 14.284 10.8733 14.3431 10.8869 14.3997V16.1766C10.875 16.238 10.875 16.301 10.8869 16.3623C10.9256 16.4129 10.9755 16.4537 11.0327 16.4817C11.0978 16.4997 11.1666 16.4997 11.2316 16.4817C11.2962 16.5029 11.3659 16.5029 11.4305 16.4817L13.2074 15.5667C13.269 15.5461 13.3209 15.5036 13.3533 15.4473C13.371 15.3867 13.371 15.3223 13.3533 15.2617C13.3725 15.2058 13.3725 15.1451 13.3533 15.0893C13.3215 15.0295 13.27 14.9826 13.2074 14.9567V15.0097ZM11.6427 15.6197V15.023L12.2129 15.3147L11.6427 15.6197Z" fill="#334155" stroke="#334155" stroke-width="0.5" stroke-miterlimit="10"/>
<path d="M5.96731 14.0947C5.90225 14.0766 5.83344 14.0766 5.76837 14.0947C5.70351 14.0752 5.63434 14.0752 5.56947 14.0947L3.79257 15.0097C3.73003 15.0357 3.67848 15.0825 3.64672 15.1423C3.62753 15.1982 3.62753 15.2589 3.64672 15.3147C3.62904 15.3753 3.62904 15.4397 3.64672 15.5003C3.67909 15.5566 3.73097 15.5991 3.79257 15.6197L5.56947 16.5347C5.63434 16.5542 5.70351 16.5542 5.76837 16.5347C5.83344 16.5528 5.90225 16.5528 5.96731 16.5347C6.02452 16.5067 6.07444 16.4659 6.11316 16.4153C6.13084 16.3547 6.13084 16.2903 6.11316 16.2297V14.3997C6.13236 14.3439 6.13236 14.2832 6.11316 14.2273C6.0746 14.1732 6.02487 14.128 5.96731 14.0947ZM5.37057 15.6197L4.78711 15.3147L5.37057 15.023V15.6197Z" fill="#334155" stroke="#334155" stroke-width="0.5" stroke-miterlimit="10"/>
</g>
<defs>
<clipPath id="clip0_1003_11534">
<rect width="17" height="24.7707" fill="white" transform="translate(0 0.0385742)"/>
</clipPath>
</defs>
</svg>
