<svg width="21" height="21" viewBox="0 0 21 21" fill="none" xmlns="http://www.w3.org/2000/svg">
<path d="M17.2699 3.62565C15.6337 1.98995 13.481 0.972171 11.1785 0.745766C8.87606 0.519361 6.56632 1.09833 4.64286 2.38401C2.7194 3.66969 1.30125 5.58253 0.630042 7.79661C-0.0411685 10.0107 0.0761013 12.389 0.96186 14.5263C1.84762 16.6636 3.44704 18.4277 5.48765 19.5179C7.52825 20.6081 9.88374 20.9571 12.1528 20.5053C14.4218 20.0534 16.464 18.8289 17.9313 17.0401C19.3987 15.2514 20.2004 13.0092 20.1999 10.6957C20.2035 9.38197 19.9463 8.08064 19.4434 6.86704C18.9404 5.65345 18.2017 4.55171 17.2699 3.62565ZM18.6799 13.1556H12.9699L17.3699 5.54563C18.4492 7.04598 19.0299 8.84747 19.0299 10.6957C19.0314 11.5282 18.9136 12.3566 18.6799 13.1556ZM8.77994 13.1556L7.35993 10.6957L8.77994 8.23563H11.5899L13.01 10.6957L11.5899 13.1556H8.77994ZM16.57 4.58564L13.7199 9.52564L9.31995 1.91566C9.61222 1.88376 9.90593 1.86706 10.1999 1.86564C11.3902 1.86627 12.5681 2.10756 13.6628 2.57499C14.7575 3.04242 15.7463 3.72633 16.57 4.58564ZM8.08994 2.12565L10.9399 7.06565H2.15995C2.7099 5.84702 3.52938 4.76917 4.55662 3.91343C5.58385 3.05769 6.79201 2.4464 8.08994 2.12565ZM1.71995 8.23563H7.42994L3.03995 15.8456C1.95284 14.3487 1.36817 12.5457 1.36994 10.6957C1.37333 9.86349 1.4911 9.03572 1.71995 8.23563ZM3.83994 16.8056L6.68995 11.8656L11.0799 19.4856C10.7899 19.4856 10.4999 19.4856 10.1999 19.4856C9.01097 19.486 7.83431 19.2451 6.74113 18.7776C5.64795 18.31 4.66099 17.6256 3.83994 16.7656V16.8056ZM12.3099 19.2656L9.45994 14.3257H18.2499C17.6965 15.5437 16.8747 16.6208 15.846 17.4763C14.8174 18.3318 13.6085 18.9435 12.3099 19.2656Z" fill="#334155" stroke="#334155" stroke-width="0.2" stroke-miterlimit="10"/>
</svg>
