<svg width="31" height="30" viewBox="0 0 31 30" fill="none" xmlns="http://www.w3.org/2000/svg">
    <path d="M15.5703 23.75C19.7078 23.75 23.0703 20.3875 23.0703 16.25V10C23.0703 5.8625 19.7078 2.5 15.5703 2.5C11.4328 2.5 8.07031 5.8625 8.07031 10V16.25C8.07031 20.3875 11.4328 23.75 15.5703 23.75Z" stroke="#295DE1" stroke-width="2" stroke-linecap="round" stroke-linejoin="round"/>
    <path d="M4.32031 13.75V16.25C4.32031 22.4625 9.35781 27.5 15.5703 27.5C21.7828 27.5 26.8203 22.4625 26.8203 16.25V13.75" stroke="#295DE1" stroke-width="2" stroke-linecap="round" stroke-linejoin="round"/>
    <path d="M11.957 9.35156C14.182 8.53906 16.607 8.53906 18.832 9.35156" stroke="#295DE1" stroke-width="2" stroke-linecap="round" stroke-linejoin="round"/>
    <path d="M13.1094 13.1023C14.6094 12.6898 16.1969 12.6898 17.6969 13.1023" stroke="#295DE1" stroke-width="2" stroke-linecap="round" stroke-linejoin="round"/>
</svg>
