<svg width="31" height="30" viewBox="0 0 31 30" fill="none" xmlns="http://www.w3.org/2000/svg">
    <path d="M22.8453 8.1625C22.0203 4.9125 19.0828 2.5 15.5703 2.5C11.4328 2.5 8.07031 5.8625 8.07031 10V16.25C8.07031 18.075 8.72031 19.75 9.80781 21.05" stroke="#F74B4A" stroke-width="2" stroke-linecap="round" stroke-linejoin="round"/>
    <path d="M23.0727 12.4766V16.2516C23.0727 20.3891 19.7102 23.7516 15.5727 23.7516C14.6602 23.7516 13.7727 23.5891 12.9727 23.2891" stroke="#F74B4A" stroke-width="2" stroke-linecap="round" stroke-linejoin="round"/>
    <path d="M7.89453 24.475C9.90703 26.35 12.607 27.5 15.5695 27.5C21.782 27.5 26.8195 22.4625 26.8195 16.25V13.75" stroke="#F74B4A" stroke-width="2" stroke-linecap="round" stroke-linejoin="round"/>
    <path d="M27.4453 3.73438L3.69531 27.4844" stroke="#F74B4A" stroke-width="2" stroke-linecap="round" stroke-linejoin="round"/>
    <path d="M15.0078 6.87813V2.82812" stroke="#F74B4A" stroke-width="2" stroke-linecap="round" stroke-linejoin="round"/>
    <path d="M11.1953 4.375V9.375" stroke="#F74B4A" stroke-width="2" stroke-linecap="round" stroke-linejoin="round"/>
</svg>
