<svg width="20" height="20" viewBox="0 0 20 20" fill="none" xmlns="http://www.w3.org/2000/svg">
<path d="M18.3334 9.90832V10.65C18.3334 13.6167 17.5917 14.35 14.6334 14.35H5.36675C2.40841 14.35 1.66675 13.6083 1.66675 10.65V5.36666C1.66675 2.40832 2.40841 1.66666 5.36675 1.66666H6.66675" stroke="#334155" stroke-width="1.5" stroke-linecap="round" stroke-linejoin="round"/>
<path d="M10 14.35V18.3333" stroke="#334155" stroke-width="1.5" stroke-linecap="round" stroke-linejoin="round"/>
<path d="M1.66675 10.8333H18.3334" stroke="#334155" stroke-width="1.5" stroke-linecap="round" stroke-linejoin="round"/>
<path d="M6.25 18.3333H13.75" stroke="#334155" stroke-width="1.5" stroke-linecap="round" stroke-linejoin="round"/>
<path d="M14.8833 7.80832H10.9166C9.76663 7.80832 9.3833 7.04165 9.3833 6.27499V3.34165C9.3833 2.42499 10.1333 1.67499 11.05 1.67499H14.8833C15.7333 1.67499 16.4166 2.35832 16.4166 3.20832V6.27499C16.4166 7.12499 15.7333 7.80832 14.8833 7.80832Z" stroke="#334155" stroke-width="1.5" stroke-linecap="round" stroke-linejoin="round"/>
<path d="M17.4251 6.59999L16.4167 5.89166V3.59166L17.4251 2.88332C17.9251 2.54166 18.3334 2.74999 18.3334 3.35832V6.13332C18.3334 6.74166 17.9251 6.94999 17.4251 6.59999Z" stroke="#334155" stroke-width="1.5" stroke-linecap="round" stroke-linejoin="round"/>
</svg>
