<svg width="20" height="20" viewBox="0 0 20 20" fill="none" xmlns="http://www.w3.org/2000/svg">
<path d="M16.6666 6.87502V15C16.6666 17.5 15.1749 18.3334 13.3333 18.3334H6.66658C4.82492 18.3334 3.33325 17.5 3.33325 15V6.87502C3.33325 4.16669 4.82492 3.54169 6.66658 3.54169C6.66658 4.05835 6.8749 4.52502 7.21656 4.86668C7.55823 5.20835 8.02492 5.41669 8.54158 5.41669H11.4583C12.4916 5.41669 13.3333 4.57502 13.3333 3.54169C15.1749 3.54169 16.6666 4.16669 16.6666 6.87502Z" stroke="#334155" stroke-width="1.5" stroke-linecap="round" stroke-linejoin="round"/>
<path d="M13.3334 3.54169C13.3334 4.57502 12.4917 5.41669 11.4584 5.41669H8.54175C8.02508 5.41669 7.55839 5.20835 7.21673 4.86668C6.87506 4.52502 6.66675 4.05835 6.66675 3.54169C6.66675 2.50835 7.50841 1.66669 8.54175 1.66669H11.4584C11.9751 1.66669 12.4418 1.87502 12.7834 2.21669C13.1251 2.55836 13.3334 3.02502 13.3334 3.54169Z" stroke="#334155" stroke-width="1.5" stroke-linecap="round" stroke-linejoin="round"/>
<path d="M6.66675 10.8333H10.0001" stroke="#334155" stroke-width="1.5" stroke-linecap="round" stroke-linejoin="round"/>
<path d="M6.66675 14.1667H13.3334" stroke="#334155" stroke-width="1.5" stroke-linecap="round" stroke-linejoin="round"/>
</svg>
