<svg width="30" height="30" viewBox="0 0 30 30" fill="none" xmlns="http://www.w3.org/2000/svg">
<g clip-path="url(#clip0_1003_11553)">
<path d="M14.0747 6.43093L7.50415 13.0015L7.21619 12.7135C7.00328 12.5006 6.71455 12.381 6.41346 12.381C6.11236 12.381 5.82358 12.5006 5.61067 12.7135L3.42049 14.9037C3.20758 15.1166 3.08797 15.4054 3.08797 15.7065C3.08797 16.0076 3.20758 16.2963 3.42049 16.5092L3.70845 16.7972L2.32976 18.1758C2.11685 18.3888 1.99725 18.6775 1.99725 18.9786C1.99725 19.2797 2.11685 19.5685 2.32976 19.7814L10.532 27.9836C10.7449 28.1965 11.0337 28.3162 11.3348 28.3162C11.6359 28.3162 11.9246 28.1965 12.1376 27.9836L23.8825 16.2387C25.1831 14.9381 25.9138 13.1741 25.9138 11.3348C25.9138 9.49548 25.1831 7.7315 23.8825 6.4309C22.5819 5.13031 20.8179 4.39964 18.9786 4.39964C17.1393 4.39964 15.3753 5.13033 14.0747 6.43093ZM3.93531 15.9944C3.85894 15.918 3.81604 15.8144 3.81604 15.7064C3.81604 15.5984 3.85894 15.4949 3.93531 15.4185L6.12549 13.2283C6.20186 13.1519 6.30543 13.109 6.41343 13.109C6.52143 13.109 6.625 13.1519 6.70137 13.2283L6.98934 13.5163L4.22327 16.2823L3.93531 15.9944ZM23.3851 15.7413L11.6402 27.4863C11.563 27.5635 11.4588 27.6076 11.3497 27.6092C11.2405 27.6109 11.135 27.5699 11.0556 27.495L2.85332 19.2927C2.77843 19.2133 2.73745 19.1078 2.73908 18.9987C2.74071 18.8895 2.7848 18.7853 2.86202 18.7081L14.6069 6.96319C15.771 5.79913 17.3498 5.14517 18.996 5.14517C20.6423 5.14517 22.221 5.79913 23.3851 6.96319C24.5491 8.12724 25.2031 9.70604 25.2031 11.3523C25.2031 12.9985 24.5491 14.5773 23.3851 15.7413Z" fill="#334155" stroke="#334155" stroke-width="0.5" stroke-miterlimit="10"/>
<path d="M13.9758 9.21159L13.4261 9.76132C13.359 9.82844 13.3195 9.91764 13.3163 10.0093C13.3131 10.101 13.3464 10.1877 13.409 10.2503C13.4716 10.3128 13.5582 10.3462 13.6499 10.343C13.7416 10.3398 13.8308 10.3003 13.8979 10.2331L14.4477 9.68342C14.5269 9.60837 14.6303 9.56521 14.7357 9.56309C14.8411 9.56097 14.9403 9.60004 15.0122 9.67204L17.5748 12.2346L15.8296 13.9797L14.2183 13.3457C14.1524 13.3146 14.0763 13.3075 14.0024 13.3253C13.9284 13.3432 13.8609 13.3851 13.8107 13.4442C13.7605 13.5028 13.7295 13.5748 13.7223 13.6494C13.7152 13.724 13.7322 13.7973 13.7709 13.8582L15.6925 16.9316L11.3056 14.2898C11.2388 14.2504 11.1592 14.2355 11.0794 14.2474C10.9996 14.2594 10.9243 14.2975 10.8654 14.3558C10.8094 14.4123 10.7726 14.4846 10.7607 14.5613C10.7489 14.6379 10.7628 14.7146 10.8001 14.7791L13.1164 18.8406L10.6294 17.4879C10.5695 17.4555 10.4999 17.4427 10.4298 17.4514C10.3597 17.4601 10.2924 17.4897 10.2369 17.5365C10.1813 17.5832 10.1402 17.6448 10.1188 17.713C10.0975 17.7812 10.0971 17.8528 10.1175 17.9184L10.5243 19.285L8.77913 21.0302L6.2166 18.4677C6.1446 18.3957 6.10553 18.2965 6.10765 18.1911C6.10977 18.0857 6.15293 17.9824 6.22798 17.9031L12.7898 11.3413C12.8569 11.2742 12.8964 11.185 12.8996 11.0933C12.9028 11.0016 12.8695 10.9149 12.8069 10.8523C12.7443 10.7898 12.6577 10.7564 12.566 10.7597C12.4743 10.7629 12.3851 10.8024 12.3179 10.8695L5.75615 17.4313C5.54325 17.6442 5.41789 17.9272 5.40769 18.2181C5.3975 18.509 5.50328 18.784 5.70178 18.9825L11.2987 24.5794C11.4972 24.7779 11.7721 24.8837 12.063 24.8735C12.3539 24.8633 12.637 24.7379 12.8499 24.525L21.0522 16.3228C21.2651 16.1099 21.3904 15.8268 21.4006 15.5359C21.4108 15.245 21.305 14.9701 21.1065 14.7716L15.5096 9.17469C15.3111 8.97619 15.0361 8.87038 14.7452 8.88058C14.4543 8.89077 14.1713 9.01613 13.9584 9.22904L13.9758 9.21159ZM20.5977 15.8335L12.3955 24.0357C12.3162 24.1108 12.2129 24.154 12.1075 24.1561C12.0021 24.1582 11.9029 24.1191 11.831 24.0471L9.26844 21.4846L11.1968 19.5562C11.244 19.5092 11.278 19.451 11.2951 19.3879C11.3122 19.3248 11.3117 19.2594 11.2936 19.1991L11.0829 18.4824L13.9245 20.05C13.9894 20.0931 14.0691 20.1111 14.1496 20.1008C14.2301 20.0905 14.3065 20.0526 14.3655 19.9936C14.4244 19.9346 14.4624 19.8583 14.4727 19.7778C14.483 19.6972 14.465 19.6176 14.4218 19.5526L12.1595 15.6324L16.6277 18.3555C16.692 18.396 16.7698 18.4124 16.8482 18.402C16.9266 18.3916 17.001 18.355 17.0592 18.2983C17.1174 18.2394 17.1556 18.164 17.1675 18.0842C17.1795 18.0045 17.1645 17.9249 17.1251 17.8581L14.9724 14.414L15.753 14.7234C15.8153 14.7495 15.8856 14.7549 15.954 14.739C16.0225 14.723 16.0857 14.6864 16.135 14.6342L18.0634 12.7058L20.626 15.2684C20.698 15.3403 20.7371 15.4395 20.735 15.5449C20.7328 15.6503 20.6897 15.7536 20.6146 15.8329L20.5977 15.8335Z" fill="#334155" stroke="#334155" stroke-width="0.3" stroke-miterlimit="10"/>
<circle cx="20.77" cy="9.77002" r="2" fill="#334155"/>
</g>
<defs>
<clipPath id="clip0_1003_11553">
<rect width="25.2973" height="16.0175" fill="white" transform="translate(0 17.8879) rotate(-45)"/>
</clipPath>
</defs>
</svg>
