<svg width="33" height="32" viewBox="0 0 33 32" fill="none" xmlns="http://www.w3.org/2000/svg">
<path d="M29.3346 13.0013C28.788 13.0013 28.3346 12.548 28.3346 12.0013V9.33463C28.3346 5.89464 26.108 3.66797 22.668 3.66797H9.33463C5.89464 3.66797 3.66797 5.89464 3.66797 9.33463V12.0013C3.66797 12.548 3.21464 13.0013 2.66797 13.0013C2.1213 13.0013 1.66797 12.548 1.66797 12.0013V9.33463C1.66797 4.74797 4.74797 1.66797 9.33463 1.66797H22.668C27.2546 1.66797 30.3346 4.74797 30.3346 9.33463V12.0013C30.3346 12.548 29.8813 13.0013 29.3346 13.0013Z" fill="#FEC101"/>
<path d="M22.668 30.3333H9.33463C4.74797 30.3333 1.66797 27.2533 1.66797 22.6667V20C1.66797 19.4533 2.1213 19 2.66797 19C3.21464 19 3.66797 19.4533 3.66797 20V22.6667C3.66797 26.1067 5.89464 28.3333 9.33463 28.3333H22.668C26.108 28.3333 28.3346 26.1067 28.3346 22.6667V20C28.3346 19.4533 28.788 19 29.3346 19C29.8813 19 30.3346 19.4533 30.3346 20V22.6667C30.3346 27.2533 27.2546 30.3333 22.668 30.3333Z" fill="#FEC101"/>
<path d="M29.3346 17H2.66797C2.1213 17 1.66797 16.5467 1.66797 16C1.66797 15.4533 2.1213 15 2.66797 15H29.3346C29.8813 15 30.3346 15.4533 30.3346 16C30.3346 16.5467 29.8813 17 29.3346 17Z" fill="#FEC101"/>
<path d="M22.0026 12.0013H10.0026C9.62927 12.0013 9.33594 11.708 9.33594 11.3346V8.66797C9.33594 7.5613 10.2293 6.66797 11.3359 6.66797H20.6693C21.7759 6.66797 22.6693 7.5613 22.6693 8.66797V11.3346C22.6693 11.708 22.3759 12.0013 22.0026 12.0013Z" fill="#FEC101"/>
<path d="M22.0026 20H10.0026C9.62927 20 9.33594 20.2933 9.33594 20.6667V23.3333C9.33594 24.44 10.2293 25.3333 11.3359 25.3333H20.6693C21.7626 25.3333 22.6693 24.44 22.6693 23.3333V20.6667C22.6693 20.2933 22.3759 20 22.0026 20Z" fill="#FEC101"/>
</svg>
