<svg width="21" height="22" viewBox="0 0 21 22" fill="none" xmlns="http://www.w3.org/2000/svg">
<path d="M1 1.49567V0.645666C0.530558 0.645666 0.15 1.02622 0.15 1.49567L1 1.49567ZM11.45 1.49567H12.3C12.3 1.02622 11.9194 0.645666 11.45 0.645666V1.49567ZM10.025 0.645666C9.55556 0.645666 9.175 1.02622 9.175 1.49567C9.175 1.96511 9.55556 2.34567 10.025 2.34567V0.645666ZM2.425 2.34567C2.89444 2.34567 3.275 1.96511 3.275 1.49567C3.275 1.02622 2.89444 0.645666 2.425 0.645666V2.34567ZM10.6 1.49567V7.67066H12.3V1.49567H10.6ZM1.85 7.67067V1.49567H0.15V7.67067H1.85ZM11.45 0.645666H10.025V2.34567H11.45V0.645666ZM1 2.34567H2.425V0.645666H1V2.34567ZM6.225 12.0457C3.80875 12.0457 1.85 10.0869 1.85 7.67067H0.15C0.15 11.0258 2.86987 13.7457 6.225 13.7457V12.0457ZM10.6 7.67066C10.6 10.0869 8.64125 12.0457 6.225 12.0457V13.7457C9.58013 13.7457 12.3 11.0258 12.3 7.67066H10.6Z" stroke="#334155"/>
<circle cx="17.8626" cy="9.80815" r="2.1375" stroke="#334155" stroke-width="1.7"/>
<path d="M6.2251 12.8957V14.6769C6.2251 17.8905 8.83024 20.4957 12.0438 20.4957V20.4957C15.2575 20.4957 17.8626 17.8905 17.8626 14.6769V11.9457" stroke="#334155" stroke-width="1.7"/>
</svg>
