<svg width="24" height="25" viewBox="0 0 24 25" fill="none" xmlns="http://www.w3.org/2000/svg">
<path d="M2.48463 20.8089C2.15269 21.1409 2.15269 21.679 2.48463 22.011C2.81658 22.3429 3.35477 22.3429 3.68671 22.011L2.48463 20.8089ZM6.18457 12.377L5.33604 12.4269L6.18457 12.377ZM12.1187 18.3111L12.1686 17.4625L12.1187 18.3111ZM12.1686 17.4625L6.56416 17.1328L6.46433 18.8299L12.0688 19.1596L12.1686 17.4625ZM7.36278 17.9315L7.0331 12.327L5.33604 12.4269L5.66571 18.0313L7.36278 17.9315ZM5.9132 17.3803L2.48463 20.8089L3.68671 22.011L7.11528 18.5824L5.9132 17.3803ZM6.9312 12.5951L15.3439 4.18242L14.1418 2.98034L5.72911 11.393L6.9312 12.5951ZM20.3132 9.15177L11.9005 17.5644L13.1026 18.7665L21.5153 10.3538L20.3132 9.15177ZM20.3132 4.18242C21.6854 5.55467 21.6855 7.77952 20.3132 9.15177L21.5153 10.3538C23.5514 8.31771 23.5514 5.01648 21.5153 2.98034L20.3132 4.18242ZM21.5153 2.98034C19.4791 0.944199 16.1779 0.944199 14.1418 2.98034L15.3439 4.18242C16.7161 2.81017 18.941 2.81017 20.3132 4.18242L21.5153 2.98034ZM7.0331 12.327C7.03898 12.4268 7.00189 12.5244 6.9312 12.5951L5.72911 11.393C5.45645 11.6657 5.31339 12.0419 5.33604 12.4269L7.0331 12.327ZM12.0688 19.1596C12.4537 19.1822 12.83 19.0392 13.1026 18.7665L11.9005 17.5644C11.9712 17.4937 12.0688 17.4566 12.1686 17.4625L12.0688 19.1596Z" fill="#334155"/>
<path d="M10.1142 14.3814L16.4856 8.01115" stroke="#334155" stroke-width="1.7" stroke-linecap="round"/>
</svg>

