<svg width="16" height="20" viewBox="0 0 16 20" fill="none" xmlns="http://www.w3.org/2000/svg">
<g clip-path="url(#clip0_497_8072)">
<path d="M7.93841 0.639771C10.5674 0.639771 12.6932 2.94293 12.6932 5.78742C12.6932 8.63191 10.5674 10.9449 7.93841 10.9449C5.3094 10.9449 3.18359 8.64175 3.18359 5.78742C3.18359 2.93309 5.31967 0.639771 7.93841 0.639771Z" stroke="#BCBCBC" stroke-width="1.3" stroke-miterlimit="10"/>
<path d="M2.58792 19.3603H13.3915C13.6841 19.3591 13.9727 19.2945 14.2356 19.1713C14.4985 19.0481 14.7289 18.8696 14.9097 18.6491C15.0904 18.4285 15.2168 18.1716 15.2793 17.8976C15.3419 17.6237 15.339 17.3397 15.2709 17.0669C15.0471 16.2042 14.6385 15.3955 14.0709 14.6923C13.5034 13.989 12.7894 13.4067 11.9743 12.9823C11.6942 12.8291 11.3789 12.7444 11.0565 12.7358C10.734 12.7272 10.4144 12.795 10.1258 12.9331L9.09883 13.4252C8.82097 13.5682 8.51048 13.6431 8.1951 13.6431C7.87971 13.6431 7.56923 13.5682 7.29137 13.4252L6.39792 12.9429C6.15488 12.8113 5.88532 12.731 5.60727 12.7072C5.32922 12.6834 5.04909 12.7168 4.78559 12.8051C3.78878 13.1243 2.89375 13.6826 2.18554 14.4268C1.47733 15.171 0.979483 16.0765 0.739375 17.0571C0.667957 17.3282 0.661615 17.6114 0.72079 17.8852C0.779966 18.1591 0.903136 18.4165 1.08105 18.6382C1.25896 18.8599 1.48697 19.04 1.74797 19.1651C2.00896 19.2901 2.29614 19.3569 2.58792 19.3603V19.3603Z" stroke="#BCBCBC" stroke-width="1.3" stroke-miterlimit="10"/>
<path d="M4.89856 12.7067V14.9606" stroke="#BCBCBC" stroke-width="1.3" stroke-miterlimit="10"/>
<path d="M4.86779 17.628C5.57108 17.628 6.14122 17.0815 6.14122 16.4075C6.14122 15.7334 5.57108 15.187 4.86779 15.187C4.16449 15.187 3.59436 15.7334 3.59436 16.4075C3.59436 17.0815 4.16449 17.628 4.86779 17.628Z" stroke="#BCBCBC" stroke-width="1.3" stroke-miterlimit="10"/>
<path d="M10.9884 12.6083V14.1339C11.0002 14.4166 11.0807 14.6927 11.2233 14.9405C11.3659 15.1882 11.5667 15.4007 11.81 15.561C12.5186 16.0728 12.7856 17.2933 12.6623 19.1437" stroke="#BCBCBC" stroke-width="1.3" stroke-miterlimit="10"/>
<path d="M9.44806 19.0157C9.34536 16.9291 10.0334 15.3051 11.276 15.0787" stroke="#BCBCBC" stroke-width="1.3" stroke-miterlimit="10"/>
<path d="M5.97693 10.502V12.4508" stroke="#BCBCBC" stroke-width="1.3" stroke-miterlimit="10"/>
<path d="M10.0437 10.502V13.0118" stroke="#BCBCBC" stroke-width="1.3" stroke-miterlimit="10"/>
</g>
<defs>
<clipPath id="clip0_497_8072">
<rect width="16" height="20" fill="white"/>
</clipPath>
</defs>
</svg>
