<svg width="20" height="20" viewBox="0 0 20 20" fill="none" xmlns="http://www.w3.org/2000/svg">
<path d="M15.1166 18.0167C14.3833 18.2334 13.5166 18.3334 12.5 18.3334H7.49997C6.4833 18.3334 5.61663 18.2334 4.8833 18.0167C5.06663 15.85 7.29163 14.1417 9.99997 14.1417C12.7083 14.1417 14.9333 15.85 15.1166 18.0167Z" stroke="#334155" stroke-width="1.5" stroke-linecap="round" stroke-linejoin="round"/>
<path d="M12.5001 1.66669H7.50008C3.33341 1.66669 1.66675 3.33335 1.66675 7.50002V12.5C1.66675 15.65 2.61675 17.375 4.88342 18.0167C5.06675 15.85 7.29175 14.1417 10.0001 14.1417C12.7084 14.1417 14.9334 15.85 15.1167 18.0167C17.3834 17.375 18.3334 15.65 18.3334 12.5V7.50002C18.3334 3.33335 16.6667 1.66669 12.5001 1.66669ZM10.0001 11.8083C8.35008 11.8083 7.01675 10.4667 7.01675 8.8167C7.01675 7.1667 8.35008 5.83335 10.0001 5.83335C11.6501 5.83335 12.9834 7.1667 12.9834 8.8167C12.9834 10.4667 11.6501 11.8083 10.0001 11.8083Z" stroke="#334155" stroke-width="1.5" stroke-linecap="round" stroke-linejoin="round"/>
<path d="M12.9833 8.81666C12.9833 10.4667 11.6499 11.8083 9.99994 11.8083C8.34994 11.8083 7.0166 10.4667 7.0166 8.81666C7.0166 7.16666 8.34994 5.83331 9.99994 5.83331C11.6499 5.83331 12.9833 7.16666 12.9833 8.81666Z" stroke="#334155" stroke-width="1.5" stroke-linecap="round" stroke-linejoin="round"/>
</svg>
