<svg width="21" height="20" viewBox="0 0 21 20" fill="none" xmlns="http://www.w3.org/2000/svg">
<path d="M7.9126 10L9.92093 12.0167L13.9459 7.98334" stroke="#334155" stroke-width="1.5" stroke-linecap="round" stroke-linejoin="round"/>
<path d="M9.8876 2.04166C10.4626 1.55 11.4043 1.55 11.9876 2.04166L13.3043 3.175C13.5543 3.39166 14.0209 3.56666 14.3543 3.56666H15.7709C16.6543 3.56666 17.3793 4.29166 17.3793 5.175V6.59166C17.3793 6.91666 17.5543 7.39166 17.7709 7.64166L18.9043 8.95833C19.3959 9.53333 19.3959 10.475 18.9043 11.0583L17.7709 12.375C17.5543 12.625 17.3793 13.0917 17.3793 13.425V14.8417C17.3793 15.725 16.6543 16.45 15.7709 16.45H14.3543C14.0293 16.45 13.5543 16.625 13.3043 16.8417L11.9876 17.975C11.4126 18.4667 10.4709 18.4667 9.8876 17.975L8.57093 16.8417C8.32093 16.625 7.85426 16.45 7.52093 16.45H6.07926C5.19593 16.45 4.47093 15.725 4.47093 14.8417V13.4167C4.47093 13.0917 4.29593 12.625 4.0876 12.375L2.9626 11.05C2.47926 10.475 2.47926 9.54166 2.9626 8.96666L4.0876 7.64166C4.29593 7.39166 4.47093 6.925 4.47093 6.6V5.16666C4.47093 4.28333 5.19593 3.55833 6.07926 3.55833H7.52093C7.84593 3.55833 8.32093 3.38333 8.57093 3.16666L9.8876 2.04166Z" stroke="#334155" stroke-width="1.5" stroke-linecap="round" stroke-linejoin="round"/>
</svg>
