<svg width="24" height="24" viewBox="0 0 20 20" fill="none" xmlns="http://www.w3.org/2000/svg">
<path d="M17.4743 8.64167V11.3C17.4743 13.2333 15.9077 14.8 13.9743 14.8H11.0077C10.5493 14.8 10.1743 15.1667 10.1743 15.6333V16.3167C10.1743 16.775 10.5493 17.15 11.0077 17.15H12.891C13.216 17.15 13.4827 17.4083 13.4827 17.7417C13.4827 18.0667 13.216 18.3333 12.891 18.3333H6.27435C5.94935 18.3333 5.68268 18.0667 5.68268 17.7417C5.68268 17.4083 5.94935 17.15 6.27435 17.15H8.15768C8.61602 17.15 8.99102 16.775 8.99102 16.3167V15.6333C8.99102 15.1667 8.61602 14.8 8.15768 14.8H5.15768C3.23268 14.8 1.66602 13.2333 1.66602 11.3V5.99167C1.66602 4.06667 3.23268 2.5 5.15768 2.5H8.74935C9.20768 2.5 9.58268 2.875 9.58268 3.33333V5.125C9.58268 6.73333 10.6577 7.80833 12.2577 7.80833H16.641C17.0993 7.80833 17.4743 8.18333 17.4743 8.64167Z" fill="#334155"/>
<path d="M18.3257 1.96635L17.384 2.62468V2.27468C17.384 1.48302 16.7423 0.849683 15.959 0.849683H12.3923C11.534 0.84135 10.834 1.54135 10.834 2.39968V5.13302C10.834 5.84968 11.1923 6.55802 12.259 6.55802H15.9507C16.7423 6.55802 17.3757 5.91635 17.3757 5.13302V4.77468L18.3173 5.43302C18.7923 5.75802 19.1673 5.55802 19.1673 4.99135V2.40802C19.1673 1.84135 18.7923 1.64968 18.3257 1.96635Z" fill="#334155"/>
</svg>
