<svg xmlns="http://www.w3.org/2000/svg" viewBox="0 0 50 50" width="18" height="18">
  <path d="M1.1875 0C0.9375 0 0.699219 0.113281 0.5 0.3125C0.101563 0.710938 0.101563 1.289063 0.5 1.6875L48.5 49.6875C48.699219 49.886719 48.988281 50 49.1875 50C49.386719 50 49.707031 49.886719 49.90625 49.6875C50.304688 49.289063 50.304688 48.710938 49.90625 48.3125L42.34375 40.75C47.167969 36.972656 50 31.199219 50 24.90625C50 17.207031 45.707031 10.3125 38.90625 6.8125C38.40625 6.613281 37.792969 6.6875 37.59375 7.1875C37.394531 7.886719 37.601563 8.488281 38 8.6875C44.199219 11.789063 48 18.101563 48 25C48 30.691406 45.378906 35.972656 40.96875 39.375L37.78125 36.1875C41.078125 33.496094 43.09375 29.414063 43.09375 25C43.09375 19.699219 40.199219 14.8125 35.5 12.3125C35 12.011719 34.394531 12.1875 34.09375 12.6875C33.792969 13.1875 34.007813 13.800781 34.40625 14C38.40625 16.199219 41 20.398438 41 25C41 28.820313 39.253906 32.398438 36.3125 34.71875L32.5 30.90625C34.609375 29.714844 36 27.503906 36 25C36 21.898438 33.90625 19.207031 30.90625 18.40625C30.40625 18.304688 29.785156 18.59375 29.6875 19.09375C29.589844 19.59375 29.90625 20.210938 30.40625 20.3125C32.507813 20.8125 34 22.707031 34 24.90625C34 26.890625 32.777344 28.699219 31 29.40625L27 25.40625L27 6.3125C27 4.011719 25.488281 3 24.1875 3C23.289063 3 22.394531 3.386719 21.59375 4.1875L13.6875 12.09375L1.90625 0.3125C1.707031 0.113281 1.4375 0 1.1875 0 Z M 11 14.6875L10 15.78125L10 34.1875L21.5 45.6875C22.601563 46.789063 23.488281 47 24.1875 47C25.886719 47 27 45.511719 27 43.3125L27 30.6875 Z M 3 16C1.300781 16 0 17.300781 0 19L0 31C0 32.699219 1.300781 34 3 34L8 34L8 16Z" fill="#FFFFFF" />
</svg>
