<svg width="34" height="34" viewBox="0 0 34 34" fill="none" xmlns="http://www.w3.org/2000/svg">
<path d="M23.7308 5.04203V2.83203C23.7308 2.2512 23.2491 1.76953 22.6683 1.76953C22.0875 1.76953 21.6058 2.2512 21.6058 2.83203V4.95703H12.3975V2.83203C12.3975 2.2512 11.9158 1.76953 11.335 1.76953C10.7541 1.76953 10.2725 2.2512 10.2725 2.83203V5.04203C6.44746 5.3962 4.59163 7.67703 4.30829 11.0629C4.27996 11.4737 4.61996 11.8137 5.01663 11.8137H28.9866C29.3975 11.8137 29.7375 11.4595 29.695 11.0629C29.4116 7.67703 27.5558 5.3962 23.7308 5.04203Z" fill="#295DE1"/>
<path d="M26.9167 21.25C23.7858 21.25 21.25 23.7858 21.25 26.9167C21.25 27.9792 21.5475 28.985 22.0717 29.835C23.0492 31.4783 24.8483 32.5833 26.9167 32.5833C28.985 32.5833 30.7842 31.4783 31.7617 29.835C32.2858 28.985 32.5833 27.9792 32.5833 26.9167C32.5833 23.7858 30.0475 21.25 26.9167 21.25ZM29.8492 26.3075L26.8317 29.0983C26.6333 29.2825 26.3642 29.3817 26.1092 29.3817C25.84 29.3817 25.5708 29.2825 25.3583 29.07L23.9558 27.6675C23.545 27.2567 23.545 26.5767 23.9558 26.1658C24.3667 25.755 25.0467 25.755 25.4575 26.1658L26.1375 26.8458L28.4042 24.7492C28.8292 24.3525 29.5092 24.3808 29.9058 24.8058C30.3025 25.2308 30.2742 25.8967 29.8492 26.3075Z" fill="#295DE1"/>
<path d="M28.3333 13.9395H5.66667C4.8875 13.9395 4.25 14.577 4.25 15.3561V24.0828C4.25 28.3328 6.375 31.1661 11.3333 31.1661H18.3175C19.295 31.1661 19.975 30.217 19.6633 29.2961C19.38 28.4745 19.1392 27.5678 19.1392 26.9161C19.1392 22.6236 22.6383 19.1245 26.9308 19.1245C27.3417 19.1245 27.7525 19.1528 28.1492 19.2236C28.9992 19.3511 29.7642 18.6853 29.7642 17.8353V15.3703C29.75 14.577 29.1125 13.9395 28.3333 13.9395ZM13.0475 25.797C12.7783 26.052 12.41 26.2078 12.0417 26.2078C11.6733 26.2078 11.305 26.052 11.0358 25.797C10.7808 25.5278 10.625 25.1595 10.625 24.7911C10.625 24.4228 10.7808 24.0545 11.0358 23.7853C11.1775 23.6578 11.3192 23.5586 11.5033 23.4878C12.0275 23.2611 12.6508 23.3886 13.0475 23.7853C13.3025 24.0545 13.4583 24.4228 13.4583 24.7911C13.4583 25.1595 13.3025 25.5278 13.0475 25.797ZM13.0475 20.8386C12.9767 20.8953 12.9058 20.952 12.835 21.0086C12.75 21.0653 12.665 21.1078 12.58 21.1361C12.495 21.1786 12.41 21.207 12.325 21.2211C12.2258 21.2353 12.1267 21.2495 12.0417 21.2495C11.6733 21.2495 11.305 21.0936 11.0358 20.8386C10.7808 20.5695 10.625 20.2011 10.625 19.8328C10.625 19.4645 10.7808 19.0961 11.0358 18.827C11.3617 18.5011 11.8575 18.3453 12.325 18.4445C12.41 18.4586 12.495 18.487 12.58 18.5295C12.665 18.5578 12.75 18.6003 12.835 18.657C12.9058 18.7136 12.9767 18.7703 13.0475 18.827C13.3025 19.0961 13.4583 19.4645 13.4583 19.8328C13.4583 20.2011 13.3025 20.5695 13.0475 20.8386ZM18.0058 20.8386C17.7367 21.0936 17.3683 21.2495 17 21.2495C16.6317 21.2495 16.2633 21.0936 15.9942 20.8386C15.7392 20.5695 15.5833 20.2011 15.5833 19.8328C15.5833 19.4645 15.7392 19.0961 15.9942 18.827C16.5325 18.3028 17.4817 18.3028 18.0058 18.827C18.2608 19.0961 18.4167 19.4645 18.4167 19.8328C18.4167 20.2011 18.2608 20.5695 18.0058 20.8386Z" fill="#295DE1"/>
</svg>
