<svg width="20" height="16" viewBox="0 0 20 16" fill="none" xmlns="http://www.w3.org/2000/svg">
    <path d="M7.91659 8.24044L15.6645 2.85027L16.8439 4.14618L10.7499 11.3536L7.91659 8.24044ZM5.58648 8.65162L10.1218 13.6349C10.2157 13.7279 10.3283 13.7999 10.452 13.8462C10.5758 13.8925 10.708 13.912 10.8399 13.9034C10.9718 13.8948 11.1003 13.8583 11.2171 13.7964C11.3338 13.7344 11.4361 13.6484 11.5171 13.544L18.9685 4.73102C19.1169 4.56791 19.201 4.35635 19.2049 4.13584C19.2088 3.91532 19.1324 3.70091 18.9898 3.53262L16.4768 0.77146C16.3227 0.613736 16.1164 0.517492 15.8965 0.500688C15.6766 0.483885 15.4581 0.54767 15.2817 0.68014L5.80807 7.27097C5.69651 7.34183 5.60125 7.43557 5.5286 7.54597C5.45595 7.65637 5.40755 7.78094 5.38661 7.91143C5.36567 8.04193 5.37265 8.17538 5.40711 8.30298C5.44156 8.43057 5.5027 8.5494 5.58648 8.65162ZM0.792969 14.5273L6.41033 15.4996L7.88946 14.1534L4.86057 10.8254L0.792969 14.5273Z" fill="#00171F"/>
</svg>
