<svg width="44" height="45" viewBox="0 0 44 45" fill="none" xmlns="http://www.w3.org/2000/svg">
    <path d="M34.4861 11.9585H36.9794C36.6311 11.4635 36.2644 11.0052 35.8794 10.5469L34.4861 11.9585Z" fill="#61D215"/>
    <path d="M33.9543 8.60391C33.496 8.21891 33.0377 7.85224 32.5427 7.50391V9.99724L33.9543 8.60391Z" fill="#61D215"/>
    <path d="M35.8977 10.5473L41.306 5.13896C41.8377 4.60729 41.8377 3.72729 41.306 3.19563C40.7743 2.66396 39.8943 2.66396 39.3627 3.19563L33.9543 8.60396C34.651 9.20896 35.2927 9.86896 35.8977 10.5473Z" fill="#61D215"/>
    <path d="M32.5426 6C32.5426 5.24833 31.9193 4.625 31.1676 4.625C30.4343 4.625 29.8476 5.21167 29.811 5.92667C30.7643 6.385 31.681 6.89833 32.5426 7.50333V6Z" fill="#61D215"/>
    <path d="M39.876 13.332C39.876 12.5804 39.2527 11.957 38.501 11.957H36.9794C37.5844 12.8187 38.116 13.7354 38.556 14.6887C39.2894 14.652 39.876 14.0654 39.876 13.332Z" fill="#61D215"/>
    <path d="M23.376 27.5424H23.926C24.641 27.5424 25.2093 26.9008 25.2093 26.1124C25.2093 25.1224 24.9343 24.9758 24.311 24.7558L23.376 24.4258V27.5424Z" fill="#61D215"/>
    <path d="M38.5743 14.6913C38.556 14.6913 38.5377 14.7096 38.501 14.7096H31.1677C30.9843 14.7096 30.8193 14.673 30.636 14.5996C30.306 14.453 30.031 14.1963 29.8843 13.848C29.8293 13.683 29.7927 13.518 29.7927 13.3346V6.0013C29.7927 5.98297 29.811 5.96464 29.811 5.92797C27.4277 4.80964 24.7877 4.16797 22.001 4.16797C11.881 4.16797 3.66766 12.3813 3.66766 22.5013C3.66766 32.6213 11.881 40.8346 22.001 40.8346C32.121 40.8346 40.3343 32.6213 40.3343 22.5013C40.3343 19.7146 39.6927 17.0746 38.5743 14.6913ZM25.2093 22.1713C26.3827 22.5746 27.9593 23.4363 27.9593 26.1313C27.9593 28.423 26.1443 30.3113 23.926 30.3113H23.376V30.7696C23.376 31.5213 22.7527 32.1446 22.001 32.1446C21.2493 32.1446 20.626 31.5213 20.626 30.7696V30.3113H20.4793C18.041 30.3113 16.0427 28.258 16.0427 25.728C16.0427 24.958 16.666 24.3346 17.4177 24.3346C18.1693 24.3346 18.7927 24.958 18.7927 25.7096C18.7927 26.718 19.5443 27.543 20.4793 27.543H20.626V23.473L18.7927 22.8313C17.6193 22.428 16.0427 21.5663 16.0427 18.8713C16.0427 16.5796 17.8577 14.6913 20.076 14.6913H20.626V14.2513C20.626 13.4996 21.2493 12.8763 22.001 12.8763C22.7527 12.8763 23.376 13.4996 23.376 14.2513V14.7096H23.5227C25.961 14.7096 27.9593 16.763 27.9593 19.293C27.9593 20.0446 27.336 20.668 26.5843 20.668C25.8327 20.668 25.2093 20.0446 25.2093 19.293C25.2093 18.2846 24.4577 17.4596 23.5227 17.4596H23.376V21.5296L25.2093 22.1713Z" fill="#61D215"/>
    <path d="M18.7927 18.887C18.7927 19.877 19.0677 20.0237 19.691 20.2437L20.626 20.5737V17.457H20.076C19.3793 17.457 18.7927 18.0987 18.7927 18.887Z" fill="#61D215"/>
</svg>
