<svg width="44" height="44" viewBox="0 0 44 44" fill="none" xmlns="http://www.w3.org/2000/svg">
<path d="M30.7075 6.52669V3.66669C30.7075 2.91502 30.0841 2.29169 29.3325 2.29169C28.5808 2.29169 27.9575 2.91502 27.9575 3.66669V6.41669H16.0408V3.66669C16.0408 2.91502 15.4175 2.29169 14.6658 2.29169C13.9141 2.29169 13.2908 2.91502 13.2908 3.66669V6.52669C8.34079 6.98502 5.93912 9.93669 5.57245 14.3184C5.53578 14.85 5.97578 15.29 6.48912 15.29H37.5091C38.0408 15.29 38.4808 14.8317 38.4258 14.3184C38.0591 9.93669 35.6575 6.98502 30.7075 6.52669Z" fill="#29A9E1"/>
<path d="M34.8333 27.5C30.7817 27.5 27.5 30.7817 27.5 34.8333C27.5 36.2083 27.885 37.51 28.5633 38.61C29.8283 40.7367 32.1567 42.1667 34.8333 42.1667C37.51 42.1667 39.8383 40.7367 41.1033 38.61C41.7817 37.51 42.1667 36.2083 42.1667 34.8333C42.1667 30.7817 38.885 27.5 34.8333 27.5ZM38.6283 34.045L34.7233 37.6567C34.4667 37.895 34.1183 38.0233 33.7883 38.0233C33.44 38.0233 33.0917 37.895 32.8167 37.62L31.0017 35.805C30.47 35.2733 30.47 34.3933 31.0017 33.8617C31.5333 33.33 32.4133 33.33 32.945 33.8617L33.825 34.7417L36.7583 32.0283C37.3083 31.515 38.1883 31.5517 38.7017 32.1017C39.215 32.6517 39.1783 33.5133 38.6283 34.045Z" fill="#29A9E1"/>
<path d="M36.6667 18.04H7.33333C6.325 18.04 5.5 18.865 5.5 19.8733V31.1666C5.5 36.6666 8.25 40.3333 14.6667 40.3333H23.705C24.97 40.3333 25.85 39.105 25.4467 37.9133C25.08 36.85 24.7683 35.6766 24.7683 34.8333C24.7683 29.2783 29.2967 24.75 34.8517 24.75C35.3833 24.75 35.915 24.7866 36.4283 24.8783C37.5283 25.0433 38.5183 24.1816 38.5183 23.0816V19.8916C38.5 18.865 37.675 18.04 36.6667 18.04ZM16.885 33.385C16.5367 33.715 16.06 33.9166 15.5833 33.9166C15.1067 33.9166 14.63 33.715 14.2817 33.385C13.9517 33.0366 13.75 32.56 13.75 32.0833C13.75 31.6066 13.9517 31.13 14.2817 30.7816C14.465 30.6166 14.6483 30.4883 14.8867 30.3966C15.565 30.1033 16.3717 30.2683 16.885 30.7816C17.215 31.13 17.4167 31.6066 17.4167 32.0833C17.4167 32.56 17.215 33.0366 16.885 33.385ZM16.885 26.9683C16.7933 27.0416 16.7017 27.115 16.61 27.1883C16.5 27.2616 16.39 27.3166 16.28 27.3533C16.17 27.4083 16.06 27.445 15.95 27.4633C15.8217 27.4816 15.6933 27.5 15.5833 27.5C15.1067 27.5 14.63 27.2983 14.2817 26.9683C13.9517 26.62 13.75 26.1433 13.75 25.6666C13.75 25.19 13.9517 24.7133 14.2817 24.365C14.7033 23.9433 15.345 23.7416 15.95 23.87C16.06 23.8883 16.17 23.925 16.28 23.98C16.39 24.0166 16.5 24.0716 16.61 24.145C16.7017 24.2183 16.7933 24.2916 16.885 24.365C17.215 24.7133 17.4167 25.19 17.4167 25.6666C17.4167 26.1433 17.215 26.62 16.885 26.9683ZM23.3017 26.9683C22.9533 27.2983 22.4767 27.5 22 27.5C21.5233 27.5 21.0467 27.2983 20.6983 26.9683C20.3683 26.62 20.1667 26.1433 20.1667 25.6666C20.1667 25.19 20.3683 24.7133 20.6983 24.365C21.395 23.6866 22.6233 23.6866 23.3017 24.365C23.6317 24.7133 23.8333 25.19 23.8333 25.6666C23.8333 26.1433 23.6317 26.62 23.3017 26.9683Z" fill="#29A9E1"/>
</svg>
