<svg width="100" height="100" viewBox="0 0 100 100" fill="none" xmlns="http://www.w3.org/2000/svg">
    <path d="M75.0011 69.7915C74.3345 69.7915 73.7095 69.5832 73.1261 69.1665C71.7511 68.1248 71.4595 66.1665 72.5011 64.7915C79.0428 56.0832 79.0428 43.9165 72.5011 35.2082C71.4595 33.8332 71.7511 31.8748 73.1261 30.8332C74.5011 29.7915 76.4595 30.0832 77.5011 31.4582C85.6678 42.3748 85.6678 57.6248 77.5011 68.5415C76.8761 69.3748 75.9595 69.7915 75.0011 69.7915Z" fill="#295DE1"/>
    <path d="M82.6183 80.2108C81.9517 80.2108 81.3267 80.0024 80.7433 79.5858C79.3683 78.5441 79.0767 76.5858 80.1183 75.2108C91.2433 60.3774 91.2433 39.6274 80.1183 24.7941C79.0767 23.4191 79.3683 21.4608 80.7433 20.4191C82.1183 19.3774 84.0767 19.6691 85.1183 21.0441C97.91 38.0858 97.91 61.9191 85.1183 78.9608C84.535 79.7941 83.5767 80.2108 82.6183 80.2108Z" fill="#295DE1"/>
    <path d="M58.4154 15.7589C53.7487 13.1756 47.7904 13.8423 41.707 17.6339L29.5404 25.2589C28.707 25.7589 27.7487 26.0506 26.7904 26.0506H22.9154H20.832C10.7487 26.0506 5.20703 31.5923 5.20703 41.6756V58.3423C5.20703 68.4256 10.7487 73.9673 20.832 73.9673H22.9154H26.7904C27.7487 73.9673 28.707 74.2589 29.5404 74.7589L41.707 82.3839C45.3737 84.6756 48.957 85.8006 52.2904 85.8006C54.457 85.8006 56.5404 85.3006 58.4154 84.2589C63.0404 81.6756 65.6237 76.3006 65.6237 69.1339V30.8839C65.6237 23.7173 63.0404 18.3423 58.4154 15.7589Z" fill="#295DE1"/>
</svg>
