<svg width="100" height="100" viewBox="0 0 100 100" fill="none" xmlns="http://www.w3.org/2000/svg">
    <path d="M50.0039 91.3711C29.0039 91.3711 11.8789 74.2878 11.8789 53.2461V45.4128C11.8789 43.7878 13.2122 42.4961 14.7956 42.4961C16.3789 42.4961 17.7122 43.8294 17.7122 45.4128V53.2461C17.7122 71.0378 32.1706 85.4961 49.9622 85.4961C67.7539 85.4961 82.2122 71.0378 82.2122 53.2461V45.4128C82.2122 43.7878 83.5456 42.4961 85.1289 42.4961C86.7122 42.4961 88.0456 43.8294 88.0456 45.4128V53.2461C88.1289 74.2878 71.0039 91.3711 50.0039 91.3711Z" fill="#295DE1"/>
    <path d="M49.9909 8.33594C35.9909 8.33594 24.5742 19.7526 24.5742 33.7526V53.2943C24.5742 67.2943 35.9909 78.7109 49.9909 78.7109C63.9909 78.7109 75.4076 67.2943 75.4076 53.2943V33.7526C75.4076 19.7526 63.9909 8.33594 49.9909 8.33594ZM59.0742 44.1276C58.7826 45.2526 57.7409 46.0026 56.6159 46.0026C56.4076 46.0026 56.1576 45.9609 55.9492 45.9193C51.6992 44.7526 47.1992 44.7526 42.9492 45.9193C41.5742 46.2943 40.1992 45.5026 39.8242 44.1276C39.4492 42.7943 40.2409 41.3776 41.6159 41.0026C46.7409 39.5859 52.1576 39.5859 57.2826 41.0026C58.6576 41.3776 59.4492 42.7526 59.0742 44.1276ZM62.6159 32.5859C62.2409 33.6276 61.2826 34.2526 60.2409 34.2526C59.9492 34.2526 59.6576 34.2109 59.3659 34.0859C52.9909 31.7526 45.9909 31.7526 39.6159 34.0859C38.2826 34.5859 36.8242 33.9193 36.3242 32.5859C35.8659 31.2943 36.5326 29.8359 37.8659 29.3359C45.3659 26.6276 53.6159 26.6276 61.0742 29.3359C62.4076 29.8359 63.0742 31.2943 62.6159 32.5859Z" fill="#295DE1"/>
</svg>
