<svg width="100" height="100" viewBox="0 0 100 100" fill="none" xmlns="http://www.w3.org/2000/svg">
    <path d="M88.1263 25.7096C86.418 24.793 82.8346 23.8346 77.9596 27.2513L71.8346 31.5846C71.3763 18.6263 65.7513 13.543 52.0846 13.543H27.0846C12.8346 13.543 7.29297 19.0846 7.29297 33.3346V66.668C7.29297 76.2513 12.5013 86.4596 27.0846 86.4596H52.0846C65.7513 86.4596 71.3763 81.3763 71.8346 68.418L77.9596 72.7513C80.543 74.5846 82.793 75.168 84.5846 75.168C86.1263 75.168 87.3346 74.7096 88.1263 74.293C89.8346 73.418 92.7096 71.043 92.7096 65.0846V34.918C92.7096 28.9596 89.8346 26.5846 88.1263 25.7096ZM45.8346 47.418C41.543 47.418 38.0013 43.918 38.0013 39.5846C38.0013 35.2513 41.543 31.7513 45.8346 31.7513C50.1263 31.7513 53.668 35.2513 53.668 39.5846C53.668 43.918 50.1263 47.418 45.8346 47.418Z" fill="#295DE1"/>
</svg>
