<svg width="33" height="30" viewBox="0 0 33 30" fill="none" xmlns="http://www.w3.org/2000/svg">
    <path d="M23.6533 29.4237C23.6533 29.7423 23.9116 30.0006 24.2302 30.0006C24.5489 30.0006 24.8072 29.7423 24.8072 29.4237V26.5391H23.6533V29.4237Z" fill="white"/>
    <path d="M22.5 22.332V24.2301C22.5019 24.8666 23.0174 25.382 23.6538 25.3839H24.8077C25.4441 25.382 25.9596 24.8666 25.9615 24.2301V22.332C24.8185 22.5551 23.6431 22.5551 22.5 22.332Z" fill="white"/>
    <path d="M24.2306 4.03864C25.0554 4.04066 25.8761 4.15319 26.671 4.37325C25.8183 1.75785 23.3757 -0.00881455 20.6249 0.000207056C18.052 -0.0179458 15.6162 1.15839 14.0307 3.1848C13.9228 3.33939 13.7461 3.43151 13.5576 3.43151C13.3691 3.43151 13.1924 3.33939 13.0845 3.1848C11.499 1.15839 9.06324 -0.0179458 6.49034 0.000207056C2.79229 0.000207056 0 2.98288 0 6.94054C0 11.729 4.33785 16.4966 13.2645 21.5089C13.444 21.6083 13.662 21.6083 13.8414 21.5089C15.0348 20.8542 16.1887 20.1301 17.2972 19.3403C14.9033 16.6204 14.3256 12.7501 15.8211 9.44977C17.3165 6.14948 20.6073 4.03198 24.2306 4.03864ZM6.49034 2.30788C3.77363 2.30788 2.30768 4.6946 2.30768 6.94054C2.30768 7.25917 2.04938 7.51746 1.73076 7.51746C1.41213 7.51746 1.15384 7.25917 1.15384 6.94054C1.15384 4.13499 3.02421 1.15405 6.49034 1.15405C6.80896 1.15405 7.06726 1.41234 7.06726 1.73096C7.06726 2.04959 6.80896 2.30788 6.49034 2.30788Z" fill="white"/>
    <path d="M30.5767 13.2707C30.5767 12.9521 30.835 12.6938 31.1537 12.6938H32.2787C31.9884 8.69397 28.8073 5.51291 24.8076 5.22266V6.34765C24.8076 6.66627 24.5493 6.92457 24.2306 6.92457C23.912 6.92457 23.6537 6.66627 23.6537 6.34765V5.22266C19.6539 5.51291 16.4729 8.69397 16.1826 12.6938H17.3076C17.6262 12.6938 17.8845 12.9521 17.8845 13.2707C17.8845 13.5893 17.6262 13.8476 17.3076 13.8476H16.1826C16.4729 17.8474 19.6539 21.0284 23.6537 21.3187V20.1937C23.6537 19.8751 23.912 19.6168 24.2306 19.6168C24.5493 19.6168 24.8076 19.8751 24.8076 20.1937V21.3187C28.8073 21.0284 31.9884 17.8474 32.2787 13.8476H31.1537C30.835 13.8476 30.5767 13.5893 30.5767 13.2707ZM29.2556 9.06494L26.2095 12.1053C26.8128 13.1189 26.5669 14.4233 25.6358 15.1476C24.7048 15.8719 23.3801 15.7895 22.5459 14.9554C21.7118 14.1213 21.6294 12.7965 22.3537 11.8655C23.0781 10.9344 24.3824 10.6885 25.396 11.2918L28.4364 8.24571C28.6626 8.01949 29.0294 8.01949 29.2556 8.24571C29.4818 8.47193 29.4818 8.83871 29.2556 9.06494Z" fill="white"/>
    <path d="M24.231 12.1172C23.5937 12.1172 23.0771 12.6338 23.0771 13.271C23.0771 13.9083 23.5937 14.4249 24.231 14.4249C24.8682 14.4249 25.3848 13.9083 25.3848 13.271C25.3801 12.6357 24.8663 12.1219 24.231 12.1172Z" fill="white"/>
</svg>
