<svg width="30" height="30" viewBox="0 0 30 30" fill="none" xmlns="http://www.w3.org/2000/svg">
    <path d="M26.5109 8.97818L17.7435 8.9759C19.2682 8.9759 20.5659 8.00406 21.051 6.64609C21.2564 6.07094 20.8361 5.46484 20.2253 5.46484H11.8649C10.5318 5.46484 9.37213 6.20787 8.77758 7.30234C8.22357 8.32223 7.17563 8.9759 6.015 8.9759H5.28516V21.0943H6.2342C7.88631 21.0943 9.52652 21.3734 11.0857 21.9197L12.9129 22.5599C13.414 22.7355 13.9412 22.8252 14.4722 22.8252H19.2021C20.1452 22.8252 20.9425 22.0857 20.9683 21.1429C20.9951 20.1648 20.2102 19.3635 19.2381 19.3635L19.2388 19.3613C20.1548 19.3165 20.8838 18.5597 20.8838 17.6326C20.8838 16.7055 20.1548 15.9487 19.2388 15.9039L19.2381 15.9017C20.194 15.9017 20.9689 15.1268 20.9689 14.1709C20.9689 13.215 20.194 12.44 19.2381 12.44H26.5109C27.4668 12.44 28.2417 11.6651 28.2417 10.7092C28.2417 9.75314 27.4668 8.97818 26.5109 8.97818Z" fill="white"/>
    <path d="M2.64891 22.2895H0V7.89062H2.64891C3.1343 7.89062 3.52781 8.28414 3.52781 8.76953V21.4105C3.52781 21.8959 3.1343 22.2895 2.64891 22.2895Z" fill="white"/>
    <path d="M29.9997 21.3862C29.9997 23.1243 28.5906 24.5335 26.8524 24.5335C25.1141 24.5335 23.7051 23.1244 23.7051 21.3862C23.7051 20.1964 25.1796 17.6863 26.1101 16.2207C26.4557 15.6764 27.2491 15.6764 27.5946 16.2207C28.5251 17.6863 29.9997 20.1964 29.9997 21.3862Z" fill="white"/>
</svg>
