<svg width="18" height="18" viewBox="0 0 18 18" fill="none" xmlns="http://www.w3.org/2000/svg">
<path d="M15.1574 5.86502L9.38242 9.21002C9.14992 9.34502 8.85742 9.34502 8.61742 9.21002L2.84242 5.86502C2.42992 5.62502 2.32492 5.06252 2.63992 4.71002C2.85742 4.46252 3.10492 4.26002 3.36742 4.11752L7.43242 1.86752C8.30242 1.38002 9.71242 1.38002 10.5824 1.86752L14.6474 4.11752C14.9099 4.26002 15.1574 4.47002 15.3749 4.71002C15.6749 5.06252 15.5699 5.62502 15.1574 5.86502Z" fill="#334155"/>
<path d="M8.57261 10.605V15.72C8.57261 16.29 7.99511 16.665 7.48511 16.4175C5.94011 15.66 3.33761 14.2425 3.33761 14.2425C2.42261 13.725 1.67261 12.42 1.67261 11.3475V7.47747C1.67261 6.88497 2.29511 6.50997 2.80511 6.80247L8.19761 9.92997C8.42261 10.0725 8.57261 10.3275 8.57261 10.605Z" fill="#334155"/>
<path d="M9.42749 10.605V15.72C9.42749 16.29 10.005 16.665 10.515 16.4175C12.06 15.66 14.6625 14.2425 14.6625 14.2425C15.5775 13.725 16.3275 12.42 16.3275 11.3475V7.47747C16.3275 6.88497 15.705 6.50997 15.195 6.80247L9.80249 9.92997C9.57749 10.0725 9.42749 10.3275 9.42749 10.605Z" fill="#334155"/>
</svg>
