<svg width="18" height="18" viewBox="0 0 18 18" fill="none" xmlns="http://www.w3.org/2000/svg">
<path d="M8.06254 3.48002L4.74004 1.83752C2.94754 0.960018 1.47754 1.85252 1.47754 3.81752V14.9475C1.47754 15.8025 2.19004 16.5 3.06004 16.5H8.62504C9.03754 16.5 9.37504 16.1625 9.37504 15.75V5.55752C9.37504 4.77002 8.78254 3.83252 8.06254 3.48002ZM6.72754 10.3125H4.12504C3.81754 10.3125 3.56254 10.0575 3.56254 9.75002C3.56254 9.44252 3.81754 9.18752 4.12504 9.18752H6.72754C7.03504 9.18752 7.29004 9.44252 7.29004 9.75002C7.29004 10.0575 7.04254 10.3125 6.72754 10.3125ZM6.72754 7.31252H4.12504C3.81754 7.31252 3.56254 7.05752 3.56254 6.75002C3.56254 6.44252 3.81754 6.18752 4.12504 6.18752H6.72754C7.03504 6.18752 7.29004 6.44252 7.29004 6.75002C7.29004 7.05752 7.04254 7.31252 6.72754 7.31252Z" fill="#334155"/>
<path d="M16.5 13.53V14.625C16.5 15.66 15.66 16.5 14.625 16.5H11.2275C10.8225 16.5 10.5 16.1775 10.5 15.7725V14.1525C11.3025 14.25 12.15 14.0175 12.7575 13.53C13.2675 13.9425 13.92 14.19 14.6325 14.19C15.33 14.19 15.9825 13.9425 16.5 13.53Z" fill="#334155"/>
<path d="M16.5 11.2875V11.295C16.44 12.2775 15.6375 13.065 14.6325 13.065C13.59 13.065 12.7575 12.2175 12.7575 11.19C12.7575 12.3375 11.7 13.26 10.5 13.0275V9.00002C10.5 8.52002 10.9425 8.16002 11.415 8.26502L12.7575 8.56502L13.1175 8.64752L14.6475 8.99252C15.015 9.06752 15.3525 9.19502 15.645 9.38252C15.645 9.39002 15.6525 9.39002 15.6525 9.39002C15.7275 9.44252 15.8025 9.50252 15.87 9.57002C16.215 9.91502 16.44 10.4175 16.4925 11.1525C16.4925 11.1975 16.5 11.2425 16.5 11.2875Z" fill="#334155"/>
</svg>
