<svg width="31" height="31" viewBox="0 0 31 31" fill="none" xmlns="http://www.w3.org/2000/svg">
    <path d="M23.4934 14.3354C22.9201 14.3354 22.4667 13.8687 22.4667 13.3087C22.4667 12.8154 21.9734 11.7888 21.1467 10.8954C20.3334 10.0288 19.4401 9.52208 18.6934 9.52208C18.1201 9.52208 17.6667 9.05542 17.6667 8.49542C17.6667 7.93542 18.1334 7.46875 18.6934 7.46875C20.0267 7.46875 21.4267 8.18875 22.6534 9.48208C23.8001 10.6954 24.5334 12.2021 24.5334 13.2954C24.5334 13.8688 24.0667 14.3354 23.4934 14.3354Z" fill="white"/>

<path d="M28.3064 14.3327C27.733 14.3327 27.2797 13.866 27.2797 13.306C27.2797 8.57268 23.4264 4.73268 18.7064 4.73268C18.133 4.73268 17.6797 4.26602 17.6797 3.70602C17.6797 3.14602 18.133 2.66602 18.693 2.66602C24.5597 2.66602 29.333 7.43935 29.333 13.306C29.333 13.866 28.8664 14.3327 28.3064 14.3327Z" fill="white"/>
    <path d="M14.3125 19.1875L12 21.5C11.5125 21.9875 10.7375 21.9875 10.2375 21.5125C10.1 21.375 9.9625 21.25 9.825 21.1125C8.5375 19.8125 7.375 18.45 6.3375 17.025C5.3125 15.6 4.4875 14.175 3.8875 12.7625C3.3 11.3375 3 9.975 3 8.675C3 7.825 3.15 7.0125 3.45 6.2625C3.75 5.5 4.225 4.8 4.8875 4.175C5.6875 3.3875 6.5625 3 7.4875 3C7.8375 3 8.1875 3.075 8.5 3.225C8.825 3.375 9.1125 3.6 9.3375 3.925L12.2375 8.0125C12.4625 8.325 12.625 8.6125 12.7375 8.8875C12.85 9.15 12.9125 9.4125 12.9125 9.65C12.9125 9.95 12.825 10.25 12.65 10.5375C12.4875 10.825 12.25 11.125 11.95 11.425L11 12.4125C10.8625 12.55 10.8 12.7125 10.8 12.9125C10.8 13.0125 10.8125 13.1 10.8375 13.2C10.875 13.3 10.9125 13.375 10.9375 13.45C11.1625 13.8625 11.55 14.4 12.1 15.05C12.6625 15.7 13.2625 16.3625 13.9125 17.025C14.0375 17.15 14.175 17.275 14.3 17.4C14.8 17.8875 14.8125 18.6875 14.3125 19.1875Z" fill="white"/>
    <path d="M27.9625 23.4094C27.9625 23.7594 27.9 24.1219 27.775 24.4719C27.7375 24.5719 27.7 24.6719 27.65 24.7719C27.4375 25.2219 27.1625 25.6469 26.8 26.0469C26.1875 26.7219 25.5125 27.2094 24.75 27.5219C24.7375 27.5219 24.725 27.5344 24.7125 27.5344C23.975 27.8344 23.175 27.9969 22.3125 27.9969C21.0375 27.9969 19.675 27.6969 18.2375 27.0844C16.8 26.4719 15.3625 25.6469 13.9375 24.6094C13.45 24.2469 12.9625 23.8844 12.5 23.4969L16.5875 19.4094C16.9375 19.6719 17.25 19.8719 17.5125 20.0094C17.575 20.0344 17.65 20.0719 17.7375 20.1094C17.8375 20.1469 17.9375 20.1594 18.05 20.1594C18.2625 20.1594 18.425 20.0844 18.5625 19.9469L19.5125 19.0094C19.825 18.6969 20.125 18.4594 20.4125 18.3094C20.7 18.1344 20.9875 18.0469 21.3 18.0469C21.5375 18.0469 21.7875 18.0969 22.0625 18.2094C22.3375 18.3219 22.625 18.4844 22.9375 18.6969L27.075 21.6344C27.4 21.8594 27.625 22.1219 27.7625 22.4344C27.8875 22.7469 27.9625 23.0594 27.9625 23.4094Z" fill="white"/>
</svg>
