<svg width="34" height="35" viewBox="0 0 34 35" fill="none" xmlns="http://www.w3.org/2000/svg">
    <path d="M29.9638 9.27339C29.383 8.96172 28.1646 8.63589 26.5071 9.79755L24.4246 11.2709C24.2688 6.86505 22.3563 5.13672 17.7096 5.13672H9.20964C4.36464 5.13672 2.48047 7.02089 2.48047 11.8659V23.1992C2.48047 26.4576 4.2513 29.9284 9.20964 29.9284H17.7096C22.3563 29.9284 24.2688 28.2001 24.4246 23.7942L26.5071 25.2676C27.3855 25.8909 28.1505 26.0892 28.7596 26.0892C29.2838 26.0892 29.6946 25.9334 29.9638 25.7917C30.5446 25.4942 31.5221 24.6867 31.5221 22.6609V12.4042C31.5221 10.3784 30.5446 9.57089 29.9638 9.27339ZM15.5846 16.6542C14.1255 16.6542 12.9213 15.4642 12.9213 13.9909C12.9213 12.5176 14.1255 11.3276 15.5846 11.3276C17.0438 11.3276 18.248 12.5176 18.248 13.9909C18.248 15.4642 17.0438 16.6542 15.5846 16.6542Z" fill="#00171F"/>
</svg>
