<svg width="31" height="31" viewBox="0 0 31 31" fill="none" xmlns="http://www.w3.org/2000/svg">
    <path opacity="0.4" d="M22.6766 9.96094C22.6891 10.0484 22.6891 10.1484 22.6766 10.2359C22.6766 10.1484 22.6641 10.0609 22.6641 9.97344L22.6766 9.96094Z" fill="#00171F"/>
    <path d="M22.0977 8.7L5.28516 25.5125C3.53516 24.4 2.84766 22.4125 2.84766 20.5V10.5C2.84766 6.225 4.51016 4.5625 8.78516 4.5625H16.2852C19.8977 4.5625 21.6352 5.75 22.0977 8.7Z" fill="#00171F"/>
    <path d="M27.25 3.28516C26.875 2.91016 26.2625 2.91016 25.8875 3.28516L2.8125 26.3602C2.4375 26.7352 2.4375 27.3477 2.8125 27.7227C3 27.8977 3.25 27.9977 3.4875 27.9977C3.7375 27.9977 3.975 27.8977 4.1625 27.7102L27.25 4.63516C27.625 4.26016 27.625 3.66016 27.25 3.28516Z" fill="#F74B4A"/>
    <path d="M28.4742 10.9766V20.0266C28.4742 21.8141 27.5992 22.5266 27.0992 22.7891C26.8617 22.9141 26.4867 23.0516 26.0242 23.0516C25.4867 23.0516 24.8242 22.8766 24.0492 22.3266L22.1992 21.0266C22.1117 23.7891 21.2367 25.3641 19.2492 26.0266C18.4492 26.3141 17.4617 26.4391 16.2742 26.4391H8.77422C8.47422 26.4391 8.18672 26.4266 7.88672 26.3891L19.2492 15.0391L26.3117 7.97656C26.6367 8.00156 26.8992 8.10156 27.0992 8.21406C27.5992 8.47656 28.4742 9.18906 28.4742 10.9766Z" fill="#00171F"/>
</svg>
