<svg width="31" height="30" viewBox="0 0 31 30" fill="none" xmlns="http://www.w3.org/2000/svg">
    <path d="M26.7246 7.70859C26.2121 7.43359 25.1371 7.14609 23.6746 8.17109L21.8371 9.47109C21.6996 5.58359 20.0121 4.05859 15.9121 4.05859H8.41211C4.13711 4.05859 2.47461 5.72109 2.47461 9.99609V19.9961C2.47461 22.8711 4.03711 25.9336 8.41211 25.9336H15.9121C20.0121 25.9336 21.6996 24.4086 21.8371 20.5211L23.6746 21.8211C24.4496 22.3711 25.1246 22.5461 25.6621 22.5461C26.1246 22.5461 26.4871 22.4086 26.7246 22.2836C27.2371 22.0211 28.0996 21.3086 28.0996 19.5211V10.4711C28.0996 8.68359 27.2371 7.97109 26.7246 7.70859ZM14.0371 14.2211C12.7496 14.2211 11.6871 13.1711 11.6871 11.8711C11.6871 10.5711 12.7496 9.52109 14.0371 9.52109C15.3246 9.52109 16.3871 10.5711 16.3871 11.8711C16.3871 13.1711 15.3246 14.2211 14.0371 14.2211Z" fill="#295DE1"/>
</svg>
