<svg width="44" height="44" viewBox="0 0 44 44" fill="none" xmlns="http://www.w3.org/2000/svg">
<path d="M26.3082 3.6665H17.6916C15.7849 3.6665 14.2266 5.2065 14.2266 7.11317V8.8365C14.2266 10.7432 15.7666 12.2832 17.6732 12.2832H26.3082C28.2149 12.2832 29.7549 10.7432 29.7549 8.8365V7.11317C29.7732 5.2065 28.2149 3.6665 26.3082 3.6665Z" fill="#29A9E1"/>
<path d="M31.6063 8.83687C31.6063 11.7519 29.2229 14.1352 26.3079 14.1352H17.6912C14.7762 14.1352 12.3929 11.7519 12.3929 8.83687C12.3929 7.81021 11.2929 7.16854 10.3762 7.64521C7.79125 9.02021 6.03125 11.7519 6.03125 14.8869V32.1385C6.03125 36.6485 9.71625 40.3335 14.2263 40.3335H29.7729C34.2829 40.3335 37.9679 36.6485 37.9679 32.1385V14.8869C37.9679 11.7519 36.2079 9.02021 33.6229 7.64521C32.7063 7.16854 31.6063 7.81021 31.6063 8.83687ZM28.1229 23.3385L20.7896 30.6719C20.5146 30.9469 20.1663 31.0752 19.8179 31.0752C19.4696 31.0752 19.1213 30.9469 18.8462 30.6719L16.0962 27.9219C15.5646 27.3902 15.5646 26.5102 16.0962 25.9785C16.6279 25.4469 17.5079 25.4469 18.0396 25.9785L19.8179 27.7569L26.1796 21.3952C26.7113 20.8635 27.5913 20.8635 28.1229 21.3952C28.6546 21.9269 28.6546 22.8069 28.1229 23.3385Z" fill="#29A9E1"/>
</svg>
