<svg width="44" height="44" viewBox="0 0 44 44" fill="none" xmlns="http://www.w3.org/2000/svg">
<path d="M26.3082 3.66675H17.6916C15.7849 3.66675 14.2266 5.20675 14.2266 7.11342V8.83675C14.2266 10.7434 15.7666 12.2834 17.6732 12.2834H26.3082C28.2149 12.2834 29.7549 10.7434 29.7549 8.83675V7.11342C29.7732 5.20675 28.2149 3.66675 26.3082 3.66675Z" fill="#29A9E1"/>
<path d="M31.6063 8.83663C31.6063 11.7516 29.2229 14.135 26.3079 14.135H17.6912C14.7762 14.135 12.3929 11.7516 12.3929 8.83663C12.3929 7.80996 11.2929 7.1683 10.3762 7.64496C7.79125 9.01996 6.03125 11.7516 6.03125 14.8866V32.1383C6.03125 36.6483 9.71625 40.3333 14.2263 40.3333H29.7729C34.2829 40.3333 37.9679 36.6483 37.9679 32.1383V14.8866C37.9679 11.7516 36.2079 9.01996 33.6229 7.64496C32.7063 7.1683 31.6063 7.80996 31.6063 8.83663ZM22.6963 31.075H14.6663C13.9146 31.075 13.2913 30.4516 13.2913 29.7C13.2913 28.9483 13.9146 28.325 14.6663 28.325H22.6963C23.4479 28.325 24.0713 28.9483 24.0713 29.7C24.0713 30.4516 23.4479 31.075 22.6963 31.075ZM27.4996 23.7416H14.6663C13.9146 23.7416 13.2913 23.1183 13.2913 22.3666C13.2913 21.615 13.9146 20.9916 14.6663 20.9916H27.4996C28.2513 20.9916 28.8746 21.615 28.8746 22.3666C28.8746 23.1183 28.2513 23.7416 27.4996 23.7416Z" fill="#29A9E1"/>
</svg>
