<svg width="19" height="18" viewBox="0 0 19 18" fill="none" xmlns="http://www.w3.org/2000/svg">
    <path d="M17 8.4375H15.47C15.2 5.58 12.92 3.2925 10.0625 3.03V1.5C10.0625 1.1925 9.8075 0.9375 9.5 0.9375C9.1925 0.9375 8.9375 1.1925 8.9375 1.5V3.03C6.08 3.3 3.7925 5.58 3.53 8.4375H2C1.6925 8.4375 1.4375 8.6925 1.4375 9C1.4375 9.3075 1.6925 9.5625 2 9.5625H3.53C3.8 12.42 6.08 14.7075 8.9375 14.97V16.5C8.9375 16.8075 9.1925 17.0625 9.5 17.0625C9.8075 17.0625 10.0625 16.8075 10.0625 16.5V14.97C12.92 14.7 15.2075 12.42 15.47 9.5625H17C17.3075 9.5625 17.5625 9.3075 17.5625 9C17.5625 8.6925 17.3075 8.4375 17 8.4375ZM9.5 11.34C8.21 11.34 7.16 10.29 7.16 9C7.16 7.71 8.21 6.66 9.5 6.66C10.79 6.66 11.84 7.71 11.84 9C11.84 10.29 10.79 11.34 9.5 11.34Z" fill="#989898" fill-opacity="0.6"/>
</svg>
