<svg width="14" height="16" viewBox="0 0 14 16" fill="none" xmlns="http://www.w3.org/2000/svg">
    <path d="M10.75 0.5H3.25C1 0.5 0.25 1.8425 0.25 3.5V15.5H13.75V3.5C13.75 1.8425 13 0.5 10.75 0.5ZM5.5 11.9375H3.25C2.9425 11.9375 2.6875 11.6825 2.6875 11.375C2.6875 11.0675 2.9425 10.8125 3.25 10.8125H5.5C5.8075 10.8125 6.0625 11.0675 6.0625 11.375C6.0625 11.6825 5.8075 11.9375 5.5 11.9375ZM5.5 8.5625H3.25C2.9425 8.5625 2.6875 8.3075 2.6875 8C2.6875 7.6925 2.9425 7.4375 3.25 7.4375H5.5C5.8075 7.4375 6.0625 7.6925 6.0625 8C6.0625 8.3075 5.8075 8.5625 5.5 8.5625ZM5.5 5.1875H3.25C2.9425 5.1875 2.6875 4.9325 2.6875 4.625C2.6875 4.3175 2.9425 4.0625 3.25 4.0625H5.5C5.8075 4.0625 6.0625 4.3175 6.0625 4.625C6.0625 4.9325 5.8075 5.1875 5.5 5.1875ZM10.75 11.9375H8.5C8.1925 11.9375 7.9375 11.6825 7.9375 11.375C7.9375 11.0675 8.1925 10.8125 8.5 10.8125H10.75C11.0575 10.8125 11.3125 11.0675 11.3125 11.375C11.3125 11.6825 11.0575 11.9375 10.75 11.9375ZM10.75 8.5625H8.5C8.1925 8.5625 7.9375 8.3075 7.9375 8C7.9375 7.6925 8.1925 7.4375 8.5 7.4375H10.75C11.0575 7.4375 11.3125 7.6925 11.3125 8C11.3125 8.3075 11.0575 8.5625 10.75 8.5625ZM10.75 5.1875H8.5C8.1925 5.1875 7.9375 4.9325 7.9375 4.625C7.9375 4.3175 8.1925 4.0625 8.5 4.0625H10.75C11.0575 4.0625 11.3125 4.3175 11.3125 4.625C11.3125 4.9325 11.0575 5.1875 10.75 5.1875Z" fill="#989898" fill-opacity="0.6"/>
</svg>
