<svg width="18" height="18" viewBox="0 0 18 18" fill="none" xmlns="http://www.w3.org/2000/svg">
<path d="M14.0173 8.64748C13.5898 8.53498 13.0873 8.47498 12.4873 8.47498C11.6548 8.47498 11.3473 8.67748 10.9198 8.99998C10.8973 9.01498 10.8748 9.03748 10.8523 9.05998L10.1398 9.81748C9.53977 10.4475 8.45977 10.455 7.85977 9.80998L7.14727 9.05998C7.12477 9.03748 7.10227 9.01498 7.07977 8.99998C6.65227 8.67748 6.34477 8.47498 5.51227 8.47498C4.91227 8.47498 4.40977 8.53498 3.98227 8.64748C2.19727 9.12748 2.19727 10.545 2.19727 11.79V12.4875C2.19727 14.37 2.19727 16.5 6.20977 16.5H11.7898C14.4523 16.5 15.8023 15.15 15.8023 12.4875V11.79C15.8023 10.545 15.8023 9.12748 14.0173 8.64748ZM10.7473 13.8H7.25227C6.96727 13.8 6.73477 13.5675 6.73477 13.275C6.73477 12.9825 6.96727 12.75 7.25227 12.75H10.7473C11.0323 12.75 11.2648 12.9825 11.2648 13.275C11.2648 13.5675 11.0323 13.8 10.7473 13.8Z" fill="#79899E" fill-opacity="0.6"/>
<path d="M9.50207 2.0025C9.50207 1.725 9.27707 1.5 8.99957 1.5C8.72207 1.5 8.49707 1.725 8.49707 2.0025V3H9.50957V2.0025H9.50207Z" fill="#79899E" fill-opacity="0.6"/>
<path d="M14.4078 6.315V7.59C14.3778 7.575 14.3403 7.5675 14.3103 7.56H14.3028C13.7703 7.4175 13.1778 7.35 12.4878 7.35C11.3328 7.35 10.7853 7.6875 10.2903 8.0625C10.1853 8.1375 10.1103 8.2125 10.0353 8.2875L9.32277 9.045C9.24777 9.12 9.12777 9.165 9.00027 9.165C8.94027 9.165 8.79027 9.1575 8.67777 9.0375L7.94277 8.265C7.86777 8.1825 7.77777 8.115 7.75527 8.1C7.21527 7.6875 6.66777 7.35 5.51277 7.35C4.82277 7.35 4.23027 7.4175 3.69027 7.56C3.66027 7.5675 3.62277 7.575 3.59277 7.59V6.315C3.59277 4.7625 3.59277 3 6.90777 3H8.49777V5.5875L8.01027 5.1C7.80777 4.8975 7.49277 4.8975 7.29027 5.1C7.09527 5.295 7.09527 5.6175 7.29027 5.8125L8.64027 7.1625C8.64777 7.17 8.65527 7.17 8.65527 7.1775C8.70027 7.215 8.75277 7.2525 8.80527 7.275C8.87277 7.2975 8.93277 7.3125 9.00027 7.3125C9.06777 7.3125 9.12777 7.2975 9.19527 7.275C9.25527 7.2525 9.30777 7.215 9.36027 7.1625L10.7103 5.8125C10.9053 5.6175 10.9053 5.295 10.7103 5.1C10.5078 4.8975 10.1928 4.8975 9.99027 5.1L9.50277 5.5875V3H11.0928C14.4078 3 14.4078 4.7625 14.4078 6.315Z" fill="#79899E" fill-opacity="0.6"/>
</svg>
