<svg width="18" height="18" viewBox="0 0 18 18" fill="none" xmlns="http://www.w3.org/2000/svg">
    <path d="M9 1.5C4.86 1.5 1.5 4.86 1.5 9C1.5 13.14 4.86 16.5 9 16.5C13.14 16.5 16.5 13.14 16.5 9C16.5 4.86 13.14 1.5 9 1.5ZM6.75 6C7.1625 6 7.5 6.3375 7.5 6.75C7.5 7.1625 7.17 7.5 6.75 7.5C6.3375 7.5 6 7.1625 6 6.75C6 6.3375 6.3375 6 6.75 6ZM7.1475 11.6475C7.035 11.76 6.8925 11.8125 6.75 11.8125C6.6075 11.8125 6.465 11.76 6.3525 11.6475C6.135 11.43 6.135 11.07 6.3525 10.8525L10.8525 6.3525C11.07 6.135 11.43 6.135 11.6475 6.3525C11.865 6.57 11.865 6.93 11.6475 7.1475L7.1475 11.6475ZM11.25 12C10.83 12 10.4925 11.6625 10.4925 11.25C10.4925 10.8375 10.83 10.5 11.2425 10.5C11.655 10.5 11.9925 10.8375 11.9925 11.25C11.9925 11.6625 11.6625 12 11.25 12Z" fill="#989898" fill-opacity="0.6"/>
</svg>
