<svg width="32" height="32" viewBox="0 0 32 32" fill="none" xmlns="http://www.w3.org/2000/svg">
    <path d="M31.2487 14.2053L28.8161 11.7697C28.4 11.353 28.064 10.5358 28.064 9.95894V6.49775C28.064 5.08763 26.9117 3.9339 25.5033 3.9339H22.0625C21.4863 3.9339 20.6701 3.5974 20.254 3.18077L17.8214 0.745118C16.8292 -0.248373 15.1968 -0.248373 14.2045 0.745118L11.7399 3.18077C11.3398 3.5974 10.5236 3.9339 9.93144 3.9339H6.49059C5.08224 3.9339 3.92995 5.08763 3.92995 6.49775V9.94291C3.92995 10.5198 3.59387 11.337 3.17777 11.7536L0.745161 14.1893C-0.247085 15.1828 -0.247085 16.8172 0.745161 17.8107L3.17777 20.2464C3.59387 20.663 3.92995 21.4802 3.92995 22.0571V25.5023C3.92995 26.9124 5.08224 28.0661 6.49059 28.0661H9.93144C10.5076 28.0661 11.3238 28.4026 11.7399 28.8192L14.1725 31.2549C15.1647 32.2484 16.7971 32.2484 17.7894 31.2549L20.222 28.8192C20.6381 28.4026 21.4543 28.0661 22.0305 28.0661H25.4713C26.8797 28.0661 28.0319 26.9124 28.0319 25.5023V22.0571C28.0319 21.4802 28.368 20.663 28.7841 20.2464L31.2167 17.8107C32.257 16.8333 32.257 15.1988 31.2487 14.2053ZM9.59536 11.2088C9.59536 10.3275 10.3155 9.60641 11.1958 9.60641C12.076 9.60641 12.7962 10.3275 12.7962 11.2088C12.7962 12.0901 12.092 12.8112 11.1958 12.8112C10.3155 12.8112 9.59536 12.0901 9.59536 11.2088ZM12.044 21.6725C11.8039 21.9129 11.4998 22.025 11.1958 22.025C10.8917 22.025 10.5876 21.9129 10.3475 21.6725C9.88343 21.2078 9.88343 20.4387 10.3475 19.974L19.9499 10.3595C20.414 9.89484 21.1822 9.89484 21.6464 10.3595C22.1105 10.8242 22.1105 11.5934 21.6464 12.0581L12.044 21.6725ZM20.7981 22.4256C19.9019 22.4256 19.1817 21.7046 19.1817 20.8232C19.1817 19.9419 19.9019 19.2208 20.7821 19.2208C21.6624 19.2208 22.3825 19.9419 22.3825 20.8232C22.3825 21.7046 21.6784 22.4256 20.7981 22.4256Z" fill="#61D215"/>
</svg>
