<svg width="20" height="21" viewBox="0 0 20 21" fill="none" xmlns="http://www.w3.org/2000/svg">
    <path d="M10.625 13.7666H11.1667C11.7083 13.7666 12.1583 13.2833 12.1583 12.6999C12.1583 11.9749 11.9 11.8333 11.475 11.6833L10.6333 11.3916V13.7666H10.625Z" fill="white"/>
    <path d="M9.97636 2.084C5.37636 2.10067 1.65136 5.84233 1.66802 10.4423C1.68469 15.0423 5.42636 18.7673 10.0264 18.7507C14.6264 18.734 18.3514 14.9923 18.3347 10.3923C18.318 5.79233 14.5764 2.07567 9.97636 2.084ZM11.8847 10.5007C12.5347 10.7257 13.4097 11.209 13.4097 12.7007C13.4097 13.984 12.4014 15.0173 11.168 15.0173H10.6264V15.5007C10.6264 15.8423 10.343 16.1257 10.0014 16.1257C9.65969 16.1257 9.37636 15.8423 9.37636 15.5007V15.0173H9.07636C7.70969 15.0173 6.60136 13.8673 6.60136 12.4507C6.60136 12.109 6.88469 11.8257 7.22636 11.8257C7.56802 11.8257 7.85136 12.109 7.85136 12.4507C7.85136 13.1757 8.40136 13.7673 9.07636 13.7673H9.37636V10.9507L8.11802 10.5007C7.46802 10.2757 6.59302 9.79233 6.59302 8.30066C6.59302 7.01733 7.60136 5.984 8.83469 5.984H9.37636V5.50066C9.37636 5.159 9.65969 4.87566 10.0014 4.87566C10.343 4.87566 10.6264 5.159 10.6264 5.50066V5.984H10.9264C12.293 5.984 13.4014 7.134 13.4014 8.55066C13.4014 8.89233 13.118 9.17566 12.7764 9.17566C12.4347 9.17566 12.1514 8.89233 12.1514 8.55066C12.1514 7.82566 11.6014 7.234 10.9264 7.234H10.6264V10.0507L11.8847 10.5007Z" fill="white"/>
    <path d="M7.85156 8.3084C7.85156 9.0334 8.1099 9.17507 8.5349 9.32507L9.37656 9.61673V7.2334H8.8349C8.29323 7.2334 7.85156 7.71673 7.85156 8.3084Z" fill="white"/>
</svg>
