<svg width="16" height="18" viewBox="0 0 16 18" fill="none" xmlns="http://www.w3.org/2000/svg">
    <path d="M11.6172 9.15167L12.6874 12.239H13.7234L14.7937 9.15167V6.35352H11.6172V9.15167Z" fill="#989898" fill-opacity="0.6"/>
    <path d="M11.6172 16.4124C11.6172 17.2882 12.3296 18.0007 13.2054 18.0007C14.0812 18.0007 14.7937 17.2882 14.7937 16.4124C14.7937 15.5926 13.6406 13.9939 13.2054 13.3633C12.7668 13.9989 11.6172 15.5933 11.6172 16.4124Z" fill="#989898" fill-opacity="0.6"/>
    <path d="M3.67578 9.5293H9.49931V14.8234H3.67578V9.5293Z" fill="#989898" fill-opacity="0.6"/>
    <path d="M7.91177 6.35386C7.61985 6.35386 7.38235 6.11637 7.38235 5.82445V4.76562H2.61765V5.82445C2.61765 6.11637 2.38015 6.35386 2.08824 6.35386C1.21252 6.35386 0.5 7.06638 0.5 7.9421V16.4127C0.5 17.2885 1.21252 18.0009 2.08824 18.0009H7.91177C8.78755 18.0009 9.5 17.2885 9.5 16.4127V15.8833H2.61765V8.47151H9.5V7.9421C9.5 7.06638 8.78755 6.35386 7.91177 6.35386Z" fill="#989898" fill-opacity="0.6"/>
    <path d="M1.55859 1.58789H8.44095V3.70554H1.55859V1.58789Z" fill="#989898" fill-opacity="0.6"/>
    <path d="M14.9425 4.23529L15.3233 2.71225C15.6675 1.33535 14.6272 0 13.2057 0C11.7864 0 10.7432 1.33313 11.088 2.71225L11.4688 4.23529H10.5586V5.29412H15.8527V4.23529H14.9425Z" fill="#989898" fill-opacity="0.6"/>
</svg>
