<svg width="24" height="24" viewBox="0 0 24 24" fill="none" xmlns="http://www.w3.org/2000/svg">
    <path d="M18.3513 21.4772C18.5144 21.4365 18.6775 21.3551 18.7999 21.2331L23.6937 16.3517C24.1015 15.9449 24.1015 15.2941 23.6937 14.928L22.0217 13.2602C21.6138 12.8534 21.0021 12.8534 20.5943 13.2602L15.7005 18.1415C15.5782 18.2636 15.4966 18.4263 15.4558 18.589L15.048 20.989C14.9664 21.5585 15.4558 22.006 15.986 21.9246L18.3513 21.4772Z" fill="#295DE1"/>
    <path d="M15.7009 0H4.28209C1.91672 0 0 1.91184 0 4.2712V19.7288C0 22.0882 1.91672 24 4.28209 24H12.0714C12.3569 24 12.6423 23.878 12.887 23.6746C13.2132 23.3492 13.254 22.8203 13.0093 22.4136C10.8479 19.1186 11.7859 14.7254 15.0892 12.5695C16.2311 11.7966 17.6177 11.4305 19.0042 11.4305C19.5752 11.4305 20.0238 10.983 20.0238 10.4136V4.2712C19.983 1.91184 18.0663 0 15.7009 0ZM8.72725 18.8339H4.64912C4.36362 18.8339 4.11897 18.7119 3.91506 18.5491C3.71115 18.3457 3.62957 18.1017 3.62957 17.817C3.62957 17.2475 4.07818 16.8 4.64912 16.8H8.72729C9.01278 16.8 9.25744 16.922 9.46135 17.0848C9.66526 17.2882 9.74684 17.5322 9.74684 17.817C9.74679 18.3864 9.29818 18.8339 8.72725 18.8339ZM10.3585 13.7085H4.64912C4.36362 13.7085 4.11897 13.5864 3.91506 13.4237C3.71115 13.2203 3.62957 12.9762 3.62957 12.6915C3.62957 12.122 4.07818 11.6745 4.64912 11.6745H10.3586C10.6441 11.6745 10.8887 11.7966 11.0926 11.9593C11.2965 12.1627 11.3781 12.4068 11.3781 12.6915C11.3781 13.2203 10.9295 13.7085 10.3585 13.7085ZM12.8054 8.42034H4.64912C4.36362 8.42034 4.11897 8.29833 3.91506 8.13558C3.71115 7.93219 3.62957 7.68811 3.62957 7.40339C3.62957 6.83391 4.07818 6.38644 4.64912 6.38644H12.8054C13.0909 6.38644 13.3356 6.50845 13.5395 6.6712C13.7434 6.87459 13.825 7.11867 13.825 7.40339C13.825 7.93219 13.3764 8.42034 12.8054 8.42034Z" fill="#295DE1"/>
</svg>
