<svg width="25" height="24" viewBox="0 0 25 24" fill="none" xmlns="http://www.w3.org/2000/svg">
    <path d="M16.688 2H8.30805C4.66805 2 2.49805 4.17 2.49805 7.81V16.18C2.49805 19.83 4.66805 22 8.30805 22H16.678C20.318 22 22.488 19.83 22.488 16.19V7.81C22.498 4.17 20.328 2 16.688 2ZM11.448 17.51C11.158 17.8 10.608 18.08 10.208 18.14L7.74805 18.49C7.65805 18.5 7.56805 18.51 7.47805 18.51C7.06805 18.51 6.68805 18.37 6.41805 18.1C6.08805 17.77 5.94805 17.29 6.02805 16.76L6.37805 14.3C6.43805 13.89 6.70805 13.35 7.00805 13.06L11.468 8.6C11.548 8.81 11.628 9.02 11.738 9.26C11.838 9.47 11.948 9.69 12.068 9.89C12.168 10.06 12.278 10.22 12.368 10.34C12.478 10.51 12.608 10.67 12.688 10.76C12.738 10.83 12.778 10.88 12.798 10.9C13.048 11.2 13.338 11.48 13.588 11.69C13.658 11.76 13.698 11.8 13.718 11.81C13.868 11.93 14.018 12.05 14.148 12.14C14.308 12.26 14.468 12.37 14.638 12.46C14.838 12.58 15.058 12.69 15.278 12.8C15.508 12.9 15.718 12.99 15.928 13.06L11.448 17.51ZM17.868 11.09L16.948 12.02C16.888 12.08 16.808 12.11 16.728 12.11C16.698 12.11 16.658 12.11 16.638 12.1C14.608 11.52 12.988 9.9 12.408 7.87C12.378 7.76 12.408 7.64 12.488 7.57L13.418 6.64C14.938 5.12 16.388 5.15 17.878 6.64C18.638 7.4 19.008 8.13 19.008 8.89C18.998 9.61 18.628 10.33 17.868 11.09Z" fill="white"/>
</svg>
