<svg width="20" height="20" viewBox="0 0 20 20" fill="none" xmlns="http://www.w3.org/2000/svg">
<path d="M14.6069 6.47435C14.5486 6.46602 14.4902 6.46602 14.4319 6.47435C13.1402 6.43268 12.1152 5.37435 12.1152 4.07435C12.1152 2.74935 13.1902 1.66602 14.5236 1.66602C15.8486 1.66602 16.9319 2.74102 16.9319 4.07435C16.9236 5.37435 15.8986 6.43268 14.6069 6.47435Z" fill="#295DE1"/>
<path d="M17.3237 12.2503C16.3904 12.8753 15.082 13.1087 13.8737 12.9503C14.1904 12.267 14.357 11.5087 14.3654 10.7087C14.3654 9.87534 14.182 9.08367 13.832 8.392C15.0654 8.22534 16.3737 8.45867 17.3154 9.08367C18.632 9.95034 18.632 11.3753 17.3237 12.2503Z" fill="#295DE1"/>
<path d="M5.36745 6.47435C5.42578 6.46602 5.48411 6.46602 5.54245 6.47435C6.83411 6.43268 7.85912 5.37435 7.85912 4.07435C7.85912 2.74102 6.78411 1.66602 5.45078 1.66602C4.12578 1.66602 3.05078 2.74102 3.05078 4.07435C3.05078 5.37435 4.07578 6.43268 5.36745 6.47435Z" fill="#295DE1"/>
<path d="M5.45794 10.7088C5.45794 11.5172 5.63294 12.2838 5.94961 12.9755C4.77461 13.1005 3.54961 12.8505 2.64961 12.2588C1.33294 11.3838 1.33294 9.95883 2.64961 9.08383C3.54128 8.48383 4.79961 8.24216 5.98294 8.37549C5.64128 9.07549 5.45794 9.86716 5.45794 10.7088Z" fill="#295DE1"/>
<path d="M10.1 13.225C10.0333 13.2167 9.95833 13.2167 9.88333 13.225C8.35 13.175 7.125 11.9167 7.125 10.3667C7.13333 8.78333 8.40833 7.5 10 7.5C11.5833 7.5 12.8667 8.78333 12.8667 10.3667C12.8583 11.9167 11.6417 13.175 10.1 13.225Z" fill="#295DE1"/>
<path d="M7.39297 14.9512C6.13464 15.7928 6.13464 17.1762 7.39297 18.0095C8.8263 18.9678 11.1763 18.9678 12.6096 18.0095C13.868 17.1678 13.868 15.7845 12.6096 14.9512C11.1846 13.9928 8.83464 13.9928 7.39297 14.9512Z" fill="#295DE1"/>
</svg>
