<svg width="25" height="25" viewBox="0 0 25 25" fill="none" xmlns="http://www.w3.org/2000/svg">
    <path d="M19.499 9.5C19.499 5.63 16.369 2.5 12.499 2.5C8.62902 2.5 5.49902 5.63 5.49902 9.5C5.49902 13.12 8.23902 16.09 11.749 16.46V18.75H9.49902C9.08902 18.75 8.74902 19.09 8.74902 19.5C8.74902 19.91 9.08902 20.25 9.49902 20.25H11.749V22.5C11.749 22.91 12.089 23.25 12.499 23.25C12.909 23.25 13.249 22.91 13.249 22.5V20.25H15.499C15.909 20.25 16.249 19.91 16.249 19.5C16.249 19.09 15.909 18.75 15.499 18.75H13.249V16.46C16.759 16.09 19.499 13.12 19.499 9.5Z" fill="white"/>
</svg>
