<svg width="18" height="18" viewBox="0 0 18 18" fill="none" xmlns="http://www.w3.org/2000/svg">
    <path d="M11.8804 16.4997H6.12044C2.97794 16.4997 2.35544 14.6022 3.37544 12.2922L4.45544 9.83969C4.45544 9.83969 6.75044 9.74969 9.00044 10.4997C11.2504 11.2497 13.3729 9.83219 13.3729 9.83219L13.5154 9.74219L14.6329 12.2997C15.6379 14.6097 14.9779 16.4997 11.8804 16.4997Z" fill="#989898" fill-opacity="0.6"/>
    <path d="M11.5802 5.055H11.4602L13.0577 8.7L12.7502 8.895C12.7352 8.9025 11.0402 9.99 9.35273 9.435C7.59023 8.8425 5.82023 8.7375 4.95023 8.7225L6.55523 5.055H6.33023C5.84273 5.055 5.39273 4.86 5.07023 4.5375C4.74773 4.215 4.55273 3.765 4.55273 3.2775C4.55273 2.3025 5.34773 1.5 6.33023 1.5H11.6627C12.1577 1.5 12.6002 1.7025 12.9227 2.025C13.3427 2.445 13.5602 3.06 13.3952 3.7125C13.2002 4.5225 12.4202 5.055 11.5802 5.055Z" fill="#989898" fill-opacity="0.6"/>
</svg>
