<svg width="31" height="31" viewBox="0 0 31 31" fill="none" xmlns="http://www.w3.org/2000/svg">
    <path d="M20.7375 3H10.2625C5.7125 3 3 5.7125 3 10.2625V20.725C3 25.2875 5.7125 28 10.2625 28H20.725C25.275 28 27.9875 25.2875 27.9875 20.7375V10.2625C28 5.7125 25.2875 3 20.7375 3ZM14.9125 17.4125L10.2625 22.0625H13C13.5125 22.0625 13.9375 22.4875 13.9375 23C13.9375 23.5125 13.5125 23.9375 13 23.9375H8C7.875 23.9375 7.75 23.9125 7.6375 23.8625C7.4125 23.7625 7.225 23.5875 7.125 23.35C7.0875 23.2375 7.0625 23.125 7.0625 23V18C7.0625 17.4875 7.4875 17.0625 8 17.0625C8.5125 17.0625 8.9375 17.4875 8.9375 18V20.7375L13.5875 16.0875C13.95 15.725 14.55 15.725 14.9125 16.0875C15.275 16.45 15.275 17.05 14.9125 17.4125ZM23.9375 13C23.9375 13.5125 23.5125 13.9375 23 13.9375C22.4875 13.9375 22.0625 13.5125 22.0625 13V10.2625L17.4125 14.9125C17.225 15.1 16.9875 15.1875 16.75 15.1875C16.5125 15.1875 16.275 15.1 16.0875 14.9125C15.725 14.55 15.725 13.95 16.0875 13.5875L20.7375 8.9375H18C17.4875 8.9375 17.0625 8.5125 17.0625 8C17.0625 7.4875 17.4875 7.0625 18 7.0625H23C23.125 7.0625 23.2375 7.0875 23.3625 7.1375C23.5875 7.2375 23.775 7.4125 23.875 7.65C23.9125 7.7625 23.9375 7.875 23.9375 8V13Z" fill="#00171F"/>
</svg>
