<svg width="18" height="18" viewBox="0 0 18 18" fill="none" xmlns="http://www.w3.org/2000/svg">
<path d="M5.73742 15.6825C5.71492 15.6825 5.68492 15.6975 5.66242 15.6975C4.20742 14.9775 3.02242 13.785 2.29492 12.33C2.29492 12.3075 2.30992 12.2775 2.30992 12.255C3.22492 12.525 4.16992 12.7275 5.10742 12.885C5.27242 13.83 5.46742 14.7675 5.73742 15.6825Z" fill="#334155"/>
<path d="M15.705 12.3375C14.9625 13.83 13.725 15.0375 12.2175 15.765C12.5025 14.8125 12.7425 13.8525 12.9 12.885C13.845 12.7275 14.775 12.525 15.69 12.255C15.6825 12.285 15.705 12.315 15.705 12.3375Z" fill="#334155"/>
<path d="M15.765 5.78249C14.82 5.49749 13.8675 5.26499 12.9 5.09999C12.7425 4.13249 12.51 3.17249 12.2175 2.23499C13.77 2.97749 15.0225 4.22999 15.765 5.78249Z" fill="#334155"/>
<path d="M5.73761 2.31751C5.46761 3.23251 5.27261 4.16251 5.11511 5.10751C4.14761 5.25751 3.18761 5.49751 2.23511 5.78251C2.96261 4.27501 4.17011 3.03751 5.66261 2.29501C5.68511 2.29501 5.71511 2.31751 5.73761 2.31751Z" fill="#334155"/>
<path d="M11.6176 4.9425C9.87757 4.7475 8.12257 4.7475 6.38257 4.9425C6.57007 3.915 6.81007 2.8875 7.14757 1.8975C7.16257 1.8375 7.15507 1.7925 7.16257 1.7325C7.75507 1.59 8.36257 1.5 9.00007 1.5C9.63007 1.5 10.2451 1.59 10.8301 1.7325C10.8376 1.7925 10.8376 1.8375 10.8526 1.8975C11.1901 2.895 11.4301 3.915 11.6176 4.9425Z" fill="#334155"/>
<path d="M4.9425 11.6175C3.9075 11.43 2.8875 11.19 1.8975 10.8525C1.8375 10.8375 1.7925 10.845 1.7325 10.8375C1.59 10.245 1.5 9.63751 1.5 9.00001C1.5 8.37001 1.59 7.75501 1.7325 7.17001C1.7925 7.16251 1.8375 7.16251 1.8975 7.14751C2.895 6.81751 3.9075 6.57001 4.9425 6.38251C4.755 8.12251 4.755 9.87751 4.9425 11.6175Z" fill="#334155"/>
<path d="M16.5001 9.00001C16.5001 9.63751 16.4101 10.245 16.2676 10.8375C16.2076 10.845 16.1626 10.8375 16.1026 10.8525C15.1051 11.1825 14.0851 11.43 13.0576 11.6175C13.2526 9.87751 13.2526 8.12251 13.0576 6.38251C14.0851 6.57001 15.1126 6.81001 16.1026 7.14751C16.1626 7.16251 16.2076 7.17001 16.2676 7.17001C16.4101 7.76251 16.5001 8.37001 16.5001 9.00001Z" fill="#334155"/>
<path d="M11.6176 13.0575C11.4301 14.0925 11.1901 15.1125 10.8526 16.1025C10.8376 16.1625 10.8376 16.2075 10.8301 16.2675C10.2451 16.41 9.63007 16.5 9.00007 16.5C8.36257 16.5 7.75507 16.41 7.16257 16.2675C7.15507 16.2075 7.16257 16.1625 7.14757 16.1025C6.81757 15.105 6.57007 14.0925 6.38257 13.0575C7.25257 13.155 8.12257 13.2225 9.00007 13.2225C9.87757 13.2225 10.7551 13.155 11.6176 13.0575Z" fill="#334155"/>
<path d="M11.8225 11.8225C9.94668 12.0592 8.05332 12.0592 6.1775 11.8225C5.94083 9.94668 5.94083 8.05332 6.1775 6.1775C8.05332 5.94083 9.94668 5.94083 11.8225 6.1775C12.0592 8.05332 12.0592 9.94668 11.8225 11.8225Z" fill="#334155"/>
</svg>
