<svg width="18" height="18" viewBox="0 0 18 18" fill="none" xmlns="http://www.w3.org/2000/svg">
    <path d="M2.06383 13.9891C1.75633 13.9891 1.50133 13.7341 1.50133 13.4266V9.15156C1.46383 7.11906 2.22133 5.19906 3.63133 3.75906C5.04133 2.32656 6.93133 1.53906 8.96383 1.53906C13.1188 1.53906 16.5013 4.92156 16.5013 9.07656V13.3516C16.5013 13.6591 16.2463 13.9141 15.9388 13.9141C15.6313 13.9141 15.3763 13.6591 15.3763 13.3516V9.07656C15.3763 5.54406 12.5038 2.66406 8.96383 2.66406C7.23133 2.66406 5.62633 3.33156 4.43383 4.54656C3.23383 5.76906 2.59633 7.39656 2.62633 9.13656V13.4191C2.62633 13.7341 2.37883 13.9891 2.06383 13.9891Z" fill="#989898" fill-opacity="0.6"/>
    <path d="M4.455 9.33594H4.3575C2.7825 9.33594 1.5 10.6184 1.5 12.1934V13.6034C1.5 15.1784 2.7825 16.4609 4.3575 16.4609H4.455C6.03 16.4609 7.3125 15.1784 7.3125 13.6034V12.1934C7.3125 10.6184 6.03 9.33594 4.455 9.33594Z" fill="#989898" fill-opacity="0.6"/>
    <path d="M13.6425 9.33594H13.545C11.97 9.33594 10.6875 10.6184 10.6875 12.1934V13.6034C10.6875 15.1784 11.97 16.4609 13.545 16.4609H13.6425C15.2175 16.4609 16.5 15.1784 16.5 13.6034V12.1934C16.5 10.6184 15.2175 9.33594 13.6425 9.33594Z" fill="#989898" fill-opacity="0.6"/>
</svg>
