<svg width="20" height="20" viewBox="0 0 20 20" fill="none" xmlns="http://www.w3.org/2000/svg">
<path d="M6.9082 5.24102C6.5582 5.24102 6.2832 4.95768 6.2832 4.61602V2.29102C6.2832 1.94935 6.5582 1.66602 6.9082 1.66602C7.2582 1.66602 7.5332 1.94935 7.5332 2.29102V4.60768C7.5332 4.95768 7.2582 5.24102 6.9082 5.24102Z" fill="#295DE1"/>
<path d="M13.0918 5.24102C12.7418 5.24102 12.4668 4.95768 12.4668 4.61602V2.29102C12.4668 1.94102 12.7501 1.66602 13.0918 1.66602C13.4418 1.66602 13.7168 1.94935 13.7168 2.29102V4.60768C13.7168 4.95768 13.4418 5.24102 13.0918 5.24102Z" fill="#295DE1"/>
<path d="M16.309 3.74935C15.759 3.34102 14.9673 3.73268 14.9673 4.42435V4.50768C14.9673 5.48268 14.2673 6.38268 13.2923 6.48268C12.1673 6.59935 11.2173 5.71602 11.2173 4.61602V3.74935C11.2173 3.29102 10.8423 2.91602 10.384 2.91602H9.61732C9.15898 2.91602 8.78398 3.29102 8.78398 3.74935V4.61602C8.78398 5.27435 8.44232 5.85768 7.92565 6.18268C7.85065 6.23268 7.76732 6.27435 7.68398 6.31602C7.60898 6.35768 7.52565 6.39102 7.43398 6.41602C7.33398 6.44935 7.22565 6.47435 7.10898 6.48268C6.97565 6.49935 6.84232 6.49935 6.70898 6.48268C6.59232 6.47435 6.48398 6.44935 6.38398 6.41602C6.30065 6.39102 6.21732 6.35768 6.13398 6.31602C6.05065 6.27435 5.96732 6.23268 5.89232 6.18268C5.36732 5.81602 5.03398 5.18268 5.03398 4.50768V4.42435C5.03398 3.78268 4.35065 3.39935 3.80898 3.67435C3.80065 3.68268 3.79232 3.68268 3.78398 3.69102C3.75065 3.70768 3.72565 3.72435 3.69232 3.74935C3.66732 3.77435 3.63398 3.79102 3.60898 3.81602C3.37565 3.99935 3.16732 4.20768 2.99232 4.43268C2.90065 4.53268 2.82565 4.64102 2.75898 4.74935C2.75065 4.75768 2.74232 4.76602 2.73398 4.78268C2.65898 4.89102 2.59232 5.01602 2.53398 5.13268C2.51732 5.14935 2.50898 5.15768 2.50898 5.17435C2.45898 5.27435 2.40898 5.37435 2.37565 5.48268C2.35065 5.52435 2.34232 5.55768 2.32565 5.59935C2.27565 5.72435 2.24232 5.84935 2.20898 5.97435C2.17565 6.09102 2.15065 6.21602 2.13398 6.34102C2.11732 6.43268 2.10898 6.52435 2.10065 6.62435C2.09232 6.74102 2.08398 6.85768 2.08398 6.97435V14.2743C2.08398 16.516 3.90065 18.3327 6.14232 18.3327H13.859C16.1006 18.3327 17.9173 16.516 17.9173 14.2743V6.97435C17.9173 5.64935 17.284 4.49102 16.309 3.74935ZM10.0007 13.541H8.59232V14.9993C8.59232 15.341 8.30898 15.6243 7.96732 15.6243C7.61732 15.6243 7.34232 15.341 7.34232 14.9993V13.541H5.83398C5.49232 13.541 5.20898 13.2577 5.20898 12.916C5.20898 12.5743 5.49232 12.291 5.83398 12.291H7.34232V10.8327C7.34232 10.491 7.61732 10.2077 7.96732 10.2077C8.30898 10.2077 8.59232 10.491 8.59232 10.8327V12.291H10.0007C10.3423 12.291 10.6257 12.5743 10.6257 12.916C10.6257 13.2577 10.3423 13.541 10.0007 13.541Z" fill="#295DE1"/>
</svg>
