<svg width="35" height="25" viewBox="0 0 35 25" fill="none" xmlns="http://www.w3.org/2000/svg">
    <path d="M28.3838 24.9994H28.3271C28.0553 24.986 27.7974 24.8755 27.6003 24.688C27.4031 24.5004 27.2799 24.2483 27.253 23.9776L25.8316 9.75156L24.9619 14.9685C24.9224 15.205 24.8091 15.4229 24.6381 15.591C24.4672 15.7591 24.2475 15.8687 24.0104 15.9043C23.7733 15.9398 23.531 15.8994 23.3183 15.7888C23.1056 15.6782 22.9334 15.5032 22.8263 15.2887L21.2606 12.1562L20.1037 13.3132C19.8908 13.5261 19.6021 13.6458 19.301 13.6458H15.6906L13.6015 24.0911C13.5436 24.3551 13.395 24.5905 13.1816 24.7564C12.9682 24.9224 12.7034 25.0083 12.4333 24.9994C12.1615 24.986 11.9036 24.8755 11.7064 24.688C11.5093 24.5004 11.3861 24.2483 11.3592 23.9776L9.93662 9.75156L9.06694 14.9685C9.02744 15.205 8.91411 15.4229 8.74319 15.591C8.57226 15.7591 8.35251 15.8687 8.11543 15.9043C7.87834 15.9398 7.63609 15.8994 7.42338 15.7888C7.21068 15.6782 7.03843 15.5032 6.93134 15.2887L5.36568 12.1562L4.20876 13.3132C3.99589 13.5261 3.70715 13.6458 3.40606 13.6458H1.13535C0.834239 13.6458 0.545458 13.5262 0.332537 13.3133C0.119617 13.1004 0 12.8116 0 12.5105C0 12.2094 0.119617 11.9206 0.332537 11.7077C0.545458 11.4947 0.834239 11.3751 1.13535 11.3751H2.93603L4.87407 9.43707C5.00193 9.31089 5.15756 9.21642 5.32849 9.16121C5.49943 9.10601 5.68092 9.09161 5.85843 9.11917C6.03617 9.14788 6.20454 9.21844 6.34963 9.32504C6.49473 9.43164 6.61239 9.57122 6.69291 9.73226L7.40137 11.148L9.09873 0.9696C9.13943 0.693796 9.28018 0.44261 9.49417 0.263909C9.70816 0.0852091 9.98041 -0.00851157 10.2591 0.000608102C10.5377 0.00972777 10.8032 0.121051 11.0051 0.313361C11.2069 0.505671 11.331 0.765523 11.3535 1.0434L12.8636 16.2004L13.647 12.2879C13.6984 12.0307 13.8373 11.7991 14.0402 11.6327C14.243 11.4663 14.4972 11.3753 14.7596 11.3751H18.831L20.769 9.43707C20.8963 9.31023 21.0518 9.21538 21.2228 9.16034C21.3938 9.10529 21.5754 9.09162 21.7528 9.12043C21.9301 9.14925 22.098 9.21973 22.2428 9.3261C22.3876 9.43246 22.5051 9.57166 22.5856 9.73226L23.2975 11.148L24.9937 0.967329C25.0266 0.690574 25.1655 0.437359 25.3813 0.260967C25.5971 0.0845753 25.8728 -0.0012397 26.1506 0.021579C26.4266 0.0293158 26.6902 0.137323 26.8923 0.325395C27.0944 0.513467 27.221 0.768719 27.2485 1.0434L28.7585 16.2004L29.5419 12.2879C29.5933 12.0307 29.7323 11.7991 29.9351 11.6327C30.138 11.4663 30.3922 11.3753 30.6546 11.3751H32.9253C33.2264 11.3751 33.5152 11.4947 33.7281 11.7077C33.941 11.9206 34.0606 12.2094 34.0606 12.5105C34.0606 12.8116 33.941 13.1004 33.7281 13.3133C33.5152 13.5262 33.2264 13.6458 32.9253 13.6458H31.5844L29.4965 24.0911C29.4441 24.3475 29.3048 24.578 29.1021 24.7435C28.8993 24.909 28.6456 24.9994 28.3838 24.9994Z" fill="white"/>
</svg>
