<svg width="34" height="35" viewBox="0 0 34 35" fill="none" xmlns="http://www.w3.org/2000/svg">
    <path d="M28.3872 9.96185L20.2272 4.25268C18.0031 2.69435 14.5889 2.77935 12.4497 4.43685L5.35224 9.97602C3.93557 11.081 2.81641 13.3477 2.81641 15.1327V24.9077C2.81641 28.5202 5.74891 31.4668 9.36141 31.4668H24.6331C28.2456 31.4668 31.1781 28.5343 31.1781 24.9218V15.3169C31.1781 13.4044 29.9456 11.0527 28.3872 9.96185ZM18.0597 25.8002C18.0597 26.381 17.5781 26.8627 16.9972 26.8627C16.4164 26.8627 15.9347 26.381 15.9347 25.8002V21.5502C15.9347 20.9694 16.4164 20.4877 16.9972 20.4877C17.5781 20.4877 18.0597 20.9694 18.0597 21.5502V25.8002Z" fill="#00171F"/>
</svg>
