<svg width="19" height="18" viewBox="0 0 19 18" fill="none" xmlns="http://www.w3.org/2000/svg">
    <path d="M2.93266 14.2584L2.91766 14.2734C2.71516 13.8309 2.58766 13.3284 2.53516 12.7734C2.58766 13.3209 2.73016 13.8159 2.93266 14.2584Z" fill="#989898" fill-opacity="0.6"/>
    <path d="M7.74789 7.78484C8.73372 7.78484 9.53289 6.98567 9.53289 5.99984C9.53289 5.01402 8.73372 4.21484 7.74789 4.21484C6.76206 4.21484 5.96289 5.01402 5.96289 5.99984C5.96289 6.98567 6.76206 7.78484 7.74789 7.78484Z" fill="#989898" fill-opacity="0.6"/>
    <path d="M13.1405 1.5H6.85555C4.12555 1.5 2.49805 3.1275 2.49805 5.8575V12.1425C2.49805 12.96 2.64055 13.6725 2.91805 14.2725C3.56305 15.6975 4.94305 16.5 6.85555 16.5H13.1405C15.8705 16.5 17.498 14.8725 17.498 12.1425V10.425V5.8575C17.498 3.1275 15.8705 1.5 13.1405 1.5ZM16.2755 9.375C15.6905 8.8725 14.7455 8.8725 14.1605 9.375L11.0405 12.0525C10.4555 12.555 9.51055 12.555 8.92555 12.0525L8.67055 11.8425C8.13805 11.3775 7.29055 11.3325 6.69055 11.7375L3.88555 13.62C3.72055 13.2 3.62305 12.7125 3.62305 12.1425V5.8575C3.62305 3.7425 4.74055 2.625 6.85555 2.625H13.1405C15.2555 2.625 16.373 3.7425 16.373 5.8575V9.4575L16.2755 9.375Z" fill="#989898" fill-opacity="0.6"/>
</svg>
