<svg width="34" height="35" viewBox="0 0 34 35" fill="none" xmlns="http://www.w3.org/2000/svg">
    <path d="M3.65708 27.4691L3.62875 27.4974C3.24625 26.6616 3.00542 25.7124 2.90625 24.6641C3.00542 25.6982 3.27458 26.6332 3.65708 27.4691Z" fill="#00171F"/>
    <path d="M12.7486 15.2433C14.6107 15.2433 16.1203 13.7338 16.1203 11.8717C16.1203 10.0095 14.6107 8.5 12.7486 8.5C10.8865 8.5 9.37695 10.0095 9.37695 11.8717C9.37695 13.7338 10.8865 15.2433 12.7486 15.2433Z" fill="#00171F"/>
    <path d="M22.9365 3.36719H11.0648C5.90815 3.36719 2.83398 6.44135 2.83398 11.598V23.4697C2.83398 25.0139 3.10315 26.3597 3.62732 27.493C4.84565 30.1847 7.45232 31.7005 11.0648 31.7005H22.9365C28.0932 31.7005 31.1673 28.6264 31.1673 23.4697V20.2255V11.598C31.1673 6.44135 28.0932 3.36719 22.9365 3.36719ZM28.8582 18.2422C27.7532 17.293 25.9682 17.293 24.8632 18.2422L18.9698 23.2997C17.8648 24.2489 16.0798 24.2489 14.9748 23.2997L14.4932 22.903C13.4873 22.0247 11.8865 21.9397 10.7532 22.7047L5.45482 26.2605C5.14315 25.4672 4.95898 24.5464 4.95898 23.4697V11.598C4.95898 7.60302 7.06982 5.49219 11.0648 5.49219H22.9365C26.9315 5.49219 29.0423 7.60302 29.0423 11.598V18.398L28.8582 18.2422Z" fill="#00171F"/>
</svg>
