<svg width="28" height="28" viewBox="0 0 28 28" fill="none" xmlns="http://www.w3.org/2000/svg">
<path d="M22.3727 10.708V9.0413C22.3727 5.4413 21.506 0.667969 13.9993 0.667969C6.49268 0.667969 5.62602 5.4413 5.62602 9.0413V10.708C1.89268 11.1746 0.666016 13.068 0.666016 17.7213V20.2013C0.666016 25.668 2.33268 27.3346 7.79935 27.3346H20.1993C25.666 27.3346 27.3327 25.668 27.3327 20.2013V17.7213C27.3327 13.068 26.106 11.1746 22.3727 10.708ZM13.9993 22.988C11.7727 22.988 9.97268 21.1746 9.97268 18.9613C9.97268 16.7346 11.786 14.9346 13.9993 14.9346C16.2127 14.9346 18.026 16.748 18.026 18.9613C18.026 21.188 16.226 22.988 13.9993 22.988ZM7.79935 10.588C7.69268 10.588 7.59935 10.588 7.49268 10.588V9.0413C7.49268 5.13463 8.59935 2.53464 13.9993 2.53464C19.3993 2.53464 20.506 5.13463 20.506 9.0413V10.6013C20.3993 10.6013 20.306 10.6013 20.1993 10.6013H7.79935V10.588Z" fill="#295DE1"/>
</svg>
