<svg width="18" height="18" viewBox="0 0 18 18" fill="none" xmlns="http://www.w3.org/2000/svg">
<path d="M4.5 9.75C2.43 9.75 0.75 11.4225 0.75 13.5C0.75 15.5775 2.43 17.25 4.5 17.25C6.57 17.25 8.25 15.57 8.25 13.5C8.25 11.43 6.5775 9.75 4.5 9.75ZM2.97 11.97H4.5C4.785 11.97 5.01 12.2025 5.01 12.48C5.01 12.7575 4.785 12.99 4.5 12.99H2.97C2.685 12.99 2.46 12.7575 2.46 12.48C2.46 12.2025 2.685 11.97 2.97 11.97ZM6.03 15.03H2.97C2.685 15.03 2.46 14.7975 2.46 14.52C2.46 14.2425 2.6925 14.01 2.97 14.01H6.0375C6.3225 14.01 6.5475 14.2425 6.5475 14.52C6.5475 14.7975 6.315 15.03 6.03 15.03Z" fill="#334155"/>
<path d="M12.75 2.25H5.25C3 2.25 1.5 3.375 1.5 6V8.355C1.5 8.9025 2.0625 9.2475 2.565 9.03C3.39 8.67 4.3275 8.535 5.31 8.6925C7.275 9.015 8.88 10.5675 9.2775 12.5175C9.39 13.0875 9.405 13.6425 9.33 14.175C9.27 14.6175 9.63 15.0075 10.0725 15.0075H12.75C15 15.0075 16.5 13.8825 16.5 11.2575V6C16.5 3.375 15 2.25 12.75 2.25ZM13.1025 6.4425L10.755 8.3175C10.26 8.715 9.63 8.91 9 8.91C8.37 8.91 7.7325 8.715 7.245 8.3175L4.8975 6.4425C4.6575 6.2475 4.62 5.8875 4.8075 5.6475C5.0025 5.4075 5.355 5.3625 5.595 5.5575L7.9425 7.4325C8.5125 7.89 9.48 7.89 10.05 7.4325L12.3975 5.5575C12.6375 5.3625 12.9975 5.4 13.185 5.6475C13.38 5.8875 13.3425 6.2475 13.1025 6.4425Z" fill="#334155"/>
</svg>
