<svg width="18" height="18" viewBox="0 0 18 18" fill="none" xmlns="http://www.w3.org/2000/svg">
<path d="M16.6425 1.6575C16.59 1.5225 16.4775 1.41 16.3425 1.3575C16.2675 1.3275 16.2 1.3125 16.125 1.3125H11.25C10.9425 1.3125 10.6875 1.5675 10.6875 1.875C10.6875 2.1825 10.9425 2.4375 11.25 2.4375H14.7675L11.385 5.8275H11.3775C10.3725 4.995 9.09 4.5 7.6875 4.5C4.4775 4.5 1.875 7.1025 1.875 10.3125C1.875 13.5225 4.4775 16.125 7.6875 16.125C10.8975 16.125 13.5 13.5225 13.5 10.3125C13.5 8.91 13.005 7.6275 12.1725 6.6225L15.5625 3.2325V6.75C15.5625 7.0575 15.8175 7.3125 16.125 7.3125C16.4325 7.3125 16.6875 7.0575 16.6875 6.75V1.875C16.6875 1.8 16.6725 1.7325 16.6425 1.6575Z" fill="#334155"/>
</svg>
