<!-- <svg width="25" height="25" viewBox="0 0 25 25" fill="none" xmlns="http://www.w3.org/2000/svg">
<path d="M12.499 15.5C16.2269 15.5 19.249 12.5899 19.249 9C19.249 5.41015 16.2269 2.5 12.499 2.5C8.7711 2.5 5.74902 5.41015 5.74902 9C5.74902 12.5899 8.7711 15.5 12.499 15.5Z" fill="white"/>
<path d="M16.289 16.1091C16.619 15.9391 16.999 16.1891 16.999 16.5591V21.4091C16.999 22.3091 16.369 22.7491 15.589 22.3791L12.909 21.1091C12.679 21.0091 12.319 21.0091 12.089 21.1091L9.40902 22.3791C8.62902 22.7391 7.99902 22.2991 7.99902 21.3991L8.01902 16.5591C8.01902 16.1891 8.40902 15.9491 8.72902 16.1091C9.85902 16.6791 11.139 16.9991 12.499 16.9991C13.859 16.9991 15.149 16.6791 16.289 16.1091Z" fill="white"/> -->
<svg width="19" height="18" viewBox="0 0 19 18" fill="none" xmlns="http://www.w3.org/2000/svg">
<path d="M9.99805 11.25C12.794 11.25 15.0605 9.06739 15.0605 6.375C15.0605 3.68261 12.794 1.5 9.99805 1.5C7.20211 1.5 4.93555 3.68261 4.93555 6.375C4.93555 9.06739 7.20211 11.25 9.99805 11.25Z" fill="#989898" fill-opacity="0.6"/>
<path d="M12.8405 11.7049C13.088 11.5774 13.373 11.7649 13.373 12.0424V15.6799C13.373 16.3549 12.9005 16.6849 12.3155 16.4074L10.3055 15.4549C10.133 15.3799 9.86305 15.3799 9.69055 15.4549L7.68055 16.4074C7.09555 16.6774 6.62305 16.3474 6.62305 15.6724L6.63805 12.0424C6.63805 11.7649 6.93055 11.5849 7.17055 11.7049C8.01805 12.1324 8.97805 12.3724 9.99805 12.3724C11.018 12.3724 11.9855 12.1324 12.8405 11.7049Z" fill="#989898" fill-opacity="0.6"/>
</svg>
