<svg width="34" height="41" viewBox="0 0 34 41" fill="none" xmlns="http://www.w3.org/2000/svg">
    <path d="M34 15.3622C34 12.9539 32.0167 10.8289 29.4667 10.8289C26.9167 10.8289 24.9333 12.8122 24.9333 15.3622C24.9333 17.3456 26.2083 19.0456 28.05 19.6122V29.2456C28.05 33.7789 24.3667 37.4622 19.8333 37.4622C15.3 37.4622 11.6167 33.7789 11.6167 29.2456V24.4289C16.575 23.7206 20.5417 19.1872 20.5417 13.6622V6.01224C20.5417 3.88724 18.8417 2.18724 16.7167 2.18724H16.0083C16.0083 1.33724 15.4417 0.770573 14.5917 0.770573C13.7417 0.770573 13.175 1.33724 13.175 2.18724V5.16224C13.175 6.01224 13.7417 6.57891 14.5917 6.57891C15.4417 6.57891 16.0083 6.01224 16.0083 5.16224H16.7167C17.2833 5.16224 17.7083 5.58724 17.7083 6.15391V13.8039C17.7083 18.1956 14.3083 21.8789 10.2 21.8789C6.09167 21.8789 2.83333 18.0539 2.83333 13.6622V6.01224C2.83333 5.44557 3.25833 4.87891 3.825 4.87891H4.39167C4.39167 5.72891 4.95833 6.29557 5.80833 6.29557C6.65833 6.29557 7.225 5.72891 7.225 4.87891V2.04557C7.225 1.19557 6.65833 0.628906 5.80833 0.628906C4.95833 0.628906 4.39167 1.19557 4.39167 2.04557H3.825C1.7 2.04557 0 3.88724 0 6.01224V13.6622C0 19.1872 3.825 23.7206 8.925 24.4289V29.2456C8.925 35.3372 13.8833 40.2956 19.975 40.2956C26.0667 40.2956 31.025 35.3372 31.025 29.2456V19.6122C32.725 19.0456 34 17.3456 34 15.3622V15.3622ZM29.4667 17.0622C28.6167 17.0622 27.7667 16.3539 27.7667 15.3622C27.7667 14.5122 28.475 13.6622 29.4667 13.6622C30.4583 13.6622 31.1667 14.3706 31.1667 15.3622C31.1667 16.3539 30.4583 17.0622 29.4667 17.0622Z" fill="#00171F"/>
</svg>
