<svg width="18" height="18" viewBox="0 0 18 18" fill="none" xmlns="http://www.w3.org/2000/svg">
    <path d="M16.5916 9.60292L9.32121 15.8167C7.86884 13.5628 8.45472 10.515 10.6299 9.01004C12.5009 7.71532 14.9928 7.96338 16.5916 9.60292Z" fill="#989898" fill-opacity="0.6"/>
    <path d="M17.9784 13.5559C17.731 16.2539 15.4197 18.2334 12.8155 17.977C11.7262 17.8699 10.7066 17.3748 9.92969 16.5766L17.201 10.3633C17.8101 11.3014 18.0851 12.4306 17.9784 13.5559Z" fill="#989898" fill-opacity="0.6"/>
    <path d="M8.07066 12.574C8.03748 12.9154 8.03748 13.2592 8.07066 13.6006L7.38808 14.1998C5.50341 15.8629 2.6745 15.6271 1.0695 13.6742C-0.5355 11.7213 -0.307962 8.79002 1.57671 7.12691L4.57245 4.48438L9.04711 9.89711C8.49537 10.6825 8.15837 11.6069 8.07066 12.574Z" fill="#989898" fill-opacity="0.6"/>
    <path d="M15.7828 4.64124C15.7843 5.83626 15.3392 6.98611 14.5409 7.84861C14.284 7.78279 14.0224 7.73712 13.7588 7.71107C12.3823 7.5696 11.0081 8.00429 9.943 8.91935C9.85294 8.99304 9.76763 9.07652 9.68228 9.16001L5.29297 3.85046L8.39776 1.10969C10.2801 -0.553422 13.1071 -0.320595 14.7121 1.62983C15.4032 2.46979 15.7828 3.53757 15.7828 4.64124Z" fill="#989898" fill-opacity="0.6"/>
</svg>
