<svg width="34" height="35" viewBox="0 0 34 35" fill="none" xmlns="http://www.w3.org/2000/svg">
    <path d="M22.6654 6.48828C22.6654 8.24495 21.2345 9.67578 19.4779 9.67578H14.5195C13.6412 9.67578 12.8479 9.32161 12.267 8.74078C11.6862 8.15995 11.332 7.36661 11.332 6.48828C11.332 4.73161 12.7629 3.30078 14.5195 3.30078H19.4779C20.3562 3.30078 21.1495 3.65495 21.7304 4.23578C22.3112 4.81661 22.6654 5.60995 22.6654 6.48828Z" fill="#00171F"/>
    <path d="M26.6771 7.59117C26.3513 7.32201 25.983 7.10951 25.5863 6.95367C25.1755 6.79784 24.7646 7.12367 24.6796 7.54867C24.198 9.97117 22.0588 11.7987 19.4805 11.7987H14.5221C13.1055 11.7987 11.7738 11.2462 10.768 10.2403C10.0313 9.50367 9.5213 8.56867 9.32297 7.56284C9.23797 7.13784 8.81297 6.79784 8.40214 6.96784C6.7588 7.63367 5.66797 9.13534 5.66797 12.1528V25.9653C5.66797 30.2153 8.2038 31.632 11.3346 31.632H22.668C25.7988 31.632 28.3346 30.2153 28.3346 25.9653V12.1528C28.3346 9.84367 27.6971 8.42701 26.6771 7.59117ZM11.3346 17.8195H17.0013C17.5821 17.8195 18.0638 18.3012 18.0638 18.882C18.0638 19.4628 17.5821 19.9445 17.0013 19.9445H11.3346C10.7538 19.9445 10.2721 19.4628 10.2721 18.882C10.2721 18.3012 10.7538 17.8195 11.3346 17.8195ZM22.668 25.6112H11.3346C10.7538 25.6112 10.2721 25.1295 10.2721 24.5487C10.2721 23.9678 10.7538 23.4862 11.3346 23.4862H22.668C23.2488 23.4862 23.7305 23.9678 23.7305 24.5487C23.7305 25.1295 23.2488 25.6112 22.668 25.6112Z" fill="#00171F"/>
</svg>
