<svg width="34" height="35" viewBox="0 0 34 35" fill="none" xmlns="http://www.w3.org/2000/svg">
    <path d="M24.082 3.37109H9.91536C6.00536 3.37109 2.83203 6.53026 2.83203 10.4261V18.8978V20.3144C2.83203 24.2103 6.00536 27.3694 9.91536 27.3694H12.0404C12.4229 27.3694 12.9329 27.6244 13.1737 27.9361L15.2987 30.7553C16.2337 32.0019 17.7637 32.0019 18.6987 30.7553L20.8237 27.9361C21.0929 27.5819 21.5179 27.3694 21.957 27.3694H24.082C27.992 27.3694 31.1654 24.2103 31.1654 20.3144V10.4261C31.1654 6.53026 27.992 3.37109 24.082 3.37109ZM18.4154 20.0169H9.91536C9.33453 20.0169 8.85286 19.5353 8.85286 18.9544C8.85286 18.3736 9.33453 17.8919 9.91536 17.8919H18.4154C18.9962 17.8919 19.4779 18.3736 19.4779 18.9544C19.4779 19.5353 18.9962 20.0169 18.4154 20.0169ZM24.082 12.9336H9.91536C9.33453 12.9336 8.85286 12.4519 8.85286 11.8711C8.85286 11.2903 9.33453 10.8086 9.91536 10.8086H24.082C24.6629 10.8086 25.1445 11.2903 25.1445 11.8711C25.1445 12.4519 24.6629 12.9336 24.082 12.9336Z" fill="#00171F"/>
</svg>
