<svg width="31" height="31" viewBox="0 0 31 31" fill="none" xmlns="http://www.w3.org/2000/svg">
    <path d="M22.5266 7.65L9.26406 20.9125C8.35156 19.675 7.85156 18.1625 7.85156 16.525V10.6375C7.85156 8.3375 8.87656 6.275 10.5016 4.875V10.05C10.5016 10.5375 10.9016 10.9375 11.3766 10.9375C11.8641 10.9375 12.2641 10.5375 12.2641 10.05V3.7125C12.8391 3.425 13.4516 3.225 14.0891 3.1125V7.6875C14.0891 8.1875 14.4891 8.575 14.9766 8.575C15.4641 8.575 15.8641 8.1875 15.8641 7.6875V3C18.8516 3.1375 21.4266 5.0125 22.5266 7.65Z" fill="#00171F"/>
    <path d="M23.1492 11.6016V16.5266C23.1492 20.7391 19.7117 24.1766 15.4992 24.1766C15.2742 24.1766 15.0492 24.1641 14.8242 24.1391C14.7242 24.1391 14.6242 24.1266 14.5367 24.1141C14.3742 24.0891 14.2117 24.0641 14.0617 24.0391C13.9992 24.0391 13.9492 24.0141 13.8742 24.0016C13.6992 23.9641 13.5242 23.9141 13.3617 23.8641C13.0867 23.7891 12.8242 23.6891 12.5742 23.5891C12.4117 23.5266 12.2617 23.4641 12.1117 23.3766C12.0742 23.3641 12.0492 23.3391 12.0117 23.3266C11.8867 23.2641 11.7617 23.2016 11.6367 23.1141L23.1492 11.6016Z" fill="#00171F"/>
    <path d="M27.6891 14.25V16.75C27.6891 23.475 22.2266 28.9375 15.5016 28.9375C12.8516 28.9375 10.3141 28.0875 8.22656 26.525L9.57656 25.175C11.3016 26.4 13.3516 27.0625 15.5016 27.0625C21.1891 27.0625 25.8141 22.4375 25.8141 16.75V14.25C25.8141 13.7375 26.2391 13.3125 26.7516 13.3125C27.2641 13.3125 27.6891 13.7375 27.6891 14.25Z" fill="#00171F"/>
    <path d="M27.7141 3.28906C27.3391 2.91406 26.7266 2.91406 26.3516 3.28906L3.28906 26.3641C2.91406 26.7391 2.91406 27.3516 3.28906 27.7266C3.47656 27.9016 3.71406 28.0016 3.96406 28.0016C4.21406 28.0016 4.45156 27.9016 4.63906 27.7141L27.7141 4.63906C28.1016 4.26406 28.1016 3.66406 27.7141 3.28906Z" fill="#F74B4A"/>
</svg>
