<svg width="31" height="30" viewBox="0 0 31 30" fill="none" xmlns="http://www.w3.org/2000/svg">
    <path d="M15.002 27.4203C8.70195 27.4203 3.56445 22.2953 3.56445 15.9828V13.6328C3.56445 13.1453 3.96445 12.7578 4.43945 12.7578C4.91445 12.7578 5.31445 13.1578 5.31445 13.6328V15.9828C5.31445 21.3203 9.65195 25.6578 14.9895 25.6578C20.327 25.6578 24.6645 21.3203 24.6645 15.9828V13.6328C24.6645 13.1453 25.0645 12.7578 25.5395 12.7578C26.0145 12.7578 26.4145 13.1578 26.4145 13.6328V15.9828C26.4395 22.2953 21.302 27.4203 15.002 27.4203Z" fill="#295DE1"/>
    <path d="M15.002 2.50391C10.802 2.50391 7.37695 5.92891 7.37695 10.1289V15.9914C7.37695 20.1914 10.802 23.6164 15.002 23.6164C19.202 23.6164 22.627 20.1914 22.627 15.9914V10.1289C22.627 5.92891 19.202 2.50391 15.002 2.50391ZM17.727 13.2414C17.6395 13.5789 17.327 13.8039 16.9895 13.8039C16.927 13.8039 16.852 13.7914 16.7895 13.7789C15.5145 13.4289 14.1645 13.4289 12.8895 13.7789C12.477 13.8914 12.0645 13.6539 11.952 13.2414C11.8395 12.8414 12.077 12.4164 12.4895 12.3039C14.027 11.8789 15.652 11.8789 17.1895 12.3039C17.602 12.4164 17.8395 12.8289 17.727 13.2414ZM18.7895 9.77891C18.677 10.0914 18.3895 10.2789 18.077 10.2789C17.9895 10.2789 17.902 10.2664 17.8145 10.2289C15.902 9.52891 13.802 9.52891 11.8895 10.2289C11.4895 10.3789 11.052 10.1789 10.902 9.77891C10.7645 9.39141 10.9645 8.95391 11.3645 8.80391C13.6145 7.99141 16.0895 7.99141 18.327 8.80391C18.727 8.95391 18.927 9.39141 18.7895 9.77891Z" fill="#295DE1"/>
</svg>
