<svg width="44" height="44" viewBox="0 0 44 44" fill="none" xmlns="http://www.w3.org/2000/svg">
<path d="M38.4443 19.0117V24.86C38.4443 29.1133 34.9977 32.56 30.7444 32.56H24.2177C23.2093 32.56 22.3843 33.3667 22.3843 34.3933V35.8967C22.3843 36.905 23.2093 37.73 24.2177 37.73H28.361C29.076 37.73 29.6627 38.2983 29.6627 39.0317C29.6627 39.7467 29.076 40.3333 28.361 40.3333H13.8043C13.0893 40.3333 12.5027 39.7467 12.5027 39.0317C12.5027 38.2983 13.0893 37.73 13.8043 37.73H17.9477C18.956 37.73 19.781 36.905 19.781 35.8967V34.3933C19.781 33.3667 18.956 32.56 17.9477 32.56H11.3477C7.11268 32.56 3.66602 29.1133 3.66602 24.86V13.1817C3.66602 8.94667 7.11268 5.5 11.3477 5.5H19.2493C20.2577 5.5 21.0827 6.325 21.0827 7.33333V11.275C21.0827 14.8133 23.4477 17.1783 26.9677 17.1783H36.611C37.6193 17.1783 38.4443 18.0033 38.4443 19.0117Z" fill="#29A9E1"/>
<path d="M40.3156 4.32664L38.244 5.77497V5.00497C38.244 3.26331 36.8323 1.86997 35.109 1.86997H27.2623C25.374 1.85164 23.834 3.39164 23.834 5.27997V11.2933C23.834 12.87 24.6223 14.4283 26.969 14.4283H35.0906C36.8323 14.4283 38.2256 13.0166 38.2256 11.2933V10.505L40.2973 11.9533C41.3423 12.6683 42.1673 12.2283 42.1673 10.9816V5.29831C42.1673 4.05164 41.3423 3.62997 40.3156 4.32664Z" fill="#29A9E1"/>
</svg>
