<svg width="29" height="28" viewBox="0 0 29 28" fill="none" xmlns="http://www.w3.org/2000/svg">
    <path d="M18.6693 7.34479V6.99479C18.6693 4.41646 16.5809 2.32812 14.0026 2.32812C11.4243 2.32812 9.33594 4.41646 9.33594 6.99479V12.8281" stroke="white" stroke-width="1.66129" stroke-linecap="round" stroke-linejoin="round"/>
    <path d="M10.5488 16.5537C11.4005 17.4987 12.6372 18.082 14.0022 18.082C16.5805 18.082 18.6688 15.9937 18.6688 13.4154V12.832" stroke="white" stroke-width="1.66129" stroke-linecap="round" stroke-linejoin="round"/>
    <path d="M7.91211 19.7745C9.51044 21.2561 11.6454 22.1661 14.0021 22.1661C18.9254 22.1661 22.9271 18.1645 22.9271 13.2411V11.2578" stroke="white" stroke-width="1.66129" stroke-linecap="round" stroke-linejoin="round"/>
    <path d="M5.07812 11.2578V13.2411C5.07812 14.4778 5.32312 15.6445 5.77813 16.7178" stroke="white" stroke-width="1.66129" stroke-linecap="round" stroke-linejoin="round"/>
    <path d="M23.4179 3.3125L4.58789 22.1542" stroke="white" stroke-width="1.66129" stroke-linecap="round" stroke-linejoin="round"/>
    <path d="M12.8359 3.50391V7.00391" stroke="white" stroke-width="1.66129" stroke-linecap="round" stroke-linejoin="round"/>
    <path d="M14.002 22.168V25.668" stroke="white" stroke-width="1.66129" stroke-linecap="round" stroke-linejoin="round"/>
</svg>
