<svg width="18" height="18" viewBox="0 0 18 18" fill="none" xmlns="http://www.w3.org/2000/svg">
<path d="M6.5625 2.625V1.5C6.5625 1.1925 6.3075 0.9375 6 0.9375C5.6925 0.9375 5.4375 1.1925 5.4375 1.5V2.67C5.625 2.6475 5.7975 2.625 6 2.625H6.5625Z" fill="#334155"/>
<path d="M12.5625 2.67V1.5C12.5625 1.1925 12.3075 0.9375 12 0.9375C11.6925 0.9375 11.4375 1.1925 11.4375 1.5V2.625H12C12.2025 2.625 12.375 2.6475 12.5625 2.67Z" fill="#334155"/>
<path d="M12.5625 2.67V3.75C12.5625 4.0575 12.3075 4.3125 12 4.3125C11.6925 4.3125 11.4375 4.0575 11.4375 3.75V2.625H6.5625V3.75C6.5625 4.0575 6.3075 4.3125 6 4.3125C5.6925 4.3125 5.4375 4.0575 5.4375 3.75V2.67C3.225 2.8725 2.25 4.2975 2.25 6.375V12.75C2.25 15 3.375 16.5 6 16.5H12C14.625 16.5 15.75 15 15.75 12.75V6.375C15.75 4.2975 14.775 2.8725 12.5625 2.67ZM9 12.5625H6C5.6925 12.5625 5.4375 12.3075 5.4375 12C5.4375 11.6925 5.6925 11.4375 6 11.4375H9C9.3075 11.4375 9.5625 11.6925 9.5625 12C9.5625 12.3075 9.3075 12.5625 9 12.5625ZM12 8.8125H6C5.6925 8.8125 5.4375 8.5575 5.4375 8.25C5.4375 7.9425 5.6925 7.6875 6 7.6875H12C12.3075 7.6875 12.5625 7.9425 12.5625 8.25C12.5625 8.5575 12.3075 8.8125 12 8.8125Z" fill="#334155"/>
</svg>
