<svg width="34" height="34" viewBox="0 0 34 34" fill="none" xmlns="http://www.w3.org/2000/svg">
<path d="M23.7288 5.04594V2.83594C23.7288 2.2551 23.2472 1.77344 22.6663 1.77344C22.0855 1.77344 21.6038 2.2551 21.6038 2.83594V4.96094H12.3955V2.83594C12.3955 2.2551 11.9138 1.77344 11.333 1.77344C10.7522 1.77344 10.2705 2.2551 10.2705 2.83594V5.04594C6.44551 5.4001 4.58967 7.68094 4.30634 11.0668C4.27801 11.4776 4.61801 11.8176 5.01467 11.8176H28.9847C29.3955 11.8176 29.7355 11.4634 29.693 11.0668C29.4097 7.68094 27.5538 5.4001 23.7288 5.04594Z" fill="#F74B4A"/>
<path d="M28.3333 13.9414H5.66667C4.8875 13.9414 4.25 14.5789 4.25 15.3581V24.0847C4.25 28.3347 6.375 31.1681 11.3333 31.1681H18.3175C19.295 31.1681 19.975 30.2189 19.6633 29.2981C19.38 28.4764 19.1392 27.5697 19.1392 26.9181C19.1392 22.6256 22.6383 19.1264 26.9308 19.1264C27.3417 19.1264 27.7525 19.1547 28.1492 19.2256C28.9992 19.3531 29.7642 18.6872 29.7642 17.8372V15.3722C29.75 14.5789 29.1125 13.9414 28.3333 13.9414ZM13.0475 25.0906C12.7783 25.3456 12.41 25.5014 12.0417 25.5014C11.8575 25.5014 11.6733 25.4589 11.5033 25.3881C11.3333 25.3172 11.1775 25.2181 11.0358 25.0906C10.7808 24.8214 10.625 24.4672 10.625 24.0847C10.625 23.9006 10.6675 23.7164 10.7383 23.5464C10.8092 23.3622 10.9083 23.2206 11.0358 23.0789C11.1775 22.9514 11.3333 22.8522 11.5033 22.7814C12.0133 22.5547 12.6508 22.6822 13.0475 23.0789C13.175 23.2206 13.2742 23.3622 13.345 23.5464C13.4158 23.7164 13.4583 23.9006 13.4583 24.0847C13.4583 24.4672 13.3025 24.8214 13.0475 25.0906ZM13.0475 20.1322C12.7783 20.3872 12.41 20.5431 12.0417 20.5431C11.8575 20.5431 11.6733 20.5147 11.5033 20.4297C11.3333 20.3589 11.1775 20.2597 11.0358 20.1322C10.7808 19.8631 10.625 19.4947 10.625 19.1264C10.625 18.9422 10.6675 18.7581 10.7383 18.5881C10.8092 18.4181 10.9083 18.2622 11.0358 18.1206C11.1775 17.9931 11.3333 17.8939 11.5033 17.8231C12.0133 17.6106 12.6508 17.7239 13.0475 18.1206C13.175 18.2622 13.2742 18.4181 13.345 18.5881C13.4158 18.7581 13.4583 18.9422 13.4583 19.1264C13.4583 19.4947 13.3025 19.8631 13.0475 20.1322ZM18.3033 19.6647C18.2325 19.8347 18.1333 19.9906 18.0058 20.1322C17.8642 20.2597 17.7083 20.3589 17.5383 20.4297C17.3683 20.5147 17.1842 20.5431 17 20.5431C16.6317 20.5431 16.2633 20.3872 15.9942 20.1322C15.8667 19.9906 15.7675 19.8347 15.6967 19.6647C15.6258 19.4947 15.5833 19.3106 15.5833 19.1264C15.5833 18.7581 15.7392 18.3897 15.9942 18.1206C16.3908 17.7239 17.0142 17.5964 17.5383 17.8231C17.7083 17.8939 17.8642 17.9931 18.0058 18.1206C18.2608 18.3897 18.4167 18.7581 18.4167 19.1264C18.4167 19.3106 18.3883 19.4947 18.3033 19.6647Z" fill="#F74B4A"/>
<path d="M26.9167 21.25C23.7858 21.25 21.25 23.7858 21.25 26.9167C21.25 30.0475 23.7858 32.5833 26.9167 32.5833C30.0475 32.5833 32.5833 30.0475 32.5833 26.9167C32.5833 23.7858 30.0475 21.25 26.9167 21.25ZM29.1833 29.24C28.9708 29.4525 28.7017 29.5517 28.4325 29.5517C28.1633 29.5517 27.8942 29.4525 27.6817 29.24L26.9308 28.4892L26.1517 29.2683C25.9392 29.4808 25.67 29.58 25.4008 29.58C25.1317 29.58 24.8625 29.4808 24.65 29.2683C24.2392 28.8575 24.2392 28.1775 24.65 27.7667L25.4292 26.9875L24.6783 26.2367C24.2675 25.8258 24.2675 25.1458 24.6783 24.735C25.0892 24.3242 25.7692 24.3242 26.18 24.735L26.9308 25.5L27.6392 24.7917C28.05 24.3808 28.73 24.3808 29.1408 24.7917C29.5517 25.2025 29.5517 25.8825 29.1408 26.2933L28.4325 27.0017L29.1833 27.7525C29.5942 28.1633 29.5942 28.8292 29.1833 29.24Z" fill="#F74B4A"/>
</svg>
