<svg width="34" height="35" viewBox="0 0 34 35" fill="none" xmlns="http://www.w3.org/2000/svg">
    <path d="M12.7487 3.37109C9.03703 3.37109 6.01953 6.38859 6.01953 10.1003C6.01953 13.7411 8.86703 16.6878 12.5787 16.8153C12.692 16.8011 12.8054 16.8011 12.8904 16.8153C12.9187 16.8153 12.9329 16.8153 12.9612 16.8153C12.9754 16.8153 12.9754 16.8153 12.9895 16.8153C16.6162 16.6878 19.4637 13.7411 19.4779 10.1003C19.4779 6.38859 16.4604 3.37109 12.7487 3.37109Z" fill="#00171F"/>
    <path d="M19.9493 20.5817C15.9968 17.9467 9.55096 17.9467 5.57013 20.5817C3.77096 21.7859 2.7793 23.4151 2.7793 25.1576C2.7793 26.9001 3.77096 28.5151 5.55596 29.7051C7.5393 31.0367 10.146 31.7026 12.7526 31.7026C15.3593 31.7026 17.966 31.0367 19.9493 29.7051C21.7343 28.5009 22.726 26.8859 22.726 25.1292C22.7118 23.3867 21.7343 21.7717 19.9493 20.5817Z" fill="#00171F"/>
    <path d="M28.3183 10.9328C28.5449 13.6812 26.5899 16.0895 23.8841 16.4153C23.8699 16.4153 23.8699 16.4153 23.8558 16.4153H23.8133C23.7283 16.4153 23.6433 16.4153 23.5724 16.4437C22.1983 16.5145 20.9374 16.0753 19.9883 15.2678C21.4474 13.9645 22.2833 12.0095 22.1133 9.88448C22.0141 8.73698 21.6174 7.68865 21.0224 6.79615C21.5608 6.52698 22.1841 6.35698 22.8216 6.30032C25.5983 6.05948 28.0774 8.12782 28.3183 10.9328Z" fill="#00171F"/>
    <path d="M31.1517 24.0408C31.0384 25.415 30.16 26.605 28.6867 27.4125C27.27 28.1917 25.485 28.56 23.7142 28.5175C24.7342 27.5967 25.3292 26.4492 25.4425 25.2308C25.5842 23.4742 24.7484 21.7883 23.0767 20.4425C22.1275 19.6917 21.0225 19.0967 19.8184 18.6575C22.9492 17.7508 26.8875 18.36 29.31 20.315C30.6134 21.3633 31.2792 22.6808 31.1517 24.0408Z" fill="#00171F"/>
</svg>
