<svg width="34" height="35" viewBox="0 0 34 35" fill="none" xmlns="http://www.w3.org/2000/svg">
    <path d="M21.1513 4.00911V12.3674C21.1513 12.9908 20.4146 13.3024 19.9613 12.8916L17.4821 10.6108C17.2129 10.3558 16.7879 10.3558 16.5188 10.6108L14.0396 12.8774C13.5863 13.3024 12.8496 12.9766 12.8496 12.3674V4.00911C12.8496 3.61245 13.1613 3.30078 13.5579 3.30078H20.4429C20.8396 3.30078 21.1513 3.61245 21.1513 4.00911Z" fill="#00171F"/>
    <path d="M24.055 3.38098C23.6442 3.32432 23.2758 3.67848 23.2758 4.08932V12.6177C23.2758 13.6943 22.6383 14.6718 21.6467 15.111C20.655 15.536 19.5075 15.3518 18.7142 14.6151L17.4817 13.4818C17.2125 13.2268 16.8017 13.2268 16.5183 13.4818L15.2858 14.6151C14.7758 15.0968 14.11 15.3377 13.4442 15.3377C13.0758 15.3377 12.7075 15.2668 12.3533 15.111C11.3617 14.6718 10.7242 13.6943 10.7242 12.6177V4.08932C10.7242 3.67848 10.3558 3.32432 9.945 3.38098C5.97833 3.87682 4.25 6.55432 4.25 10.3793V24.546C4.25 28.796 6.375 31.6293 11.3333 31.6293H22.6667C27.625 31.6293 29.75 28.796 29.75 24.546V10.3793C29.75 6.55432 28.0217 3.87682 24.055 3.38098ZM24.7917 27.0251H12.75C12.1692 27.0251 11.6875 26.5435 11.6875 25.9627C11.6875 25.3818 12.1692 24.9002 12.75 24.9002H24.7917C25.3725 24.9002 25.8542 25.3818 25.8542 25.9627C25.8542 26.5435 25.3725 27.0251 24.7917 27.0251ZM24.7917 21.3585H18.7708C18.19 21.3585 17.7083 20.8768 17.7083 20.296C17.7083 19.7152 18.19 19.2335 18.7708 19.2335H24.7917C25.3725 19.2335 25.8542 19.7152 25.8542 20.296C25.8542 20.8768 25.3725 21.3585 24.7917 21.3585Z" fill="#00171F"/>
</svg>
