<svg width="18" height="18" viewBox="0 0 18 18" fill="none" xmlns="http://www.w3.org/2000/svg">
    <path d="M8.2875 11.2125L6.9 12.6C6.6075 12.8925 6.1425 12.8925 5.8425 12.6075C5.76 12.525 5.6775 12.45 5.595 12.3675C4.8225 11.5875 4.125 10.77 3.5025 9.915C2.8875 9.06 2.3925 8.205 2.0325 7.3575C1.68 6.5025 1.5 5.685 1.5 4.905C1.5 4.395 1.59 3.9075 1.77 3.4575C1.95 3 2.235 2.58 2.6325 2.205C3.1125 1.7325 3.6375 1.5 4.1925 1.5C4.4025 1.5 4.6125 1.545 4.8 1.635C4.995 1.725 5.1675 1.86 5.3025 2.055L7.0425 4.5075C7.1775 4.695 7.275 4.8675 7.3425 5.0325C7.41 5.19 7.4475 5.3475 7.4475 5.49C7.4475 5.67 7.395 5.85 7.29 6.0225C7.1925 6.195 7.05 6.375 6.87 6.555L6.3 7.1475C6.2175 7.23 6.18 7.3275 6.18 7.4475C6.18 7.5075 6.1875 7.56 6.2025 7.62C6.225 7.68 6.2475 7.725 6.2625 7.77C6.3975 8.0175 6.63 8.34 6.96 8.73C7.2975 9.12 7.6575 9.5175 8.0475 9.915C8.1225 9.99 8.205 10.065 8.28 10.14C8.58 10.4325 8.5875 10.9125 8.2875 11.2125Z" fill="#989898" fill-opacity="0.6"/>
    <path d="M16.4767 13.7468C16.4767 13.9568 16.4392 14.1743 16.3642 14.3843C16.3417 14.4443 16.3192 14.5043 16.2892 14.5643C16.1617 14.8343 15.9967 15.0893 15.7792 15.3293C15.4117 15.7343 15.0067 16.0268 14.5492 16.2143C14.5417 16.2143 14.5342 16.2218 14.5267 16.2218C14.0842 16.4018 13.6042 16.4993 13.0867 16.4993C12.3217 16.4993 11.5042 16.3193 10.6417 15.9518C9.77922 15.5843 8.91672 15.0893 8.06172 14.4668C7.76922 14.2493 7.47672 14.0318 7.19922 13.7993L9.65172 11.3468C9.86172 11.5043 10.0492 11.6243 10.2067 11.7068C10.2442 11.7218 10.2892 11.7443 10.3417 11.7668C10.4017 11.7893 10.4617 11.7968 10.5292 11.7968C10.6567 11.7968 10.7542 11.7518 10.8367 11.6693L11.4067 11.1068C11.5942 10.9193 11.7742 10.7768 11.9467 10.6868C12.1192 10.5818 12.2917 10.5293 12.4792 10.5293C12.6217 10.5293 12.7717 10.5593 12.9367 10.6268C13.1017 10.6943 13.2742 10.7918 13.4617 10.9193L15.9442 12.6818C16.1392 12.8168 16.2742 12.9743 16.3567 13.1618C16.4317 13.3493 16.4767 13.5368 16.4767 13.7468Z" fill="#989898" fill-opacity="0.6"/>
</svg>