<svg width="18" height="18" viewBox="0 0 18 18" fill="none" xmlns="http://www.w3.org/2000/svg">
    <path d="M15.975 8.12953C16.2675 8.12953 16.5 7.89703 16.5 7.60453V6.90703C16.5 3.83203 15.5625 2.89453 12.4875 2.89453H5.5125C2.4375 2.89453 1.5 3.83203 1.5 6.90703V7.25953C1.5 7.55203 1.7325 7.78453 2.025 7.78453C2.7 7.78453 3.2475 8.33203 3.2475 9.00703C3.2475 9.68203 2.7 10.222 2.025 10.222C1.7325 10.222 1.5 10.4545 1.5 10.747V11.0995C1.5 14.1745 2.4375 15.112 5.5125 15.112H12.4875C15.5625 15.112 16.5 14.1745 16.5 11.0995C16.5 10.807 16.2675 10.5745 15.975 10.5745C15.3 10.5745 14.7525 10.027 14.7525 9.35203C14.7525 8.67703 15.3 8.12953 15.975 8.12953ZM6.75 6.65953C7.1625 6.65953 7.5 6.99703 7.5 7.40953C7.5 7.82203 7.17 8.15953 6.75 8.15953C6.3375 8.15953 6 7.82203 6 7.40953C6 6.99703 6.33 6.65953 6.75 6.65953ZM11.25 11.9095C10.83 11.9095 10.4925 11.572 10.4925 11.1595C10.4925 10.747 10.83 10.4095 11.2425 10.4095C11.655 10.4095 11.9925 10.747 11.9925 11.1595C11.9925 11.572 11.67 11.9095 11.25 11.9095ZM11.925 7.10953L6.8775 12.157C6.765 12.2695 6.6225 12.322 6.48 12.322C6.3375 12.322 6.195 12.2695 6.0825 12.157C5.865 11.9395 5.865 11.5795 6.0825 11.362L11.13 6.31453C11.3475 6.09703 11.7075 6.09703 11.925 6.31453C12.1425 6.53203 12.1425 6.89203 11.925 7.10953Z" fill="#989898" fill-opacity="0.6"/>
</svg>
