<svg width="19" height="18" viewBox="0 0 19 18" fill="none" xmlns="http://www.w3.org/2000/svg">
<path d="M16.475 8.12953C16.7675 8.12953 17 7.89703 17 7.60453V6.90703C17 3.83203 16.0625 2.89453 12.9875 2.89453H6.0125C2.9375 2.89453 2 3.83203 2 6.90703V7.25953C2 7.55203 2.2325 7.78453 2.525 7.78453C3.2 7.78453 3.7475 8.33203 3.7475 9.00703C3.7475 9.68203 3.2 10.222 2.525 10.222C2.2325 10.222 2 10.4545 2 10.747V11.0995C2 14.1745 2.9375 15.112 6.0125 15.112H12.9875C16.0625 15.112 17 14.1745 17 11.0995C17 10.807 16.7675 10.5745 16.475 10.5745C15.8 10.5745 15.2525 10.027 15.2525 9.35203C15.2525 8.67703 15.8 8.12953 16.475 8.12953ZM7.25 6.65953C7.6625 6.65953 8 6.99703 8 7.40953C8 7.82203 7.67 8.15953 7.25 8.15953C6.8375 8.15953 6.5 7.82203 6.5 7.40953C6.5 6.99703 6.83 6.65953 7.25 6.65953ZM11.75 11.9095C11.33 11.9095 10.9925 11.572 10.9925 11.1595C10.9925 10.747 11.33 10.4095 11.7425 10.4095C12.155 10.4095 12.4925 10.747 12.4925 11.1595C12.4925 11.572 12.17 11.9095 11.75 11.9095ZM12.425 7.10953L7.3775 12.157C7.265 12.2695 7.1225 12.322 6.98 12.322C6.8375 12.322 6.695 12.2695 6.5825 12.157C6.365 11.9395 6.365 11.5795 6.5825 11.362L11.63 6.31453C11.8475 6.09703 12.2075 6.09703 12.425 6.31453C12.6425 6.53203 12.6425 6.89203 12.425 7.10953Z" fill="#989898" fill-opacity="0.6"/>
</svg>
