<svg width="34" height="25" viewBox="0 0 34 25" fill="none" xmlns="http://www.w3.org/2000/svg">
    <path d="M13.5468 11.3594C12.3514 11.3594 11.3789 12.5672 11.3789 14.0519C11.487 17.6184 15.607 17.6177 15.7148 14.0518C15.7148 12.5672 14.7422 11.3594 13.5468 11.3594Z" fill="white"/>
    <path d="M32.2985 15.2241C31.749 14.4344 31.0349 13.7901 30.2054 13.3301C30.8377 9.21624 26.996 5.54668 22.9171 6.35456C22.8959 -1.47595 11.8314 -2.35214 10.5305 5.30827C5.12646 4.30788 0.813634 10.0963 3.31839 14.9826C-1.98386 17.0762 -0.609699 24.8995 5.15356 24.9998H27.1856C32.1549 25.0422 35.171 19.2727 32.2985 15.2241ZM13.5468 18.7049C11.2711 18.7049 9.41984 16.6183 9.41984 14.0534C9.63415 7.88825 17.4601 7.88968 17.6737 14.0535C17.6737 16.6183 15.8223 18.7049 13.5468 18.7049ZM22.9891 19.2991C24.2873 19.3473 24.2863 21.2104 22.9891 21.2581H19.8149C19.2739 21.2581 18.8354 20.8196 18.8354 20.2786C18.8354 18.9545 19.9618 18.2195 20.8669 17.6288C21.3219 17.3319 22.0096 16.8832 22.0096 16.6203C21.9834 15.8387 20.9161 15.8675 20.7444 16.3903C20.308 17.6141 18.5318 17.0524 18.8766 15.8011C19.0576 15.1966 19.8183 14.0535 21.4017 14.0535C22.8171 14.0535 23.9685 15.205 23.9685 16.6203C23.9685 17.9441 22.8423 18.679 21.9374 19.2695C21.9225 19.2792 21.9073 19.2891 21.8919 19.2992H22.9891V19.2991Z" fill="white"/>
</svg>
