<svg width="24" height="25" viewBox="0 0 24 25" fill="none" xmlns="http://www.w3.org/2000/svg">
<path d="M16.75 4.06V2.5C16.75 2.09 16.41 1.75 16 1.75C15.59 1.75 15.25 2.09 15.25 2.5V4H8.75V2.5C8.75 2.09 8.41 1.75 8 1.75C7.59 1.75 7.25 2.09 7.25 2.5V4.06C4.55 4.31 3.24 5.92 3.04 8.31C3.02 8.6 3.26 8.84 3.54 8.84H20.46C20.75 8.84 20.99 8.59 20.96 8.31C20.76 5.92 19.45 4.31 16.75 4.06Z" fill="#295DE1"/>
<path d="M20 10.3398H4C3.45 10.3398 3 10.7898 3 11.3398V17.4998C3 20.4998 4.5 22.4998 8 22.4998H16C19.5 22.4998 21 20.4998 21 17.4998V11.3398C21 10.7898 20.55 10.3398 20 10.3398ZM14.84 15.4898L14.34 15.9998H14.33L11.3 19.0298C11.17 19.1598 10.9 19.2998 10.71 19.3198L9.36 19.5198C8.87 19.5898 8.53 19.2398 8.6 18.7598L8.79 17.3998C8.82 17.2098 8.95 16.9498 9.08 16.8098L12.12 13.7798L12.62 13.2698C12.95 12.9398 13.32 12.6998 13.72 12.6998C14.06 12.6998 14.43 12.8598 14.84 13.2698C15.74 14.1698 15.45 14.8798 14.84 15.4898Z" fill="#295DE1"/>
</svg>
