<svg width="31" height="30" viewBox="0 0 31 30" fill="none" xmlns="http://www.w3.org/2000/svg">
<path d="M22.45 2.5H8.5125C5.475 2.5 3 4.975 3 8.0125V16.1375V16.3875C3 19.4375 5.475 21.9 8.5125 21.9H13.3125C14 21.9 14.5625 22.4625 14.5625 23.15V24.3625C14.5625 25.05 14 25.6125 13.3125 25.6125H10.2875C9.775 25.6125 9.35 26.0375 9.35 26.55C9.35 27.0625 9.7625 27.5 10.2875 27.5H20.725C21.2375 27.5 21.6625 27.075 21.6625 26.5625C21.6625 26.05 21.2375 25.625 20.725 25.625H17.7C17.0125 25.625 16.45 25.0625 16.45 24.375V23.1625C16.45 22.475 17.0125 21.9125 17.7 21.9125H22.4625C25.5125 21.9125 27.975 19.4375 27.975 16.4V16.15V8.025C27.9625 4.975 25.4875 2.5 22.45 2.5Z" fill="#295DE1"/>
</svg>
