<svg width="16" height="16" viewBox="0 0 16 16" fill="none" xmlns="http://www.w3.org/2000/svg">
<path d="M11.1048 1.21979L4.33234 3.46979C-0.220156 4.99229 -0.220156 7.47479 4.33234 8.98979L6.34234 9.65729L7.00984 11.6673C8.52484 16.2198 11.0148 16.2198 12.5298 11.6673L14.7873 4.90229C15.7923 1.86479 14.1423 0.207288 11.1048 1.21979ZM11.3448 5.25479L8.49484 8.11979C8.38234 8.23229 8.23984 8.28479 8.09734 8.28479C7.95484 8.28479 7.81234 8.23229 7.69984 8.11979C7.48234 7.90229 7.48234 7.54229 7.69984 7.32479L10.5498 4.45979C10.7673 4.24229 11.1273 4.24229 11.3448 4.45979C11.5623 4.67729 11.5623 5.03729 11.3448 5.25479Z" fill="white"/>
</svg>
