<svg width="26" height="28" viewBox="0 0 26 28" fill="none" xmlns="http://www.w3.org/2000/svg">
    <path d="M25.4113 12.9752L1.60635 0.355537C1.41977 0.256607 1.2102 0.216968 1.00287 0.241393C0.79554 0.265817 0.599287 0.353265 0.437743 0.493206C0.28347 0.630293 0.168321 0.810287 0.105242 1.01296C0.0421617 1.21562 0.0336519 1.43293 0.080669 1.64045L2.94809 12.849H15.186V15.1435H2.94809L0.0373873 26.3176C-0.00673152 26.4909 -0.0118815 26.6727 0.0223514 26.8485C0.0565844 27.0243 0.129245 27.1891 0.234491 27.3297C0.339737 27.4703 0.474631 27.5828 0.628328 27.6581C0.782024 27.7333 0.950234 27.7693 1.11943 27.7631C1.28882 27.762 1.4556 27.7188 1.60635 27.6369L25.4113 15.0173C25.5886 14.921 25.7373 14.7747 25.8412 14.5946C25.945 14.4144 26 14.2074 26 13.9962C26 13.7851 25.945 13.578 25.8412 13.3979C25.7373 13.2177 25.5886 13.0715 25.4113 12.9752Z" fill="white"/>
</svg>
