<svg width="24" height="24" viewBox="0 0 14 16" fill="none" xmlns="http://www.w3.org/2000/svg">
<path d="M5.72727 8C5.72727 8.73638 6.29709 9.33333 7 9.33333C7.70291 9.33333 8.27273 8.73638 8.27273 8C8.27273 7.26362 7.70291 6.66667 7 6.66667C6.29709 6.66667 5.72727 7.26362 5.72727 8Z" fill="#00171F"/>
<path fill-rule="evenodd" clip-rule="evenodd" d="M8.89151 1.61761C8.50066 -0.539205 5.49934 -0.539205 5.10849 1.61761C4.89192 2.81272 3.69045 3.52685 2.57683 3.12239C0.567069 2.39245 -0.93359 5.06835 0.685322 6.49523C1.58237 7.28587 1.58237 8.71413 0.685321 9.50477C-0.93359 10.9317 0.567069 13.6075 2.57683 12.8776C3.69045 12.4732 4.89192 13.1873 5.10849 14.3824C5.49934 16.5392 8.50066 16.5392 8.89151 14.3824C9.10808 13.1873 10.3096 12.4732 11.4232 12.8776C13.4329 13.6076 14.9336 10.9317 13.3147 9.50477C12.4176 8.71413 12.4176 7.28587 13.3147 6.49523C14.9336 5.06835 13.4329 2.39245 11.4232 3.12239C10.3096 3.52685 9.10808 2.81272 8.89151 1.61761ZM4.45455 8C4.45455 9.47276 5.59418 10.6667 7 10.6667C8.40582 10.6667 9.54545 9.47276 9.54545 8C9.54545 6.52724 8.40582 5.33333 7 5.33333C5.59418 5.33333 4.45455 6.52724 4.45455 8Z" fill="#00171F"/>
</svg>
