<svg width="24" height="25" viewBox="0 0 24 25" fill="none" xmlns="http://www.w3.org/2000/svg">
    <path d="M17.8114 5.99V6.73L14.2714 4.68C12.9314 3.91 11.0614 3.91 9.73141 4.68L6.19141 6.74V5.99C6.19141 3.74 7.42141 2.5 9.67141 2.5H14.3314C16.5814 2.5 17.8114 3.74 17.8114 5.99Z" fill="white"/>
    <path d="M17.84 8.47023L17.7 8.40023L16.34 7.62023L13.52 5.99023C12.66 5.49023 11.34 5.49023 10.48 5.99023L7.66 7.61023L6.3 8.41023L6.12 8.50023C4.37 9.68023 4.25 9.90023 4.25 11.7902V16.3102C4.25 18.2002 4.37 18.4202 6.16 19.6302L10.48 22.1202C10.91 22.3802 11.45 22.4902 12 22.4902C12.54 22.4902 13.09 22.3702 13.52 22.1202L17.88 19.6002C19.64 18.4202 19.75 18.2102 19.75 16.3102V11.7902C19.75 9.90023 19.63 9.68023 17.84 8.47023ZM14.79 14.0002L14.18 14.7502C14.08 14.8602 14.01 15.0702 14.02 15.2202L14.08 16.1802C14.12 16.7702 13.7 17.0702 13.15 16.8602L12.26 16.5002C12.12 16.4502 11.89 16.4502 11.75 16.5002L10.86 16.8502C10.31 17.0702 9.89 16.7602 9.93 16.1702L9.99 15.2102C10 15.0602 9.93 14.8502 9.83 14.7402L9.21 14.0002C8.83 13.5502 9 13.0502 9.57 12.9002L10.5 12.6602C10.65 12.6202 10.82 12.4802 10.9 12.3602L11.42 11.5602C11.74 11.0602 12.25 11.0602 12.58 11.5602L13.1 12.3602C13.18 12.4902 13.36 12.6202 13.5 12.6602L14.43 12.9002C15 13.0502 15.17 13.5502 14.79 14.0002Z" fill="white"/>
</svg>
