<svg width="18" height="16" viewBox="0 0 18 16" fill="none" xmlns="http://www.w3.org/2000/svg">
    <path d="M0 8.20378H18V9.70378H13.6342C13.8711 10.201 13.9906 10.746 13.9836 11.2967C13.9977 11.8192 13.8855 12.3373 13.6567 12.8073C13.428 13.2772 13.0893 13.6851 12.6694 13.9964C11.6579 14.7081 10.4378 15.0616 9.20251 15.0008C8.29996 15.0069 7.4062 14.8233 6.57916 14.4618C5.82387 14.1485 5.16917 13.6337 4.68652 12.9737C4.24212 12.3435 4.00762 11.5893 4.01636 10.8182V10.7048H4.30359V10.7037H4.64508V10.7048H6.02V10.8182C6.00433 11.1696 6.07382 11.5195 6.22253 11.8383C6.37125 12.157 6.59479 12.4351 6.87413 12.6489C7.55154 13.1312 8.372 13.3705 9.20249 13.3281C9.93562 13.3761 10.6645 13.1844 11.2792 12.7819C11.507 12.6134 11.6901 12.3916 11.8124 12.136C11.9346 11.8803 11.9923 11.5985 11.9804 11.3154C11.9964 11.0418 11.9459 10.7685 11.8332 10.5187C11.7205 10.2689 11.5491 10.0501 11.3335 9.88099C11.2451 9.81696 11.1533 9.75779 11.0585 9.70374H0V8.20378ZM13.3447 3.06065C12.9232 2.40567 12.3271 1.88143 11.6236 1.54704C10.8394 1.17345 9.97928 0.986504 9.11072 1.00084C7.8996 0.948865 6.70883 1.32488 5.74719 2.06297C5.33435 2.38182 5.00134 2.79233 4.77448 3.26204C4.54762 3.73176 4.43313 4.24781 4.44006 4.76939C4.43656 5.26369 4.54659 5.75219 4.76166 6.19725H7.35834C7.27496 6.1436 7.17297 6.09148 7.10565 6.03661C6.90219 5.88653 6.73702 5.69053 6.62358 5.46458C6.51014 5.23862 6.45164 4.98908 6.45282 4.73625C6.43773 4.44764 6.49242 4.15965 6.61226 3.89666C6.73209 3.63367 6.91354 3.40344 7.14124 3.22545C7.71733 2.82592 8.41088 2.63138 9.11072 2.67302C9.87165 2.62465 10.6231 2.86324 11.2167 3.34172C11.465 3.57551 11.6594 3.86052 11.7865 4.17697C11.9136 4.49342 11.9703 4.83374 11.9527 5.1743V5.28771H13.9559V5.1743C13.9592 4.4257 13.7471 3.69195 13.3447 3.06065Z" fill="#00171F"/>
</svg>
