<svg width="60" height="60" viewBox="0 0 60 60" fill="none" xmlns="http://www.w3.org/2000/svg">
<g filter="url(#filter0_b_9002_104939)">
<rect width="60" height="60" rx="5" fill="#989898" fill-opacity="0.5"/>
<path d="M16 33.2282C16 25.2245 22.4883 18.7363 30.492 18.7363H33.5V16.8219C33.5 16.1117 34.3412 15.7371 34.8691 16.2122L40.3378 21.1341C40.6999 21.46 40.6999 22.0277 40.3378 22.3536L34.8691 27.2754C34.3412 27.7506 33.5 27.3759 33.5 26.6657V24.7519H30.7024C24.9512 24.7519 19.7686 28.2226 17.5788 33.5406C17.2367 34.3714 16 34.1268 16 33.2282V33.2282Z" fill="white"/>
<path d="M44 26.7744C44 34.7781 37.5117 41.2664 29.508 41.2664H26.5V43.1807C26.5 43.8909 25.6588 44.2655 25.1309 43.7904L19.6622 38.8685C19.3001 38.5426 19.3001 37.9749 19.6622 37.649L25.1309 32.7272C25.6588 32.252 26.5 32.6267 26.5 33.3369V35.2507H29.2976C35.0488 35.2507 40.2314 31.78 42.4212 26.4621C42.7633 25.6312 44 25.8759 44 26.7744Z" fill="white"/>
</g>
<defs>
<filter id="filter0_b_9002_104939" x="-15" y="-15" width="90" height="90" filterUnits="userSpaceOnUse" color-interpolation-filters="sRGB">
<feFlood flood-opacity="0" result="BackgroundImageFix"/>
<feGaussianBlur in="BackgroundImageFix" stdDeviation="7.5"/>
<feComposite in2="SourceAlpha" operator="in" result="effect1_backgroundBlur_9002_104939"/>
<feBlend mode="normal" in="SourceGraphic" in2="effect1_backgroundBlur_9002_104939" result="shape"/>
</filter>
</defs>
</svg>
