<svg width="18" height="18" viewBox="0 0 18 18" fill="none" xmlns="http://www.w3.org/2000/svg">
<path d="M12.6226 11.73C13.1251 11.4 13.7851 11.76 13.7851 12.36V13.3275C13.7851 14.28 13.0426 15.3 12.1501 15.6L9.75759 16.395C9.33759 16.5375 8.65509 16.5375 8.24259 16.395L5.85009 15.6C4.95009 15.3 4.21509 14.28 4.21509 13.3275V12.3525C4.21509 11.76 4.87509 11.4 5.37009 11.7225L6.91509 12.7275C7.50759 13.125 8.25759 13.32 9.00759 13.32C9.75759 13.32 10.5076 13.125 11.1001 12.7275L12.6226 11.73Z" fill="#334155"/>
<path d="M14.9849 4.84498L10.4924 1.89748C9.68239 1.36498 8.34739 1.36498 7.53739 1.89748L3.02239 4.84498C1.57489 5.78248 1.57489 7.90498 3.02239 8.84998L4.22239 9.62998L7.53739 11.79C8.34739 12.3225 9.68239 12.3225 10.4924 11.79L13.7849 9.62998L14.8124 8.95498V11.25C14.8124 11.5575 15.0674 11.8125 15.3749 11.8125C15.6824 11.8125 15.9374 11.5575 15.9374 11.25V7.55998C16.2374 6.59248 15.9299 5.46748 14.9849 4.84498Z" fill="#334155"/>
</svg>
