<svg width="16" height="32" viewBox="0 0 16 32" fill="none" xmlns="http://www.w3.org/2000/svg">
    <path d="M13.3333 18.0371V5.33331C13.3333 2.38781 10.9455 0 8 0C5.0545 0 2.66669 2.38781 2.66669 5.33331V18.037C1.03 19.5019 0 21.6307 0 24C0 28.4183 3.58175 32 8 32C12.4183 32 16 28.4183 16 24C16 21.6307 14.97 19.5019 13.3333 18.0371ZM8 29.3333C5.0545 29.3333 2.66669 26.9455 2.66669 24C2.66669 22.4602 3.31925 21.0317 4.44512 20.0241L5.33337 19.2291V5.33331C5.33337 3.86056 6.52731 2.66663 8.00006 2.66663C9.47281 2.66663 10.6667 3.8605 10.6667 5.33331V19.2291L11.555 20.0241C12.6809 21.0317 13.3334 22.4601 13.3334 24C13.3333 26.9455 10.9455 29.3333 8 29.3333Z" fill="white"/>
    <path d="M9.33368 10.6641H6.66699V26.6641H9.33368V10.6641Z" fill="white"/>
    <path d="M8 28C10.2091 28 12 26.2091 12 24C12 21.7909 10.2091 20 8 20C5.79086 20 4 21.7909 4 24C4 26.2091 5.79086 28 8 28Z" fill="white"/>
</svg>
