<svg width="14" height="19" viewBox="0 0 14 19" fill="none" xmlns="http://www.w3.org/2000/svg">
    <path d="M10.1996 8.494C10.1996 8.494 6.59961 12.394 6.59961 14.794C6.59304 15.2733 6.68095 15.7493 6.85831 16.1946C7.03568 16.64 7.29902 17.046 7.63331 17.3896C8.30845 18.0835 9.23157 18.4807 10.1996 18.494C11.1677 18.5073 12.1013 18.1354 12.7952 17.4603C13.1388 17.126 13.4131 16.7273 13.6026 16.287C13.7921 15.8467 13.893 15.3733 13.8996 14.894V14.794C13.8996 12.394 10.1996 8.494 10.1996 8.494ZM8.72961 7.137L9.39861 6.413L7.09961 0H5.09961L0.0996094 14H2.09961L3.52961 10H6.47261C7.15129 8.99091 7.90439 8.03392 8.72561 7.137H8.72961ZM6.09961 2.8L7.95961 8H4.24361L6.09961 2.8Z" fill="#00171F"/>
</svg>
