<svg width="19" height="18" viewBox="0 0 19 18" fill="none" xmlns="http://www.w3.org/2000/svg">
    <path d="M14.8884 2.87191C13.3904 1.11445 11.1601 0 8.66961 0C4.15766 0 0.5 3.65766 0.5 8.16961C0.5 12.6816 4.15766 16.3392 8.66961 16.3392C10.5547 16.3392 12.2911 15.7008 13.6734 14.6278V12.1412C12.5016 13.6146 10.6939 14.5607 8.66961 14.5607C5.19083 14.5607 2.27855 11.6485 2.27855 8.16961C2.27855 4.69037 5.19051 1.7782 8.66961 1.7782C10.7604 1.7782 12.6201 2.78719 13.7863 4.34426C13.9698 3.73359 14.366 3.21398 14.8884 2.87191Z" fill="#989898" fill-opacity="0.6"/>
    <path d="M8.66992 8.69727C8.96117 8.69727 9.19727 8.46117 9.19727 8.16992C9.19727 7.87868 8.96117 7.64258 8.66992 7.64258C8.37868 7.64258 8.14258 7.87868 8.14258 8.16992C8.14258 8.46117 8.37868 8.69727 8.66992 8.69727Z" fill="#989898" fill-opacity="0.6"/>
    <path d="M8.6702 2.90625C5.80749 2.90625 3.40625 5.30837 3.40625 8.17055C3.40625 11.0321 5.80943 13.4345 8.6702 13.4345C11.0018 13.4345 12.9846 11.9105 13.674 9.80637V6.53473C12.9846 4.43027 11.0018 2.90625 8.6702 2.90625ZM10.0466 10.911L9.01754 9.71391C8.90574 9.73922 8.78938 9.75258 8.6702 9.75258C7.82444 9.75258 7.08816 9.01904 7.08816 8.17055C7.08816 7.50701 7.51974 6.89916 8.14285 6.67887V4.22109H9.19754V6.67887C9.81137 6.89648 10.2522 7.48289 10.2522 8.17055C10.2522 8.53652 10.1271 8.87437 9.91719 9.14262L10.8464 10.2233L10.0466 10.911Z" fill="#989898" fill-opacity="0.6"/>
    <path d="M14.7285 14.8798L17.9791 14.8795V6.79883H14.7285V14.8798Z" fill="#989898" fill-opacity="0.6"/>
    <path d="M16.8212 16.9443V15.9336L15.8861 15.9339V16.9443H14.207V17.999H18.5003V16.9443H16.8212Z" fill="#989898" fill-opacity="0.6"/>
    <path d="M14.7285 5.74453H17.9791V5.11453C17.9791 4.40297 17.5192 3.79688 16.8811 3.5775V0H15.8264V3.5775C15.1794 3.79888 14.7285 4.42793 14.7285 5.11453V5.74453Z" fill="#989898" fill-opacity="0.6"/>
</svg>
