<svg width="100" height="100" viewBox="0 0 100 100" fill="none" xmlns="http://www.w3.org/2000/svg">
    <path d="M72.4549 65.2917L55.6216 50H44.3299L27.4966 65.2917C22.7882 69.5417 21.2466 76.0833 23.5382 82C25.8299 87.875 31.4132 91.6667 37.7049 91.6667H62.2466C68.5799 91.6667 74.1216 87.875 76.4132 82C78.7049 76.0833 77.1632 69.5417 72.4549 65.2917ZM57.5799 75.5833H42.4132C40.8299 75.5833 39.5799 74.2917 39.5799 72.75C39.5799 71.2083 40.8716 69.9167 42.4132 69.9167H57.5799C59.1632 69.9167 60.4132 71.2083 60.4132 72.75C60.4132 74.2917 59.1216 75.5833 57.5799 75.5833Z" fill="#295DE1"/>
    <path d="M76.4545 18.0065C74.1629 12.1315 68.5795 8.33984 62.2879 8.33984H37.7045C31.4129 8.33984 25.8295 12.1315 23.5379 18.0065C21.2879 23.9232 22.8295 30.4648 27.5379 34.7148L44.3712 50.0065H55.6629L72.4962 34.7148C77.1629 30.4648 78.7045 23.9232 76.4545 18.0065ZM57.5795 30.1315H42.4129C40.8295 30.1315 39.5795 28.8398 39.5795 27.2982C39.5795 25.7565 40.8712 24.4648 42.4129 24.4648H57.5795C59.1629 24.4648 60.4129 25.7565 60.4129 27.2982C60.4129 28.8398 59.1212 30.1315 57.5795 30.1315Z" fill="#295DE1"/>
</svg>
