<svg width="28" height="28" viewBox="0 0 28 28" fill="none" xmlns="http://www.w3.org/2000/svg">
    <path d="M14.0007 18.0781C16.579 18.0781 18.6673 15.9898 18.6673 13.4115V6.99479C18.6673 4.41646 16.579 2.32812 14.0007 2.32812C11.4223 2.32812 9.33398 4.41646 9.33398 6.99479V13.4115C9.33398 15.9898 11.4223 18.0781 14.0007 18.0781Z" stroke="white" stroke-width="1.66129" stroke-linecap="round" stroke-linejoin="round"/>
    <path d="M5.07422 11.2578V13.2411C5.07422 18.1645 9.07589 22.1661 13.9992 22.1661C18.9226 22.1661 22.9242 18.1645 22.9242 13.2411V11.2578" stroke="white" stroke-width="1.66129" stroke-linecap="round" stroke-linejoin="round"/>
    <path d="M12.3789 7.50359C13.4289 7.11859 14.5722 7.11859 15.6222 7.50359" stroke="white" stroke-width="1.66129" stroke-linecap="round" stroke-linejoin="round"/>
    <path d="M13.0664 9.97797C13.6847 9.81464 14.3264 9.81464 14.9447 9.97797" stroke="white" stroke-width="1.66129" stroke-linecap="round" stroke-linejoin="round"/>
    <path d="M14 22.168V25.668" stroke="white" stroke-width="1.66129" stroke-linecap="round" stroke-linejoin="round"/>
</svg>
