<svg width="18" height="18" viewBox="0 0 18 18" fill="none" xmlns="http://www.w3.org/2000/svg">
    <path d="M13.1468 5.8275C13.0943 5.82 13.0418 5.82 12.9893 5.8275C11.8268 5.79 10.9043 4.8375 10.9043 3.6675C10.9043 2.475 11.8718 1.5 13.0718 1.5C14.2643 1.5 15.2393 2.4675 15.2393 3.6675C15.2318 4.8375 14.3093 5.79 13.1468 5.8275Z" fill="#989898" fill-opacity="0.6"/>
    <path d="M15.5917 11.0253C14.7517 11.5878 13.5742 11.7978 12.4867 11.6553C12.7717 11.0403 12.9217 10.3578 12.9292 9.6378C12.9292 8.8878 12.7642 8.1753 12.4492 7.5528C13.5592 7.4028 14.7367 7.6128 15.5842 8.1753C16.7692 8.9553 16.7692 10.2378 15.5917 11.0253Z" fill="#989898" fill-opacity="0.6"/>
    <path d="M4.83109 5.8275C4.88359 5.82 4.93609 5.82 4.98859 5.8275C6.15109 5.79 7.07359 4.8375 7.07359 3.6675C7.07359 2.4675 6.10609 1.5 4.90609 1.5C3.71359 1.5 2.74609 2.4675 2.74609 3.6675C2.74609 4.8375 3.66859 5.79 4.83109 5.8275Z" fill="#989898" fill-opacity="0.6"/>
    <path d="M4.91234 9.63794C4.91234 10.3654 5.06984 11.0554 5.35484 11.6779C4.29734 11.7904 3.19484 11.5654 2.38484 11.0329C1.19984 10.2454 1.19984 8.96294 2.38484 8.17544C3.18734 7.63544 4.31984 7.41794 5.38484 7.53794C5.07734 8.16794 4.91234 8.88044 4.91234 9.63794Z" fill="#989898" fill-opacity="0.6"/>
    <path d="M9.09156 11.9025C9.03156 11.895 8.96406 11.895 8.89656 11.9025C7.51656 11.8575 6.41406 10.725 6.41406 9.33C6.42156 7.905 7.56906 6.75 9.00156 6.75C10.4266 6.75 11.5816 7.905 11.5816 9.33C11.5741 10.725 10.4791 11.8575 9.09156 11.9025Z" fill="#989898" fill-opacity="0.6"/>
    <path d="M6.65406 13.4555C5.52156 14.213 5.52156 15.458 6.65406 16.208C7.94406 17.0705 10.0591 17.0705 11.3491 16.208C12.4816 15.4505 12.4816 14.2055 11.3491 13.4555C10.0666 12.593 7.95156 12.593 6.65406 13.4555Z" fill="#989898" fill-opacity="0.6"/>
</svg>
