<svg width="24" height="25" viewBox="0 0 24 25" fill="none" xmlns="http://www.w3.org/2000/svg">
    <path d="M8.29004 6.79C7.87004 6.79 7.54004 6.45 7.54004 6.04V3.25C7.54004 2.84 7.87004 2.5 8.29004 2.5C8.71004 2.5 9.04004 2.84 9.04004 3.25V6.03C9.04004 6.45 8.71004 6.79 8.29004 6.79Z" fill="#295DE1"/>
    <path d="M15.71 6.79C15.29 6.79 14.96 6.45 14.96 6.04V3.25C14.96 2.83 15.3 2.5 15.71 2.5C16.13 2.5 16.46 2.84 16.46 3.25V6.03C16.46 6.45 16.13 6.79 15.71 6.79Z" fill="#295DE1"/>
    <path d="M21.5004 16.3197C21.5004 16.4697 21.4504 16.6197 21.3204 16.7497C19.8704 18.2097 17.2904 20.8097 15.8104 22.2997C15.6804 22.4397 15.5104 22.4997 15.3404 22.4997C15.0104 22.4997 14.6904 22.2397 14.6904 21.8597V18.3597C14.6904 16.8997 15.9304 15.6897 17.4504 15.6897C18.4004 15.6797 19.7204 15.6797 20.8504 15.6797C21.2404 15.6797 21.5004 15.9897 21.5004 16.3197Z" fill="#295DE1"/>
    <path d="M21.5004 16.3197C21.5004 16.4697 21.4504 16.6197 21.3204 16.7497C19.8704 18.2097 17.2904 20.8097 15.8104 22.2997C15.6804 22.4397 15.5104 22.4997 15.3404 22.4997C15.0104 22.4997 14.6904 22.2397 14.6904 21.8597V18.3597C14.6904 16.8997 15.9304 15.6897 17.4504 15.6897C18.4004 15.6797 19.7204 15.6797 20.8504 15.6797C21.2404 15.6797 21.5004 15.9897 21.5004 16.3197Z" fill="#295DE1"/>
    <path d="M19.57 5C18.91 4.51 17.96 4.98 17.96 5.81V5.91C17.96 7.08 17.12 8.16 15.95 8.28C14.6 8.42 13.46 7.36 13.46 6.04V5C13.46 4.45 13.01 4 12.46 4H11.54C10.99 4 10.54 4.45 10.54 5V5.91C10.54 6.79 10.07 7.61 9.34 8.01C9.3 8.04 9.26 8.06 9.22 8.08C9.21 8.08 9.21 8.09 9.2 8.09C9.13 8.12 9.06 8.15 8.98 8.18C8.96 8.19 8.94 8.19 8.92 8.2C8.8 8.24 8.67 8.27 8.53 8.28H8.52C8.37 8.3 8.21 8.3 8.06 8.28H8.05C7.91 8.27 7.78 8.24 7.66 8.2C7.56 8.17 7.46 8.13 7.36 8.08C6.58 7.73 6.04 6.95 6.04 6.04V5.81C6.04 5.04 5.22 4.58 4.57 4.91C4.56 4.92 4.55 4.92 4.54 4.93H4.53C4.46 4.98 4.4 5.03 4.33 5.08C4.22 5.17 4.11 5.26 4.01 5.36C3.94 5.43 3.87 5.5 3.81 5.57C3.73 5.65 3.66 5.73 3.59 5.82C3.54 5.88 3.48 5.94 3.44 6.01C3.39 6.07 3.35 6.14 3.31 6.2C3.3 6.21 3.29 6.22 3.28 6.24C3.19 6.37 3.11 6.52 3.04 6.66C3.02 6.68 3.01 6.69 3.01 6.71C2.95 6.83 2.89 6.95 2.85 7.08C2.82 7.13 2.81 7.17 2.79 7.22C2.77 7.26 2.76 7.31 2.74 7.35C2.71 7.45 2.68 7.56 2.65 7.67C2.61 7.81 2.58 7.96 2.56 8.11C2.54 8.22 2.53 8.33 2.52 8.45C2.51 8.59 2.5 8.73 2.5 8.87V17.63C2.5 20.32 4.68 22.5 7.37 22.5H12.19C12.74 22.5 13.19 22.05 13.19 21.5V18.36C13.19 16.06 15.1 14.19 17.45 14.19C17.98 14.18 19.27 14.18 20.5 14.18C21.05 14.18 21.5 13.73 21.5 13.18V8.87C21.5 7.28 20.74 5.89 19.57 5ZM11.13 16.41C11.04 16.71 10.76 16.92 10.43 16.92H6.79C6.74 16.92 6.7 16.92 6.66 16.9C6.3 16.85 6.04 16.54 6.04 16.17C6.04 15.75 6.37 15.41 6.79 15.41H10.43C10.84 15.41 11.18 15.75 11.18 16.17C11.18 16.25 11.17 16.34 11.13 16.41ZM13.91 12.7C13.82 13 13.54 13.21 13.21 13.21H6.79C6.74 13.21 6.7 13.21 6.66 13.19C6.3 13.14 6.04 12.83 6.04 12.46C6.04 12.04 6.37 11.7 6.79 11.7H13.21C13.63 11.7 13.96 12.04 13.96 12.46C13.96 12.54 13.95 12.63 13.91 12.7Z" fill="#295DE1"/>
</svg>
