<svg width="32" height="29" viewBox="0 0 32 29" fill="none" xmlns="http://www.w3.org/2000/svg">
    <path d="M31.176 7.51533C30.6597 5.49055 29.5592 3.74462 27.9935 2.46628C26.4682 1.22104 24.5998 0.535156 22.7323 0.535156C21.3004 0.535156 19.9348 0.920671 18.673 1.68082C17.6766 2.28132 16.7802 3.098 15.9974 4.11737C14.2167 1.79647 11.8657 0.535156 9.26553 0.535156C7.39875 0.535156 5.53101 1.22104 4.00598 2.46628C2.44075 3.74462 1.34049 5.49032 0.824186 7.5151C0.445531 9.00015 0.273114 11.0843 1.02025 13.5909H5.71194L7.40608 10.2023C7.56005 9.89464 7.87437 9.70023 8.21826 9.70023C8.56238 9.70023 8.87671 9.89464 9.03044 10.2023L12.1089 16.359L15.1873 10.2023C15.3411 9.89464 15.6554 9.70023 15.9995 9.70023C16.3434 9.70023 16.6577 9.89464 16.8117 10.2023L18.5058 13.5909H24.8313C25.333 13.5909 25.7393 13.9974 25.7393 14.4988C25.7393 15.0005 25.333 15.407 24.8313 15.407H17.9446C17.6007 15.407 17.2864 15.2126 17.1324 14.9049L15.9995 12.6389L12.9211 18.7955C12.7671 19.1032 12.4528 19.2974 12.1089 19.2974C11.7648 19.2974 11.4504 19.1032 11.2967 18.7955L8.21849 12.6389L7.08537 14.9051C6.9314 15.2126 6.61707 15.407 6.27318 15.407H1.70046C2.00391 16.0801 2.37476 16.7769 2.82508 17.4947C5.2971 21.4371 9.5827 25.0901 15.5622 28.3518C15.6977 28.4258 15.8474 28.4627 15.9971 28.4627C16.1468 28.4627 16.2963 28.4258 16.4318 28.352C22.4132 25.0898 26.7 21.4371 29.1732 17.495C31.8453 13.2354 31.7372 9.71702 31.176 7.51533Z" fill="#00171F"/>
</svg>
