<svg width="18" height="16" viewBox="0 0 18 16" fill="none" xmlns="http://www.w3.org/2000/svg">
    <path d="M8.24406 2.67975V13.5817C8.24406 14.2774 7.4953 14.6201 7.06157 14.1325L4.49374 11.246H1.54815C1.16559 11.246 0.855469 10.8973 0.855469 10.4672V5.79439C0.855469 5.36427 1.16559 5.01559 1.54815 5.01559H4.49374L7.0616 2.12905C7.49481 1.64197 8.24406 1.98335 8.24406 2.67975ZM13.4985 0.152685C13.0634 -0.146536 12.4949 0.00753622 12.2287 0.496783C11.9626 0.98603 12.0996 1.6252 12.5348 1.92442C14.3906 3.20044 15.6326 5.50179 15.6326 8.13078C15.6326 10.5136 14.5914 12.7481 12.8473 14.1082C12.4282 14.4351 12.3241 15.0821 12.6148 15.5533C12.9056 16.0247 13.4811 16.1415 13.9 15.8148C16.1416 14.0667 17.4798 11.1942 17.4798 8.13078C17.4798 4.78053 15.9046 1.80704 13.4985 0.152685ZM14.7091 8.13078C14.7091 5.90644 13.6657 3.91953 12.055 2.81221C11.6199 2.51302 11.0514 2.66713 10.7853 3.15641C10.5192 3.64569 10.6563 4.28482 11.0914 4.58401C12.2 5.34619 12.8619 6.67209 12.8619 8.13078C12.8619 9.49251 12.2668 10.7696 11.27 11.547C10.8509 11.8738 10.7468 12.5208 11.0375 12.992C11.2169 13.2828 11.5046 13.4387 11.7972 13.4387C11.9851 13.4388 12.1685 13.3741 12.3227 13.2535C13.817 12.0881 14.7091 10.1731 14.7091 8.13078ZM11.9384 8.13078C11.9384 7.03667 11.4423 6.04263 10.6115 5.47171C10.1763 5.17271 9.60786 5.32688 9.34184 5.8162C9.07582 6.30551 9.213 6.94464 9.64821 7.24373C9.92563 7.43434 10.0912 7.76595 10.0912 8.13078C10.0911 8.29879 10.0548 8.46427 9.98546 8.61308C9.91609 8.76188 9.81569 8.88958 9.69286 8.98525C9.27367 9.31199 9.16942 9.95894 9.46003 10.4302C9.75067 10.9016 10.3261 11.0188 10.7452 10.692C11.4923 10.1097 11.9384 9.15224 11.9384 8.13078Z" fill="#00171F"/>
</svg>
