<svg width="31" height="30" viewBox="0 0 31 30" fill="none" xmlns="http://www.w3.org/2000/svg">
    <path d="M24.1644 20.9417C23.9644 20.9417 23.7769 20.8792 23.6019 20.7542C23.1894 20.4417 23.1019 19.8542 23.4144 19.4417C25.3769 16.8292 25.3769 13.1792 23.4144 10.5667C23.1019 10.1542 23.1894 9.56675 23.6019 9.25425C24.0144 8.94175 24.6019 9.02925 24.9144 9.44175C27.3769 12.7167 27.3769 17.2917 24.9144 20.5667C24.7394 20.8167 24.4519 20.9417 24.1644 20.9417Z" fill="#295DE1"/>
    <path d="M19.1891 4.72612C17.7891 3.95112 16.0016 4.15112 14.1766 5.28862L10.5266 7.57612C10.2766 7.72612 9.98906 7.81362 9.70156 7.81362H8.53906H7.91406C4.88906 7.81362 3.22656 9.47612 3.22656 12.5011V17.5011C3.22656 20.5261 4.88906 22.1886 7.91406 22.1886H8.53906H9.70156C9.98906 22.1886 10.2766 22.2761 10.5266 22.4261L14.1766 24.7136C15.2766 25.4011 16.3516 25.7386 17.3516 25.7386C18.0016 25.7386 18.6266 25.5886 19.1891 25.2761C20.5766 24.5011 21.3516 22.8886 21.3516 20.7386V9.26362C21.3516 7.11362 20.5766 5.50112 19.1891 4.72612Z" fill="#295DE1"/>
</svg>
