<svg width="34" height="35" viewBox="0 0 34 35" fill="none" xmlns="http://www.w3.org/2000/svg">
    <path d="M11.7441 9.37828C11.1491 9.37828 10.6816 8.89661 10.6816 8.31578V4.36328C10.6816 3.78245 11.1491 3.30078 11.7441 3.30078C12.3391 3.30078 12.8066 3.78245 12.8066 4.36328V8.30161C12.8066 8.89661 12.3391 9.37828 11.7441 9.37828Z" fill="#00171F"/>
    <path d="M22.2559 9.37828C21.6609 9.37828 21.1934 8.89661 21.1934 8.31578V4.36328C21.1934 3.76828 21.675 3.30078 22.2559 3.30078C22.8509 3.30078 23.3184 3.78245 23.3184 4.36328V8.30161C23.3184 8.89661 22.8509 9.37828 22.2559 9.37828Z" fill="#00171F"/>
    <path d="M27.7255 6.84245C26.7905 6.14828 25.4446 6.81411 25.4446 7.98995V8.13161C25.4446 9.78911 24.2546 11.3191 22.5971 11.4891C20.6846 11.6874 19.0696 10.1858 19.0696 8.31578V6.84245C19.0696 6.06328 18.4321 5.42578 17.653 5.42578H16.3496C15.5705 5.42578 14.933 6.06328 14.933 6.84245V8.31578C14.933 9.43495 14.3521 10.4266 13.4738 10.9791C13.3463 11.0641 13.2046 11.1349 13.063 11.2058C12.9355 11.2766 12.7938 11.3333 12.638 11.3758C12.468 11.4324 12.2838 11.4749 12.0855 11.4891C11.8588 11.5174 11.6321 11.5174 11.4055 11.4891C11.2071 11.4749 11.023 11.4324 10.853 11.3758C10.7113 11.3333 10.5696 11.2766 10.428 11.2058C10.2863 11.1349 10.1446 11.0641 10.0171 10.9791C9.12464 10.3558 8.55797 9.27911 8.55797 8.13161V7.98995C8.55797 6.89911 7.3963 6.24745 6.47547 6.71495C6.4613 6.72911 6.44714 6.72911 6.43297 6.74328C6.3763 6.77161 6.3338 6.79995 6.27714 6.84245C6.23464 6.88495 6.17797 6.91328 6.13547 6.95578C5.7388 7.26745 5.38464 7.62161 5.08714 8.00411C4.9313 8.17411 4.8038 8.35828 4.69047 8.54245C4.6763 8.55661 4.66214 8.57078 4.64797 8.59911C4.52047 8.78328 4.40714 8.99578 4.30797 9.19411C4.27964 9.22245 4.26547 9.23661 4.26547 9.26495C4.18047 9.43495 4.09547 9.60495 4.0388 9.78911C3.9963 9.85995 3.98214 9.91661 3.9538 9.98745C3.8688 10.1999 3.81214 10.4124 3.75547 10.6249C3.6988 10.8233 3.6563 11.0358 3.62797 11.2483C3.59964 11.4041 3.58547 11.5599 3.5713 11.7299C3.55714 11.9283 3.54297 12.1266 3.54297 12.3249V24.7349C3.54297 28.5458 6.6313 31.6341 10.4421 31.6341H23.5605C27.3713 31.6341 30.4596 28.5458 30.4596 24.7349V12.3249C30.4596 10.0724 29.383 8.10328 27.7255 6.84245ZM17.0013 23.4883H14.6071V25.9674C14.6071 26.5483 14.1255 27.0299 13.5446 27.0299C12.9496 27.0299 12.4821 26.5483 12.4821 25.9674V23.4883H9.91797C9.33714 23.4883 8.85547 23.0066 8.85547 22.4258C8.85547 21.8449 9.33714 21.3633 9.91797 21.3633H12.4821V18.8841C12.4821 18.3033 12.9496 17.8216 13.5446 17.8216C14.1255 17.8216 14.6071 18.3033 14.6071 18.8841V21.3633H17.0013C17.5821 21.3633 18.0638 21.8449 18.0638 22.4258C18.0638 23.0066 17.5821 23.4883 17.0013 23.4883Z" fill="#00171F"/>
</svg>
