<svg width="26" height="28" viewBox="0 0 26 28" fill="none" xmlns="http://www.w3.org/2000/svg">
    <rect opacity="0.2" x="7" y="8.24609" width="19" height="19" rx="5" fill="#295DE1"/>
    <path d="M8 2.75V5.75" stroke="#00171F" stroke-width="1.5" stroke-miterlimit="10" stroke-linecap="round" stroke-linejoin="round"/>
    <path d="M16 2.75V5.75" stroke="#00171F" stroke-width="1.5" stroke-miterlimit="10" stroke-linecap="round" stroke-linejoin="round"/>
    <path d="M3.5 9.83984H20.5" stroke="#033CCC" stroke-width="1.5" stroke-miterlimit="10" stroke-linecap="round" stroke-linejoin="round"/>
    <path d="M21 9.25V17.75C21 20.75 19.5 22.75 16 22.75H8C4.5 22.75 3 20.75 3 17.75V9.25C3 6.25 4.5 4.25 8 4.25H16C19.5 4.25 21 6.25 21 9.25Z" stroke="#00171F" stroke-width="1.5" stroke-miterlimit="10" stroke-linecap="round" stroke-linejoin="round"/>
    <path d="M15.6947 14.4492H15.7037" stroke="#033CCC" stroke-width="2" stroke-linecap="round" stroke-linejoin="round"/>
    <path d="M15.6947 17.4492H15.7037" stroke="#033CCC" stroke-width="2" stroke-linecap="round" stroke-linejoin="round"/>
    <path d="M11.9955 14.4492H12.0045" stroke="#033CCC" stroke-width="2" stroke-linecap="round" stroke-linejoin="round"/>
    <path d="M11.9955 17.4492H12.0045" stroke="#033CCC" stroke-width="2" stroke-linecap="round" stroke-linejoin="round"/>
    <path d="M8.29431 14.4492H8.30329" stroke="#033CCC" stroke-width="2" stroke-linecap="round" stroke-linejoin="round"/>
    <path d="M8.29492 17.4492H8.3039" stroke="#033CCC" stroke-width="2" stroke-linecap="round" stroke-linejoin="round"/>
</svg>
