<svg width="57" height="58" viewBox="0 0 57 58" fill="none" xmlns="http://www.w3.org/2000/svg">
    <path d="M3.51892 24.0741C3.96217 24.0741 4.38726 23.898 4.70068 23.5846C5.01411 23.2712 5.19019 22.8461 5.19019 22.4028V10.2494C5.19151 9.04063 5.67228 7.88174 6.52701 7.02701C7.38174 6.17228 8.54063 5.69151 9.7494 5.69019H21.9028C22.3461 5.69019 22.7712 5.51411 23.0846 5.20068C23.398 4.88726 23.5741 4.46217 23.5741 4.01892C23.5741 3.57567 23.398 3.15058 23.0846 2.83716C22.7712 2.52374 22.3461 2.34766 21.9028 2.34766H9.7494C7.6544 2.34987 5.64585 3.18308 4.16447 4.66447C2.68308 6.14585 1.84987 8.1544 1.84766 10.2494V22.4028C1.84766 22.8461 2.02374 23.2712 2.33716 23.5846C2.65058 23.898 3.07567 24.0741 3.51892 24.0741Z" fill="#00171F"/>
    <path d="M47.4263 2.34766H35.2728C34.8296 2.34766 34.4045 2.52374 34.0911 2.83716C33.7776 3.15058 33.6016 3.57567 33.6016 4.01892C33.6016 4.46217 33.7776 4.88726 34.0911 5.20068C34.4045 5.51411 34.8296 5.69019 35.2728 5.69019H47.4263C48.635 5.69151 49.7939 6.17228 50.6486 7.02701C51.5034 7.88174 51.9841 9.04063 51.9855 10.2494V22.4028C51.9855 22.8461 52.1616 23.2712 52.475 23.5846C52.7884 23.898 53.2135 24.0741 53.6567 24.0741C54.1 24.0741 54.5251 23.898 54.8385 23.5846C55.1519 23.2712 55.328 22.8461 55.328 22.4028V10.2494C55.3258 8.1544 54.4926 6.14585 53.0112 4.66447C51.5298 3.18308 49.5213 2.34987 47.4263 2.34766Z" fill="#00171F"/>
    <path d="M21.9028 52.4855H9.7494C8.54063 52.4841 7.38174 52.0034 6.52701 51.1486C5.67228 50.2939 5.19151 49.135 5.19019 47.9263V35.7728C5.19019 35.3296 5.01411 34.9045 4.70068 34.5911C4.38726 34.2776 3.96217 34.1016 3.51892 34.1016C3.07567 34.1016 2.65058 34.2776 2.33716 34.5911C2.02374 34.9045 1.84766 35.3296 1.84766 35.7728V47.9263C1.84987 50.0213 2.68308 52.0298 4.16447 53.5112C5.64585 54.9926 7.6544 55.8258 9.7494 55.828H21.9028C22.3461 55.828 22.7712 55.6519 23.0846 55.3385C23.398 55.0251 23.5741 54.6 23.5741 54.1567C23.5741 53.7135 23.398 53.2884 23.0846 52.975C22.7712 52.6616 22.3461 52.4855 21.9028 52.4855Z" fill="#00171F"/>
    <path d="M53.6567 34.1016C53.2135 34.1016 52.7884 34.2776 52.475 34.5911C52.1616 34.9045 51.9855 35.3296 51.9855 35.7728V47.9263C51.9841 49.135 51.5034 50.2939 50.6486 51.1486C49.7939 52.0034 48.635 52.4841 47.4263 52.4855H35.2728C34.8296 52.4855 34.4045 52.6616 34.0911 52.975C33.7776 53.2884 33.6016 53.7135 33.6016 54.1567C33.6016 54.6 33.7776 55.0251 34.0911 55.3385C34.4045 55.6519 34.8296 55.828 35.2728 55.828H47.4263C49.5213 55.8258 51.5298 54.9926 53.0112 53.5112C54.4926 52.0298 55.3258 50.0213 55.328 47.9263V35.7728C55.328 35.3296 55.1519 34.9045 54.8385 34.5911C54.5251 34.2776 54.1 34.1016 53.6567 34.1016Z" fill="#00171F"/>
    <path d="M28.5889 42.459C35.973 42.459 41.959 36.473 41.959 29.0889C41.959 21.7048 35.973 15.7188 28.5889 15.7188C21.2048 15.7188 15.2188 21.7048 15.2188 29.0889C15.2188 36.473 21.2048 42.459 28.5889 42.459Z" fill="#F74B4A"/>
</svg>
