<svg width="32" height="32" viewBox="0 0 32 32" fill="none" xmlns="http://www.w3.org/2000/svg">
<circle cx="16.0015" cy="16.1616" r="14.3999" fill="white"/>
<path d="M17.2031 22.435H18.2431C19.2831 22.435 20.1471 21.507 20.1471 20.387C20.1471 18.995 19.6511 18.723 18.8351 18.435L17.2191 17.875V22.435H17.2031Z" fill="#295DE1"/>
<path d="M15.952 2.68531e-05C7.12006 0.0320266 -0.0318928 7.21598 0.000106964 16.0479C0.0321067 24.8799 7.21606 32.0318 16.048 31.9998C24.8799 31.9678 32.0319 24.7839 31.9999 15.9519C31.9679 7.11998 24.7839 -0.015973 15.952 2.68531e-05ZM19.616 16.1599C20.864 16.5919 22.544 17.5199 22.544 20.3839C22.544 22.8479 20.608 24.8319 18.24 24.8319H17.2V25.7599C17.2 26.4159 16.656 26.9598 16 26.9598C15.344 26.9598 14.8 26.4159 14.8 25.7599V24.8319H14.224C11.6 24.8319 9.47204 22.6239 9.47204 19.9039C9.47204 19.2479 10.016 18.7039 10.672 18.7039C11.328 18.7039 11.872 19.2479 11.872 19.9039C11.872 21.2959 12.928 22.4319 14.224 22.4319H14.8V17.0239L12.384 16.1599C11.136 15.7279 9.45604 14.7999 9.45604 11.9359C9.45604 9.47196 11.392 7.48798 13.76 7.48798H14.8V6.55998C14.8 5.90399 15.344 5.35999 16 5.35999C16.656 5.35999 17.2 5.90399 17.2 6.55998V7.48798H17.776C20.4 7.48798 22.528 9.69596 22.528 12.4159C22.528 13.0719 21.984 13.6159 21.328 13.6159C20.672 13.6159 20.128 13.0719 20.128 12.4159C20.128 11.024 19.072 9.88796 17.776 9.88796H17.2V15.2959L19.616 16.1599Z" fill="#295DE1"/>
<path d="M11.875 11.9546C11.875 13.3466 12.371 13.6186 13.187 13.9066L14.803 14.4666V9.89062H13.763C12.723 9.89062 11.875 10.8186 11.875 11.9546Z" fill="#295DE1"/>
</svg>
