<svg width="87" height="16" viewBox="0 0 87 16" fill="none" xmlns="http://www.w3.org/2000/svg">
    <path fill-rule="evenodd" clip-rule="evenodd" d="M80.4247 1.12792C83.6054 1.12792 85.3547 2.54339 85.3547 5.21706C85.5138 7.26163 84.0825 8.99165 82.1741 9.3062L86.468 15.1254H83.1283L79.4705 9.46348H79.1524V15.1254H76.4489V1.12792H80.4247ZM79.1515 7.57722H79.9466C81.696 7.57722 82.4912 6.79085 82.4912 5.37538C82.4912 4.11718 81.696 3.33081 79.9466 3.33081H79.1515V7.57722ZM67.0663 15.1285H74.6999V12.7694H69.7698V8.99478H74.5408V6.63566H69.7698V3.49016H74.6999V1.13104H67.0663V15.1285ZM59.1149 10.5675L55.4571 1.13104H52.5945L58.4787 15.443H59.91L65.7943 1.13104H62.9317L59.1149 10.5675ZM26.8301 8.20691C26.8301 12.1388 30.0108 15.4415 33.9867 15.4415C35.2589 15.4415 36.3722 15.127 37.4854 14.6552V11.5097C36.6902 12.4533 35.577 13.0824 34.3047 13.0824C31.7602 13.0824 29.6927 11.1951 29.6927 8.67873V8.36418C29.5337 5.84778 31.6012 3.64594 34.1457 3.48866C35.418 3.48866 36.6902 4.11776 37.4854 5.06141V1.91592C36.5312 1.28682 35.2589 1.12954 34.1457 1.12954C30.0108 0.814994 26.8301 4.11776 26.8301 8.20691ZM21.9006 6.47651C20.3102 5.84741 19.8331 5.53286 19.8331 4.74649C19.9922 3.80284 20.7873 3.01647 21.7415 3.17374C22.5367 3.17374 23.3319 3.64557 23.968 4.27467L25.3993 2.38737C24.2861 1.44372 22.8548 0.814622 21.4235 0.814622C19.197 0.657347 17.2886 2.38737 17.1296 4.58922V4.74649C17.1296 6.63379 17.9247 7.73471 20.4693 8.52108C21.1054 8.67836 21.7415 8.99291 22.3777 9.30746C22.8548 9.62201 23.1728 10.0938 23.1728 10.7229C23.1728 11.8239 22.2186 12.7675 21.2644 12.7675H21.1054C19.8331 12.7675 18.7199 11.9811 18.2428 10.8802L16.4934 12.6102C17.4476 14.3402 19.356 15.2839 21.2644 15.2839C23.809 15.4412 25.8764 13.5539 26.0355 11.0375V10.5657C25.8764 8.67836 25.0813 7.73471 21.9006 6.47651ZM12.6773 15.1285H15.3809V1.13104H12.6773V15.1285ZM0.112305 1.12792H4.08814H4.88331C8.70012 1.28519 11.7218 4.43069 11.5627 8.20528C11.5627 10.2499 10.6085 12.1371 9.01819 13.5526C7.58688 14.6535 5.83751 15.2826 4.08814 15.1254H0.112305V1.12792ZM3.61009 12.7625C4.88236 12.9198 6.31366 12.448 7.26786 11.6616C8.22207 10.718 8.69917 9.45976 8.69917 8.04429C8.69917 6.78609 8.22207 5.5279 7.26786 4.58425C6.31366 3.79787 4.88236 3.32605 3.61009 3.48332H2.81492V12.7625H3.61009Z" fill="black"/>
    <path fill-rule="evenodd" clip-rule="evenodd" d="M45.5968 0.804688C41.621 0.804688 38.2812 3.95018 38.2812 8.03932C38.2812 11.9712 41.4619 15.274 45.5968 15.4312C49.7317 15.5885 52.9123 12.2857 53.0714 8.1966C52.9123 4.10746 49.7317 0.804688 45.5968 0.804688V0.804688Z" fill="#FD6020"/>
</svg>
