<svg width="26" height="27" viewBox="0 0 26 27" fill="none" xmlns="http://www.w3.org/2000/svg">
    <rect opacity="0.2" x="7" y="7.75" width="19" height="19" rx="5" fill="#295DE1"/>
    <path d="M15.0584 19.6455C14.4384 20.0655 13.6584 20.4155 12.7084 20.7255L11.1284 21.2455C7.15839 22.5255 5.06839 21.4555 3.77839 17.4855L2.49839 13.5355C1.21839 9.56547 2.27839 7.46547 6.24839 6.18547L7.82839 5.66547C8.23839 5.53547 8.62839 5.42547 8.99839 5.35547C8.69839 5.96547 8.45839 6.70547 8.25839 7.55547L7.27839 11.7455C6.29839 15.9255 7.58839 17.9855 11.7584 18.9755L13.4384 19.3755C14.0184 19.5155 14.5584 19.6055 15.0584 19.6455Z" stroke="#295DE1" stroke-width="1.5" stroke-linecap="round" stroke-linejoin="round"/>
    <path d="M12.6406 8.78516L17.4906 10.0152" stroke="#295DE1" stroke-width="1.5" stroke-linecap="round" stroke-linejoin="round"/>
    <path d="M11.6602 12.6523L14.5602 13.3923" stroke="#295DE1" stroke-width="1.5" stroke-linecap="round" stroke-linejoin="round"/>
    <path d="M21.6602 10.6924L20.6802 14.8724C19.8402 18.4824 18.1802 19.9424 15.0602 19.6424C14.5602 19.6024 14.0202 19.5124 13.4402 19.3724L11.7602 18.9724C7.59018 17.9824 6.30018 15.9224 7.28018 11.7424L8.26018 7.55245C8.46018 6.70245 8.70018 5.96245 9.00018 5.35245C10.1702 2.93245 12.1602 2.28245 15.5002 3.07245L17.1702 3.46245C21.3602 4.44245 22.6402 6.51245 21.6602 10.6924Z" stroke="#00171F" stroke-width="1.5" stroke-linecap="round" stroke-linejoin="round"/>
</svg>
