<svg width="48" height="48" viewBox="0 0 48 48" fill="none" xmlns="http://www.w3.org/2000/svg">
    <rect width="48" height="48" rx="24" fill="#F4F5FC"/>
    <path d="M24.0013 8.16797C15.2771 8.16797 8.16797 15.2771 8.16797 24.0013C8.16797 32.7255 15.2771 39.8346 24.0013 39.8346C32.7255 39.8346 39.8346 32.7255 39.8346 24.0013C39.8346 15.2771 32.7255 8.16797 24.0013 8.16797ZM22.8138 17.668C22.8138 17.0188 23.3521 16.4805 24.0013 16.4805C24.6505 16.4805 25.1888 17.0188 25.1888 17.668V25.5846C25.1888 26.2338 24.6505 26.7721 24.0013 26.7721C23.3521 26.7721 22.8138 26.2338 22.8138 25.5846V17.668ZM25.458 30.9363C25.3788 31.1421 25.268 31.3005 25.1255 31.4588C24.9671 31.6013 24.793 31.7121 24.603 31.7913C24.413 31.8705 24.2071 31.918 24.0013 31.918C23.7955 31.918 23.5896 31.8705 23.3996 31.7913C23.2096 31.7121 23.0355 31.6013 22.8771 31.4588C22.7346 31.3005 22.6238 31.1421 22.5446 30.9363C22.4655 30.7463 22.418 30.5405 22.418 30.3346C22.418 30.1288 22.4655 29.923 22.5446 29.733C22.6238 29.543 22.7346 29.3688 22.8771 29.2105C23.0355 29.068 23.2096 28.9571 23.3996 28.878C23.7796 28.7196 24.223 28.7196 24.603 28.878C24.793 28.9571 24.9671 29.068 25.1255 29.2105C25.268 29.3688 25.3788 29.543 25.458 29.733C25.5371 29.923 25.5846 30.1288 25.5846 30.3346C25.5846 30.5405 25.5371 30.7463 25.458 30.9363Z" fill="#F74B4A"/>
</svg>
