<svg width="26" height="28" viewBox="0 0 26 28" fill="none" xmlns="http://www.w3.org/2000/svg">
    <rect opacity="0.2" x="7" y="8.24609" width="19" height="19" rx="5" fill="#295DE1"/>
    <path d="M18.4698 17.58L18.8598 20.74C18.9598 21.57 18.0698 22.15 17.3598 21.72L13.1698 19.23C12.7098 19.23 12.2599 19.2 11.8199 19.14C12.5599 18.27 12.9998 17.17 12.9998 15.98C12.9998 13.14 10.5398 10.84 7.49985 10.84C6.33985 10.84 5.26985 11.17 4.37985 11.75C4.34985 11.5 4.33984 11.25 4.33984 10.99C4.33984 6.43999 8.28985 2.75 13.1698 2.75C18.0498 2.75 21.9998 6.43999 21.9998 10.99C21.9998 13.69 20.6098 16.08 18.4698 17.58Z" stroke="#295DE1" stroke-width="1.5" stroke-linecap="round" stroke-linejoin="round"/>
    <path d="M13 15.9798C13 17.1698 12.56 18.2698 11.82 19.1398C10.83 20.3398 9.26 21.1098 7.5 21.1098L4.89 22.6598C4.45 22.9298 3.89 22.5598 3.95 22.0498L4.2 20.0798C2.86 19.1498 2 17.6598 2 15.9798C2 14.2198 2.94 12.6698 4.38 11.7498C5.27 11.1698 6.34 10.8398 7.5 10.8398C10.54 10.8398 13 13.1398 13 15.9798Z" stroke="#00171F" stroke-width="1.5" stroke-linecap="round" stroke-linejoin="round"/>
</svg>
