<svg width="67" height="42" viewBox="0 0 67 42" fill="none" xmlns="http://www.w3.org/2000/svg">
    <path fill-rule="evenodd" clip-rule="evenodd" d="M33.8705 36.2238C30.3824 39.2338 25.8578 41.0509 20.9137 41.0509C9.88168 41.0509 0.938477 32.0039 0.938477 20.8438C0.938477 9.68374 9.88168 0.636719 20.9137 0.636719C25.8578 0.636719 30.3824 2.45381 33.8705 5.46385C37.3586 2.45381 41.8832 0.636719 46.8273 0.636719C57.8593 0.636719 66.8025 9.68374 66.8025 20.8438C66.8025 32.0039 57.8593 41.0509 46.8273 41.0509C41.8832 41.0509 37.3586 39.2338 33.8705 36.2238Z" fill="#ED0006"/>
    <path fill-rule="evenodd" clip-rule="evenodd" d="M33.8701 36.2238C38.1651 32.5174 40.8885 27.0023 40.8885 20.8438C40.8885 14.6853 38.1651 9.17021 33.8701 5.46385C37.3582 2.45381 41.8828 0.636719 46.8269 0.636719C57.8589 0.636719 66.8021 9.68374 66.8021 20.8438C66.8021 32.0039 57.8589 41.0509 46.8269 41.0509C41.8828 41.0509 37.3582 39.2338 33.8701 36.2238Z" fill="#F9A000"/>
    <path fill-rule="evenodd" clip-rule="evenodd" d="M33.8709 36.2247C38.1659 32.5184 40.8893 27.0033 40.8893 20.8448C40.8893 14.6863 38.1659 9.1712 33.8709 5.46484C29.576 9.1712 26.8525 14.6863 26.8525 20.8448C26.8525 27.0033 29.576 32.5184 33.8709 36.2247Z" fill="#FF5E00"/>
</svg>
