<svg width="48" height="48" viewBox="0 0 48 48" fill="none" xmlns="http://www.w3.org/2000/svg">
    <rect width="48" height="48" rx="24" fill="#F4F5FC"/>
    <path d="M24.0013 8.16797C15.2771 8.16797 8.16797 15.2771 8.16797 24.0013C8.16797 32.7255 15.2771 39.8346 24.0013 39.8346C32.7255 39.8346 39.8346 32.7255 39.8346 24.0013C39.8346 15.2771 32.7255 8.16797 24.0013 8.16797ZM31.5696 20.3596L22.5921 29.3371C22.3705 29.5588 22.0696 29.6855 21.753 29.6855C21.4363 29.6855 21.1355 29.5588 20.9138 29.3371L16.433 24.8563C15.9738 24.3971 15.9738 23.6371 16.433 23.178C16.8921 22.7188 17.6521 22.7188 18.1113 23.178L21.753 26.8196L29.8913 18.6813C30.3505 18.2221 31.1105 18.2221 31.5696 18.6813C32.0288 19.1405 32.0288 19.8846 31.5696 20.3596Z" fill="#61D215"/>
</svg>
