<svg width="59" height="52" viewBox="0 0 59 52" fill="none" xmlns="http://www.w3.org/2000/svg">
    <path fill-rule="evenodd" clip-rule="evenodd" d="M7.34682 35.6094H2.79307C2.48146 35.6094 2.21643 35.8359 2.16783 36.1434L0.326066 47.8205C0.289459 48.051 0.467903 48.2587 0.701625 48.2587H2.87563C3.18725 48.2587 3.45227 48.0322 3.50087 47.7241L3.99761 44.5746C4.04553 44.2662 4.31121 44.04 4.62218 44.04H6.06374C9.06345 44.04 10.7946 42.5884 11.2469 39.7119C11.4506 38.4535 11.2555 37.4647 10.6661 36.772C10.019 36.0118 8.87087 35.6094 7.34682 35.6094ZM7.87219 39.8743C7.62322 41.5084 6.37471 41.5084 5.16752 41.5084H4.48034L4.96242 38.4566C4.99105 38.2723 5.15085 38.1364 5.3373 38.1364H5.65225C6.47458 38.1364 7.25037 38.1364 7.65126 38.6051C7.89007 38.8849 7.9634 39.3002 7.87219 39.8743ZM20.9591 39.8219H18.7784C18.5926 39.8219 18.4321 39.9578 18.4034 40.1424L18.307 40.7522L18.1544 40.5312C17.6824 39.846 16.6298 39.617 15.579 39.617C13.1691 39.617 11.111 41.4421 10.7101 44.0024C10.5018 45.2793 10.798 46.5005 11.5224 47.3522C12.187 48.1352 13.138 48.4615 14.2691 48.4615C16.2107 48.4615 17.2876 47.2129 17.2876 47.2129L17.1903 47.819C17.1536 48.0507 17.332 48.2584 17.5643 48.2584H19.5287C19.8412 48.2584 20.1046 48.0319 20.1539 47.7238L21.3326 40.2601C21.3698 40.0305 21.192 39.8219 20.9591 39.8219ZM17.9193 44.0662C17.7089 45.312 16.72 46.1483 15.4591 46.1483C14.8259 46.1483 14.3197 45.9452 13.9949 45.5604C13.6726 45.1783 13.5499 44.6341 13.6525 44.0283C13.8491 42.793 14.8546 41.9296 16.0964 41.9296C16.7154 41.9296 17.2189 42.1351 17.5505 42.5234C17.8826 42.9156 18.0145 43.4629 17.9193 44.0662ZM30.3816 39.8216H32.5731C32.88 39.8216 33.059 40.1658 32.8846 40.4175L25.5962 50.938C25.4782 51.1084 25.2838 51.2097 25.0761 51.2097H22.8874C22.5793 51.2097 22.3993 50.8628 22.5777 50.6104L24.8472 47.407L22.4335 40.3236C22.35 40.0774 22.5318 39.8216 22.7937 39.8216H24.947C25.2268 39.8216 25.4736 40.0053 25.5543 40.273L26.8353 44.5512L29.8578 40.0992C29.9761 39.9255 30.1727 39.8216 30.3816 39.8216Z" fill="#253B80"/>
    <path fill-rule="evenodd" clip-rule="evenodd" d="M54.1411 47.8212L56.01 35.9305C56.0386 35.7459 56.1985 35.61 56.3843 35.6094H58.4883C58.7206 35.6094 58.899 35.8177 58.8624 36.0482L57.0194 47.7247C56.9713 48.0329 56.7063 48.2593 56.3942 48.2593H54.5152C54.2828 48.2593 54.1044 48.0516 54.1411 47.8212ZM39.8284 35.61H35.2739C34.9629 35.61 34.6979 35.8365 34.6493 36.144L32.8075 47.8212C32.7709 48.0516 32.9493 48.2593 33.1819 48.2593H35.5188C35.7361 48.2593 35.9219 48.101 35.9558 47.8853L36.4784 44.5752C36.5264 44.2668 36.792 44.0406 37.103 44.0406H38.5438C41.5441 44.0406 43.275 42.589 43.7276 39.7125C43.9319 38.4541 43.7356 37.4653 43.1465 36.7726C42.4997 36.0124 41.3525 35.61 39.8284 35.61ZM40.3538 39.8749C40.1054 41.509 38.8569 41.509 37.649 41.509H36.9624L37.4453 38.4572C37.474 38.2729 37.6323 38.137 37.8194 38.137H38.1343C38.9561 38.137 39.7326 38.137 40.1332 38.6057C40.3723 38.8855 40.445 39.3009 40.3538 39.8749ZM53.4395 39.8225H51.2603C51.073 39.8225 50.914 39.9584 50.8859 40.143L50.7895 40.7528L50.6363 40.5319C50.1643 39.8466 49.1123 39.6176 48.0616 39.6176C45.6516 39.6176 43.5942 41.4427 43.1933 44.003C42.9856 45.28 43.2805 46.5011 44.0049 47.3528C44.6708 48.1358 45.6205 48.4621 46.7517 48.4621C48.6932 48.4621 49.7699 47.2135 49.7699 47.2135L49.6728 47.8196C49.6361 48.0513 49.8145 48.259 50.0484 48.259H52.0119C52.3228 48.259 52.5878 48.0325 52.6365 47.7244L53.8157 40.2607C53.8518 40.0311 53.6733 39.8225 53.4395 39.8225ZM50.4 44.0668C50.1908 45.3126 49.2007 46.1489 47.9395 46.1489C47.3075 46.1489 46.8003 45.9458 46.4753 45.561C46.1529 45.1789 46.0318 44.6347 46.1332 44.0289C46.3307 42.7936 47.335 41.9302 48.5768 41.9302C49.1961 41.9302 49.6993 42.1357 50.0312 42.524C50.3646 42.9162 50.4965 43.4635 50.4 44.0668Z" fill="#179BD7"/>
    <path d="M24.1995 31.4358L24.7594 27.8799L23.5124 27.8509H17.5576L21.6959 1.61109C21.7085 1.53187 21.7504 1.45801 21.8115 1.40557C21.8725 1.35312 21.9507 1.32422 22.0321 1.32422H32.0727C35.4062 1.32422 37.7064 2.01787 38.9075 3.38695C39.4705 4.02923 39.8292 4.70039 40.0026 5.43899C40.1844 6.21402 40.1878 7.13994 40.01 8.26926L39.9971 8.35169V9.07529L40.5604 9.3943C41.0346 9.64583 41.4111 9.93379 41.7002 10.2635C42.1821 10.8126 42.4936 11.5106 42.6252 12.338C42.7611 13.189 42.7161 14.2016 42.4936 15.3481C42.2366 16.6669 41.8213 17.8155 41.2605 18.7553C40.7443 19.6213 40.0871 20.3394 39.3069 20.8962C38.5618 21.425 37.6765 21.8265 36.6757 22.0835C35.7057 22.3358 34.6001 22.4634 33.3872 22.4634H32.6058C32.0472 22.4634 31.5042 22.6646 31.0784 23.0255C30.6513 23.3937 30.3684 23.8966 30.2818 24.4469L30.223 24.767L29.2339 31.0343L29.1889 31.2644C29.1772 31.3375 29.1568 31.3738 29.1269 31.3985C29.1001 31.4207 29.0616 31.4358 29.024 31.4358H24.1995Z" fill="#253B80"/>
    <path d="M41.0942 8.42969C41.0643 8.62129 41.0301 8.81717 40.9916 9.01841C39.6672 15.8168 35.1373 18.1654 29.3514 18.1654H26.4056C25.6981 18.1654 25.1019 18.6792 24.9916 19.3771L23.4832 28.9427L23.0562 31.654C22.9844 32.1122 23.3378 32.5254 23.8 32.5254H29.0251C29.6438 32.5254 30.1692 32.0758 30.2666 31.4657L30.318 31.2001L31.3019 24.9572L31.3651 24.6149C31.4612 24.0026 31.9878 23.5531 32.6066 23.5531H33.388C38.4501 23.5531 42.413 21.4978 43.5713 15.5503C44.0551 13.0658 43.8046 10.9913 42.5243 9.53223C42.137 9.09227 41.6563 8.72726 41.0942 8.42969Z" fill="#179BD7"/>
    <path d="M39.7078 7.88152C39.5057 7.82264 39.2967 7.76911 39.0826 7.72095C38.8675 7.67387 38.6469 7.63211 38.4201 7.59572C37.6257 7.46726 36.7555 7.40625 35.8231 7.40625H27.9533C27.7595 7.40625 27.5755 7.45013 27.4107 7.52935C27.0477 7.70382 26.778 8.04745 26.7127 8.46812L25.0383 19.072L24.9902 19.3813C25.1005 18.6834 25.6968 18.1695 26.4043 18.1695H29.3501C35.136 18.1695 39.6662 15.8199 40.9903 9.02261C41.0297 8.82137 41.063 8.62549 41.0929 8.43389C40.7579 8.25618 40.3949 8.10418 40.0042 7.97464C39.9081 7.94253 39.8086 7.9115 39.7078 7.88152Z" fill="#222D65"/>
    <path d="M26.712 8.46791C26.7773 8.04721 27.0473 7.70361 27.4099 7.53019C27.576 7.45096 27.7591 7.40708 27.9526 7.40708H35.8227C36.7551 7.40708 37.6253 7.4681 38.4194 7.59656C38.6465 7.63295 38.8671 7.6747 39.0822 7.72178C39.2963 7.76998 39.5049 7.8235 39.7074 7.88236C39.8078 7.91234 39.9074 7.94337 40.0047 7.97443C40.3955 8.10394 40.7584 8.25702 41.0934 8.43365C41.4875 5.92131 41.0903 4.21075 39.732 2.6618C38.2345 0.956601 35.5315 0.226562 32.073 0.226562H22.032C21.3255 0.226562 20.7231 0.74035 20.6137 1.43936L16.4316 27.9489C16.349 28.4734 16.7536 28.9467 17.2824 28.9467H23.4815L25.0379 19.0717L26.712 8.46791Z" fill="#253B80"/>
</svg>
