<svg width="26" height="27" viewBox="0 0 26 27" fill="none" xmlns="http://www.w3.org/2000/svg">
    <rect opacity="0.2" x="7" y="7.75" width="19" height="19" rx="5" fill="#295DE1"/>
    <path d="M12 12.2539C14.7614 12.2539 17 10.0153 17 7.25391C17 4.49248 14.7614 2.25391 12 2.25391C9.23858 2.25391 7 4.49248 7 7.25391C7 10.0153 9.23858 12.2539 12 12.2539Z" stroke="#00171F" stroke-width="1.5" stroke-linecap="round" stroke-linejoin="round"/>
    <path d="M19.211 15.9949L15.671 19.5349C15.531 19.6749 15.401 19.9349 15.371 20.1249L15.181 21.4749C15.111 21.9649 15.451 22.3049 15.941 22.2349L17.291 22.0449C17.481 22.0149 17.751 21.8849 17.881 21.7449L21.421 18.2049C22.031 17.5949 22.321 16.8849 21.421 15.9849C20.531 15.0949 19.821 15.3849 19.211 15.9949Z" stroke="#00171F" stroke-width="1.5" stroke-miterlimit="10" stroke-linecap="round" stroke-linejoin="round"/>
    <path d="M18.6992 16.5039C18.9992 17.5839 19.8392 18.4239 20.9192 18.7239" stroke="#00171F" stroke-width="1.5" stroke-miterlimit="10" stroke-linecap="round" stroke-linejoin="round"/>
    <path d="M3.41016 22.2539C3.41016 18.3839 7.26018 15.2539 12.0002 15.2539C13.0402 15.2539 14.0402 15.4039 14.9702 15.6839" stroke="#295DE1" stroke-width="1.5" stroke-linecap="round" stroke-linejoin="round"/>
</svg>
