<svg width="31" height="30" viewBox="0 0 31 30" fill="none" xmlns="http://www.w3.org/2000/svg">
    <g clip-path="url(#clip0_9672_103062)">
        <path fill-rule="evenodd" clip-rule="evenodd" d="M0.714844 19.8273C0.714844 19.1609 1.25549 18.6206 1.92188 18.6206C2.58832 18.6206 3.12861 19.1609 3.12861 19.8273V25.7836C3.12861 26.7773 3.93721 27.5859 4.9309 27.5859H10.8872C11.5535 27.5859 12.0942 28.1263 12.0942 28.7927C12.0942 29.4594 11.5539 29.9997 10.8872 29.9997H4.93096C2.60625 29.9998 0.714844 28.1083 0.714844 25.7837V19.8273ZM15.7148 23.1581C20.2137 23.1581 23.8732 19.4986 23.8732 14.9997C23.8732 10.5013 20.2132 6.84135 15.7148 6.84135C11.2163 6.84135 7.55648 10.5012 7.55648 14.9997C7.55648 19.4988 11.2159 23.1581 15.7148 23.1581ZM30.7148 19.8273V25.7836C30.7148 28.1083 28.8234 29.9997 26.4987 29.9997H20.5424C19.8757 29.9997 19.3354 29.4594 19.3354 28.7927C19.3354 28.1264 19.8762 27.5859 20.5424 27.5859H26.4987C27.4923 27.5859 28.301 26.7772 28.301 25.7836V19.8273C28.301 19.1609 28.8413 18.6206 29.5078 18.6206C30.1742 18.6206 30.7148 19.1609 30.7148 19.8273ZM30.7148 4.21582V10.1722C30.7148 10.8389 30.1745 11.3789 29.5078 11.3789C28.8411 11.3789 28.3011 10.8388 28.3011 10.1722V4.21582C28.3011 3.22236 27.4922 2.41354 26.4988 2.41354H20.5424C19.8758 2.41354 19.3354 1.87354 19.3354 1.2068C19.3354 0.540351 19.876 5.85937e-05 20.5424 5.85937e-05H26.4987C28.8234 0 30.7148 1.89111 30.7148 4.21582ZM10.8872 0C11.5537 0 12.0943 0.540352 12.0943 1.20674C12.0943 1.87348 11.5539 2.41348 10.8872 2.41348H4.93096C3.93738 2.41348 3.12867 3.22225 3.12867 4.21576V10.1721C3.12867 10.8388 2.58861 11.3788 1.92193 11.3788C1.25525 11.3788 0.714902 10.8388 0.714902 10.1721V4.21582C0.714902 1.89111 2.60637 0 4.93102 0H10.8872Z" fill="#00171F"/>
        <circle cx="15.7131" cy="14.9982" r="8.18182" fill="#FF5B5B"/>
    </g>
    <defs>
        <clipPath id="clip0_9672_103062">
            <rect width="30" height="30" fill="white" transform="translate(0.714844)"/>
        </clipPath>
    </defs>
</svg>
