<svg width="21" height="21" viewBox="0 0 21 21" fill="none" xmlns="http://www.w3.org/2000/svg">
<path d="M2 11.029V9.48904C2 8.57904 2.74375 7.82654 3.6625 7.82654C5.24625 7.82654 5.89375 6.70654 5.0975 5.33279C4.6425 4.54529 4.91375 3.52154 5.71 3.06654L7.22375 2.20029C7.915 1.78904 8.8075 2.03404 9.21875 2.72529L9.315 2.89154C10.1025 4.26529 11.3975 4.26529 12.1937 2.89154L12.29 2.72529C12.7012 2.03404 13.5938 1.78904 14.285 2.20029L15.7987 3.06654C16.595 3.52154 16.8662 4.54529 16.4112 5.33279C15.615 6.70654 16.2625 7.82654 17.8462 7.82654C18.7562 7.82654 19.5087 8.57029 19.5087 9.48904V11.029C19.5087 11.939 18.765 12.6915 17.8462 12.6915C16.2625 12.6915 15.615 13.8115 16.4112 15.1853C16.8662 15.9815 16.595 16.9965 15.7987 17.4515L14.285 18.3178C13.5938 18.729 12.7012 18.484 12.29 17.7928L12.1937 17.6265C11.4062 16.2528 10.1112 16.2528 9.315 17.6265L9.21875 17.7928C8.8075 18.484 7.915 18.729 7.22375 18.3178L5.71 17.4515C4.91375 16.9965 4.6425 15.9728 5.0975 15.1853C5.89375 13.8115 5.24625 12.6915 3.6625 12.6915C2.74375 12.6915 2 11.939 2 11.029Z" fill="#79899E" fill-opacity="0.6"/>
<path d="M10.5 13.3438C12.0706 13.3438 13.3438 12.0706 13.3438 10.5C13.3438 8.92944 12.0706 7.65625 10.5 7.65625C8.92944 7.65625 7.65625 8.92944 7.65625 10.5C7.65625 12.0706 8.92944 13.3438 10.5 13.3438Z" fill="#334155"/>
</svg>
