<svg width="60" height="60" viewBox="0 0 60 60" fill="none" xmlns="http://www.w3.org/2000/svg">
    <g clip-path="url(#clip0_9672_103073)">
        <path d="M45.3865 4.60011H45.2825C44.7694 5.15875 44.0972 5.54336 43.3583 5.70102C46.2966 7.22134 46.4396 8.04704 46.4396 8.04704C45.5295 10.8255 40.1731 11.9789 40.1731 11.9789C42.6043 13.355 43.6444 11.8478 47.2457 11.1008C48.3174 10.9353 49.4136 11.1116 50.381 11.6051C51.3484 12.0986 52.1386 12.8846 52.6411 13.8531C51.7347 13.0582 50.6044 12.5689 49.4085 12.4537C48.2126 12.3386 47.0108 12.6033 45.9716 13.2109C46.8479 13.0394 47.7529 13.0936 48.6029 13.3685C49.4528 13.6435 50.2202 14.1302 50.834 14.7836C51.5687 15.5777 52.4087 16.2657 53.3302 16.8281C54.7343 17.4441 54.3183 17.6538 54.3183 17.6538C52.6366 17.4591 50.9329 17.6564 49.3388 18.2305C50.1189 19.3576 52.9792 19.8163 52.9792 19.8163C53.7738 19.8913 54.5302 20.1957 55.1574 20.6932C55.7847 21.1907 56.2562 21.8601 56.5155 22.6211C54.0061 22.7497 51.5353 21.9583 49.5599 20.393C49.7809 24.836 55.4104 24.7705 56.8145 26.9461C57.6427 28.3346 57.9125 29.9899 57.5685 31.5726H57.3345L57.2175 31.1008C56.5154 28.2567 51.211 26.6971 49.1568 25.4389C48.5802 25.1168 48.0861 24.6636 47.7137 24.1153C47.3413 23.567 47.1009 22.9387 47.0117 22.2803C46.6294 23.2249 46.6005 24.2774 46.9306 25.2418C47.2606 26.2062 47.9271 27.0168 48.8058 27.5228C50.73 28.7023 54.3053 29.1086 55.7094 32.9618C56.1225 34.0699 56.3144 35.2492 56.2743 36.4323C56.2341 37.6153 55.9626 38.7787 55.4754 39.8557C55.8394 37.1427 54.1102 33.7613 50.2749 31.3235C48.3146 30.2023 46.6164 28.6692 45.2955 26.8281C44.7235 29.9474 47.2067 32.5162 49.7029 34.4821C51.2172 35.6754 52.4775 37.1642 53.4082 38.8596C53.8597 40.0931 53.9772 41.4256 53.7487 42.7201C53.5202 44.0146 52.954 45.2244 52.1081 46.2252C53.4082 40.9041 48.7018 36.068 46.4916 33.8924C45.1017 32.4751 44.0483 30.759 43.4104 28.8727C43.5767 31.5157 44.3752 34.0789 45.7375 36.3432C47.0377 38.5975 49.2478 41.2449 49.1568 45.0457C48.9267 47.6471 47.9153 50.1159 46.2576 52.123C48.9618 42.3196 41.8502 35.085 41.8502 35.085C47.3107 48.0208 43.8264 53.6565 43.8264 53.6565C44.0691 48.3681 42.5597 43.1487 39.536 38.8203C43.6574 49.41 38.1449 56.3432 38.1449 56.3432H37.7939C38.6354 54.0362 39.0169 51.5844 38.9166 49.1285C38.8162 46.6725 38.2358 44.2607 37.2088 42.0313C37.7245 47.3276 36.5931 52.6545 33.9716 57.2738L33.7895 57.1558C34.9986 50.1309 33.2175 47.5752 33.2175 47.5752C33.6725 51.5071 31.6444 56.9199 31.6444 56.9199L31.0073 56.7495C31.7874 50.4586 29.8502 48.2174 29.8502 48.2174C27.588 50.9173 28.4071 57.1034 28.4071 57.1034H28.0561C26.7026 54.1029 26.1042 50.8122 26.3139 47.5228C24.4808 50.0654 25.4819 54.6656 25.7419 56.0549C26.0019 57.4441 25.5599 57.0378 25.5599 57.0378C21.8026 50.5503 22.3226 42.1493 22.3226 42.1493C20.4053 46.7956 20.2388 51.9881 21.8546 56.7495C16.0431 50.1964 20.1774 38.8072 20.1774 38.8072C16.0301 42.2148 15.8221 53.9448 15.8221 53.9448C13.0008 45.701 17.9152 35.0195 17.9152 35.0195C10.6476 42.123 13.3388 52.49 13.3388 52.49C10.7386 49.4887 10.1796 44.7312 11.1287 42.5555C12.0777 40.3799 14.4309 35.5962 14.4309 35.5962C16.4331 30.9697 16.2901 28.8203 16.2901 28.8203C15.263 32.0968 10.5566 36.684 10.5566 36.684C6.78629 40.3537 7.42334 46.3301 7.42334 46.3301H7.18933C6.27139 44.5855 5.82313 42.6288 5.88923 40.6551C6.03224 37.1558 10.6996 33.6434 10.6996 33.6434C15.653 29.4363 14.4569 26.8675 14.4569 26.8675H14.2359C13.9475 27.5305 13.5008 28.1113 12.9358 28.5582C11.3367 29.9474 7.83939 32.4245 7.83939 32.4245C6.72276 33.2805 5.82845 34.3965 5.23298 35.677C4.63751 36.9574 4.35859 38.3642 4.4201 39.777H3.90006C3.29725 38.1004 3.11415 36.2997 3.36701 34.5346C3.74887 32.8969 4.5501 31.3887 5.69074 30.1607C6.83139 28.9326 8.27156 28.0276 9.86755 27.5359C14.756 26.1335 12.7668 22.0968 12.7668 22.0968C12.2857 25.1375 8.30743 26.5398 8.30743 26.5398C5.7943 27.3958 3.64428 29.0872 2.20992 31.3367H1.97591C1.97591 30.8517 1.59887 27.2606 3.60104 26.199C5.60321 25.1374 7.89138 23.971 7.89138 23.971C10.5956 22.241 10.1536 20.2882 10.1536 20.2882C8.91876 21.3927 7.42375 22.1598 5.81122 22.5162C4.96492 22.8106 4.04165 22.7874 3.211 22.4507C3.90006 20.393 7.21534 19.7115 7.21534 19.7115C8.43147 19.5462 9.57635 19.0373 10.5176 18.2436C8.87265 17.7676 7.18124 17.4731 5.47318 17.3655C6.59127 17.1165 7.11133 16.4874 9.06149 14.6788C10.3603 13.5833 12.0098 13.001 13.7029 13.0405C11.1027 11.0877 7.20233 13.5778 7.20233 13.5778C8.25541 11.7037 11.2717 10.4717 12.8838 11.1794C13.9804 11.6434 15.1 12.0502 16.2381 12.3983C17.3427 12.5539 18.4686 12.395 19.4883 11.9396C17.0162 11.3703 14.8454 9.88796 13.4038 7.7849L16.8751 5.33405C16.2053 5.11934 15.6453 4.64894 15.315 4.02344C10.6481 6.58536 6.75937 10.3773 4.06418 14.994C1.36899 19.6108 -0.0313703 24.879 0.012729 30.2358C2.0929 61.0352 30.2923 59.9736 30.2923 59.9736C44.1124 59.9736 60.3898 47.6538 59.9997 30.2358C59.6097 12.8177 45.3865 4.60011 45.3865 4.60011ZM14.964 14.1283C14.964 14.1283 13.0528 14.587 12.7668 16.1728C12.7668 16.1728 16.1341 14.4428 18.2663 15.3471C18.299 15.3905 18.3166 15.4434 18.3166 15.4979C18.3166 15.5523 18.299 15.6053 18.2663 15.6486C18.1103 15.8059 17.6032 16.3695 18.1492 16.8151C18.1492 16.8151 18.4223 17.0903 19.3583 16.1728C19.3583 16.1728 19.9694 15.5962 19.9434 16.2908C19.9434 16.2908 18.7603 17.2213 19.1373 19.8557L26.613 21.1663V27.4048C28.8963 26.6988 31.3372 26.6988 33.6205 27.4048V21.2711C33.6205 21.2711 39.445 20.2882 41.1612 19.8688C41.3565 19.2136 41.3789 18.5184 41.2262 17.8518C41.0734 17.1852 40.7507 16.5704 40.2901 16.068H40.8621L42.1622 16.8281C42.1622 16.8281 42.6043 17.0116 42.5783 16.5922C42.5167 16.1639 42.31 15.7703 41.9932 15.4782C43.1382 15.0757 44.3846 15.0757 45.5295 15.4782C45.5295 15.4782 45.9976 18.6761 44.9445 20.2096C44.405 19.9767 43.8429 19.8009 43.2673 19.6853V19.8033C43.4972 20.1503 43.6568 20.5396 43.7371 20.9489C43.8174 21.3582 43.8168 21.7795 43.7354 22.1886C43.7354 22.1886 47.7787 23.355 48.0777 18.7417C48.1453 18.0605 48.0728 17.3725 47.8647 16.7208C47.6567 16.0691 47.3176 15.4676 46.8686 14.954C45.4255 13.722 42.0712 13.8531 38.99 14.836C38.99 14.836 37.5989 13.5254 33.4255 13.1977L30.0582 16.3563L26.808 13.1322C24.9172 13.1846 23.0756 13.7506 21.4775 14.7705C19.3799 14.075 17.1556 13.8557 14.964 14.1283ZM41.3952 24.9277C41.6801 24.7338 41.899 24.4563 42.0222 24.1328C42.1455 23.8093 42.1671 23.4554 42.0842 23.1191L41.4472 21.6643C40.6021 20.3537 39.367 21.6643 39.367 21.6643C39.2282 22.0176 38.9762 22.314 38.6512 22.5064C38.3261 22.6987 37.9465 22.776 37.5729 22.7259C36.7971 22.3506 35.925 22.2269 35.0767 22.3721H34.9596C34.8987 22.4063 34.8497 22.4586 34.8195 22.522C34.7892 22.5853 34.7791 22.6566 34.7906 22.7259L34.4396 28.9776L31.0203 31.376V33.473C31.5029 34.2417 32.1578 34.8853 32.9324 35.352C33.707 35.8187 34.5796 36.0954 35.4797 36.1597C36.0108 36.1252 36.5288 35.9778 36.9993 35.727C37.4699 35.4763 37.8825 35.128 38.2099 34.705C36.9327 33.9729 35.5038 33.5511 34.0366 33.473C35.7657 31.9789 39.016 33.3026 39.016 33.3026V32.6473C38.1189 31.4153 35.5447 31.6643 35.5447 31.6643V31.3367C36.5052 30.9853 37.5295 30.8467 38.5479 30.9304C38.4049 30.1702 36.9878 29.4101 36.9878 29.4101L37.1568 27.6538C37.1568 27.6538 40.3811 25.6748 41.3952 24.9277ZM21.8936 34.7443C22.5696 36.1991 24.9098 36.2646 24.9098 36.2646C25.7925 36.1891 26.647 35.9143 27.4099 35.4605C28.1729 35.0067 28.8248 34.3857 29.3172 33.6434V31.4153L26.717 29.4887L25.0918 29.3707C22.1796 29.3707 21.7375 31.009 21.7375 31.009C22.7051 30.7859 23.7173 30.8682 24.6368 31.2449V31.5333C23.6655 31.4897 22.6959 31.6504 21.7895 32.0051C21.6696 32.0239 21.5556 32.0707 21.4567 32.1417C21.3578 32.2127 21.2767 32.306 21.2199 32.4142C21.1631 32.5224 21.1321 32.6424 21.1294 32.7648C21.1268 32.8872 21.1525 33.0085 21.2045 33.1191C21.2173 33.1745 21.2441 33.2256 21.2824 33.2674C21.3207 33.3092 21.3691 33.3402 21.4229 33.3574C21.4767 33.3746 21.5339 33.3773 21.5891 33.3654C21.6443 33.3535 21.6955 33.3273 21.7375 33.2895C24.9748 32.3589 26.2489 33.7613 26.2489 33.7613C25.5025 33.5571 24.7178 33.5398 23.9632 33.7112C23.2087 33.8825 22.5071 34.2372 21.9196 34.7443H21.8936ZM28.9661 46.0811C29.5252 41.9789 30.2663 42.4638 30.2663 42.4638C30.8879 43.5974 31.2562 44.8544 31.3453 46.1466C32.2529 46.0903 33.1316 45.8036 33.8999 45.3133C34.6682 44.8229 35.301 44.1448 35.7397 43.3419C36.3257 42.0821 36.4723 40.6596 36.1557 39.3052C34.8623 38.7854 33.6958 37.9896 32.7365 36.9723H27.393L27.289 37.1427C26.2672 37.912 25.199 38.6167 24.0907 39.2528C23.8571 40.1093 23.8247 41.009 23.9962 41.8804C24.1677 42.7517 24.5384 43.5707 25.0788 44.2724C25.5233 44.8861 26.1164 45.3746 26.8015 45.6912C27.4866 46.0079 28.2409 46.1421 28.9922 46.0811H28.9661ZM25.6119 23.9972C25.8719 21.992 24.3118 22.241 24.3118 22.241C23.5898 22.6414 22.7436 22.7492 21.9456 22.5424C21.1395 22.3327 20.5804 21.3629 20.1384 20.9042C19.6964 20.4455 18.9813 21.1925 18.9813 21.1925L18.5133 22.3589C18.2043 23.0211 18.167 23.7793 18.4093 24.4691C19.5103 25.382 20.8843 25.8944 22.3096 25.9238C23.0117 25.9762 25.3128 26.0025 25.6119 23.9972ZM15.354 20.2619L14.5999 17.3917C14.606 17.6368 14.5278 17.8764 14.3785 18.07C14.2292 18.2635 14.018 18.3989 13.7809 18.4533C13.5394 18.4566 13.2999 18.4106 13.0765 18.3183C12.8531 18.2259 12.6505 18.0891 12.4808 17.916C12.3313 18.6212 12.3952 19.3553 12.664 20.0235C12.9329 20.6917 13.3944 21.2633 13.9889 21.6643C14.8146 22.0744 15.7513 22.1988 16.6541 22.0182C16.5306 21.1536 16.7349 20.2738 17.2262 19.5542L15.354 20.2619Z" fill="#295DE1"/>
        <path d="M30.6187 5.55512C30.3367 5.53864 30.0625 5.45526 29.8185 5.31178C29.5745 5.1683 29.3676 4.96881 29.2145 4.72947V1.80678C29.3508 1.74249 29.4694 1.64559 29.5601 1.52452C29.6507 1.40346 29.7106 1.2619 29.7346 1.11216C29.9296 0.168513 28.8895 0.0112443 28.8895 0.0112443C27.0954 -0.185348 27.1474 1.20391 27.1474 1.20391C27.4204 2.12134 28.5905 1.85922 28.5905 1.85922V2.0296L27.8884 2.55384L27.9794 4.65084C27.9794 5.30614 27.8234 5.73863 26.4323 5.77795C25.0412 5.81727 24.9242 4.89982 24.9242 4.89982L24.0531 2.63248C24.7942 1.64951 24.0531 0.627237 22.753 0.915573C21.4529 1.20391 21.6349 2.0558 21.6349 2.0558C21.7793 2.32866 22.0099 2.54513 22.2901 2.67095C22.5704 2.79678 22.8843 2.82475 23.182 2.75043C23.5851 2.75043 23.4421 2.85526 23.4421 2.85526L23.104 3.1174C23.0234 3.16184 22.961 3.23355 22.9277 3.31986C22.8944 3.40618 22.8924 3.50154 22.922 3.5892L23.8971 5.80414C23.805 6.09208 23.6423 6.35191 23.4239 6.55948C23.2056 6.76706 22.9388 6.91566 22.6483 6.99149C22.3578 7.06732 22.053 7.06793 21.7622 6.99325C21.4714 6.91857 21.204 6.77103 20.9849 6.56432L19.1647 4.12656C19.3857 3.62852 19.4767 2.75043 17.9816 2.59316C17.8039 2.54612 17.6177 2.5429 17.4385 2.58376C17.2593 2.62462 17.0926 2.70835 16.9523 2.8279C16.812 2.94745 16.7024 3.09929 16.6326 3.27059C16.5628 3.44188 16.535 3.6276 16.5515 3.81202C16.9155 4.80809 18.3586 4.54596 18.3586 4.54596L18.5276 4.71635C18.3586 4.71635 18.2286 5.03089 18.2286 5.03089L21.9599 9.82775C24.6736 8.55518 27.6393 7.92316 30.6317 7.97977V5.55512H30.6187Z" fill="#295DE1"/>
        <path d="M43.3194 2.59481C41.8112 2.75209 41.9153 3.63018 42.1363 4.12821L40.3161 6.56598C40.097 6.77268 39.8296 6.92023 39.5388 6.99491C39.248 7.06958 38.9432 7.06898 38.6526 6.99315C38.3621 6.91731 38.0953 6.76871 37.877 6.56114C37.6587 6.35357 37.496 6.09373 37.4039 5.8058L38.379 3.59086C38.4038 3.50296 38.3994 3.40932 38.3665 3.32416C38.3337 3.23899 38.2741 3.16697 38.1969 3.11905L37.8589 2.85691C37.8589 2.85691 37.7159 2.75208 38.1189 2.75208C38.4167 2.82641 38.7306 2.79843 39.0108 2.67261C39.2911 2.54679 39.5217 2.33032 39.6661 2.05746C39.6661 2.05746 39.8221 1.20556 38.548 0.917227C37.2739 0.628892 36.5588 1.65117 37.2479 2.63413L36.3768 4.90147C36.3768 4.90147 36.2468 5.81892 34.8686 5.7796C33.4905 5.74028 33.3605 5.3078 33.3215 4.65249L33.4125 2.50306L32.7235 1.97882V1.80844C32.7235 1.80844 33.8936 2.07056 34.1666 1.15313C34.1666 1.15313 34.1666 -0.236129 32.4245 -0.039537C32.4245 -0.039537 31.3844 0.117732 31.5794 1.06138C31.6033 1.21112 31.6633 1.35268 31.7539 1.47374C31.8445 1.59481 31.9632 1.69171 32.0994 1.756V4.67869C31.9449 4.9166 31.7376 5.11503 31.4939 5.25832C31.2502 5.40162 30.9768 5.48586 30.6953 5.50438V7.92903C33.6835 7.87257 36.645 8.50459 39.354 9.77697L43.0853 4.98014C43.0853 4.98014 42.9683 4.62625 42.7993 4.66557L42.9683 4.49518C42.9683 4.49518 44.4115 4.75731 44.7755 3.76124C44.7845 3.57819 44.7501 3.39563 44.6752 3.22864C44.6003 3.06166 44.4869 2.91506 44.3446 2.80104C44.2022 2.68702 44.035 2.60884 43.8567 2.57298C43.6784 2.53711 43.4942 2.5446 43.3194 2.59481Z" fill="#295DE1"/>
        <path d="M38.4173 11.5064C35.9832 10.4196 33.3504 9.85811 30.6881 9.85811C28.0259 9.85811 25.3932 10.4196 22.959 11.5064L22.543 10.7332C25.0952 9.56518 27.8657 8.96094 30.6686 8.96094C33.4716 8.96094 36.2421 9.56518 38.7943 10.7332L38.4173 11.5064Z" fill="#295DE1"/>
    </g>
    <defs>
        <clipPath id="clip0_9672_103073">
            <rect width="60" height="60" rx="30" fill="white"/>
        </clipPath>
    </defs>
</svg>
