<svg width="72" height="24" viewBox="0 0 72 24" fill="none" xmlns="http://www.w3.org/2000/svg">
    <path fill-rule="evenodd" clip-rule="evenodd" d="M18.1033 23.6009H11.8965L7.24214 5.84432C7.02122 5.02752 6.55216 4.30542 5.86217 3.96508C4.14025 3.1098 2.2428 2.42913 0.172852 2.08584V1.40221H10.1715C11.5515 1.40221 12.5865 2.42913 12.759 3.62179L15.1739 16.4302L21.3777 1.40221H27.412L18.1033 23.6009ZM30.8626 23.6009H25.0008L29.8276 1.40221H35.6895L30.8626 23.6009ZM43.2729 7.54841C43.4454 6.3528 44.4804 5.66917 45.6878 5.66917C47.5853 5.49752 49.6522 5.84081 51.3772 6.69313L52.4121 1.91364C50.6872 1.23001 48.7897 0.886719 47.0678 0.886719C41.3785 0.886719 37.2386 3.96157 37.2386 8.22908C37.2386 11.4756 40.171 13.1802 42.241 14.2071C44.4804 15.2311 45.3429 15.9147 45.1704 16.9387C45.1704 18.4746 43.4454 19.1583 41.7235 19.1583C39.6535 19.1583 37.5836 18.6463 35.6892 17.791L34.6542 22.5735C36.7241 23.4258 38.9636 23.7691 41.0335 23.7691C47.4128 23.9378 51.3772 20.8659 51.3772 16.2551C51.3772 10.4487 43.2729 10.1083 43.2729 7.54841ZM71.892 23.6009L67.2376 1.40221H62.2383C61.2033 1.40221 60.1683 2.08584 59.8233 3.1098L51.2046 23.6009H57.2389L58.4434 20.3574H65.8576L66.5476 23.6009H71.892ZM63.0998 7.37671L64.8217 15.743H59.9948L63.0998 7.37671Z" fill="#172B85"/>
</svg>
