<svg width="32" height="32" viewBox="0 0 32 32" fill="none" xmlns="http://www.w3.org/2000/svg">
<path d="M29.331 16.8248V19.5715C29.331 20.3182 28.7177 20.9315 27.9577 20.9315H25.3844C23.9444 20.9315 22.6244 19.8782 22.5044 18.4382C22.4244 17.5982 22.7444 16.8115 23.3044 16.2648C23.7977 15.7582 24.4777 15.4648 25.2244 15.4648H27.9577C28.7177 15.4648 29.331 16.0782 29.331 16.8248Z" fill="#FEC101"/>
<path d="M20.5041 18.6126C20.3841 17.2126 20.8907 15.8392 21.9041 14.8392C22.7574 13.9726 23.9441 13.4659 25.2241 13.4659H25.9841C26.3574 13.4659 26.6641 13.1592 26.6107 12.7859C26.2507 10.1992 24.0107 8.19922 21.3307 8.19922H7.9974C5.05073 8.19922 2.66406 10.5859 2.66406 13.5326V22.8659C2.66406 25.8126 5.05073 28.1992 7.9974 28.1992H21.3307C24.0241 28.1992 26.2507 26.1992 26.6107 23.6126C26.6641 23.2392 26.3574 22.9326 25.9841 22.9326H25.3841C22.8507 22.9326 20.7174 21.0392 20.5041 18.6126ZM17.3307 15.8659H9.33073C8.78406 15.8659 8.33073 15.4259 8.33073 14.8659C8.33073 14.3059 8.78406 13.8659 9.33073 13.8659H17.3307C17.8774 13.8659 18.3307 14.3192 18.3307 14.8659C18.3307 15.4126 17.8774 15.8659 17.3307 15.8659Z" fill="#FEC101"/>
<path d="M18.9423 5.30745C19.289 5.66745 18.9823 6.20078 18.4756 6.20078H8.03565C6.58231 6.20078 5.22231 6.62745 4.08898 7.36078C3.56898 7.69411 2.86231 7.33412 3.11564 6.76078C3.86231 5.01412 5.60898 3.80078 7.62231 3.80078H15.1156C16.6623 3.80078 18.0356 4.34745 18.9423 5.30745Z" fill="#FEC101"/>
</svg>
