<svg width="24" height="24" viewBox="0 0 20 20" fill="none" xmlns="http://www.w3.org/2000/svg">
<path d="M10 14.3477V18.331" stroke="#295DE1" stroke-width="1.5" stroke-linecap="round" stroke-linejoin="round"/>
<path d="M1.66797 10.832H18.3346" stroke="#295DE1" stroke-width="1.5" stroke-linecap="round" stroke-linejoin="round"/>
<path d="M18.3346 9.90964V10.6513C18.3346 13.618 17.593 14.3513 14.6346 14.3513H5.36797C2.40964 14.3513 1.66797 13.6096 1.66797 10.6513V5.36797C1.66797 2.40964 2.40964 1.66797 5.36797 1.66797H6.66797" stroke="#00171F" stroke-width="1.5" stroke-linecap="round" stroke-linejoin="round"/>
<path d="M6.25 18.332H13.75" stroke="#00171F" stroke-width="1.5" stroke-linecap="round" stroke-linejoin="round"/>
<path d="M14.8848 7.80911H10.9181C9.7681 7.80911 9.38477 7.04245 9.38477 6.27578V3.34245C9.38477 2.42578 10.1348 1.67578 11.0514 1.67578H14.8848C15.7348 1.67578 16.4181 2.35911 16.4181 3.20911V6.27578C16.4181 7.12578 15.7348 7.80911 14.8848 7.80911Z" stroke="#00171F" stroke-width="1.5" stroke-linecap="round" stroke-linejoin="round"/>
<path d="M17.4243 6.59941L16.416 5.89108V3.59108L17.4243 2.88274C17.9243 2.54108 18.3327 2.74941 18.3327 3.35774V6.13274C18.3327 6.74108 17.9243 6.94941 17.4243 6.59941Z" stroke="#00171F" stroke-width="1.5" stroke-linecap="round" stroke-linejoin="round"/>
</svg>
