<svg width="21" height="20" viewBox="0 0 21 20" fill="none" xmlns="http://www.w3.org/2000/svg">
    <path d="M6.66797 1.66602V4.16602" stroke="#00171F" stroke-width="1.5" stroke-miterlimit="10" stroke-linecap="round" stroke-linejoin="round"/>
    <path d="M13.3359 1.66602V4.16602" stroke="#00171F" stroke-width="1.5" stroke-miterlimit="10" stroke-linecap="round" stroke-linejoin="round"/>
    <path d="M2.91797 7.57422H17.0846" stroke="#295DE1" stroke-width="1.5" stroke-miterlimit="10" stroke-linecap="round" stroke-linejoin="round"/>
    <path d="M16.0105 13.1396L13.0605 16.0896C12.9438 16.2063 12.8355 16.423 12.8105 16.5813L12.6521 17.7063C12.5938 18.1146 12.8771 18.398 13.2855 18.3396L14.4105 18.1813C14.5688 18.1563 14.7938 18.048 14.9022 17.9313L17.8522 14.9813C18.3605 14.473 18.6022 13.8813 17.8522 13.1313C17.1105 12.3896 16.5188 12.6313 16.0105 13.1396Z" stroke="#00171F" stroke-width="1.5" stroke-miterlimit="10" stroke-linecap="round" stroke-linejoin="round"/>
    <path d="M15.5859 13.5645C15.8359 14.4645 16.5359 15.1645 17.4359 15.4145" stroke="#00171F" stroke-width="1.5" stroke-miterlimit="10" stroke-linecap="round" stroke-linejoin="round"/>
    <path d="M10.002 18.3327H6.66862C3.75195 18.3327 2.50195 16.666 2.50195 14.166V7.08268C2.50195 4.58268 3.75195 2.91602 6.66862 2.91602H13.3353C16.252 2.91602 17.502 4.58268 17.502 7.08268V9.99935" stroke="#00171F" stroke-width="1.5" stroke-miterlimit="10" stroke-linecap="round" stroke-linejoin="round"/>
    <path d="M9.99803 11.4167H10.0055" stroke="#295DE1" stroke-width="2" stroke-linecap="round" stroke-linejoin="round"/>
    <path d="M6.91404 11.4167H6.92153" stroke="#295DE1" stroke-width="2" stroke-linecap="round" stroke-linejoin="round"/>
    <path d="M6.91406 13.916H6.92155" stroke="#295DE1" stroke-width="2" stroke-linecap="round" stroke-linejoin="round"/>
</svg>
