<svg width="24" height="24" viewBox="0 0 20 20" fill="none" xmlns="http://www.w3.org/2000/svg">
<path d="M14.9984 5.96602C14.9484 5.95769 14.8901 5.95769 14.8401 5.96602C13.6901 5.92435 12.7734 4.98268 12.7734 3.81602C12.7734 2.62435 13.7318 1.66602 14.9234 1.66602C16.1151 1.66602 17.0734 2.63268 17.0734 3.81602C17.0651 4.98268 16.1484 5.92435 14.9984 5.96602Z" stroke="#295DE1" stroke-width="1.5" stroke-linecap="round" stroke-linejoin="round"/>
<path d="M14.1402 12.0328C15.2819 12.2245 16.5402 12.0245 17.4236 11.4328C18.5986 10.6495 18.5986 9.36615 17.4236 8.58282C16.5319 7.99115 15.2569 7.79115 14.1152 7.99115" stroke="#295DE1" stroke-width="1.5" stroke-linecap="round" stroke-linejoin="round"/>
<path d="M4.97149 5.96602C5.02149 5.95769 5.07982 5.95769 5.12982 5.96602C6.27982 5.92435 7.19648 4.98268 7.19648 3.81602C7.19648 2.62435 6.23815 1.66602 5.04649 1.66602C3.85482 1.66602 2.89648 2.63268 2.89648 3.81602C2.90482 4.98268 3.82149 5.92435 4.97149 5.96602Z" stroke="#295DE1" stroke-width="1.5" stroke-linecap="round" stroke-linejoin="round"/>
<path d="M5.8306 12.0328C4.68893 12.2245 3.4306 12.0245 2.54727 11.4328C1.37227 10.6495 1.37227 9.36615 2.54727 8.58282C3.43893 7.99115 4.71393 7.79115 5.8556 7.99115" stroke="#295DE1" stroke-width="1.5" stroke-linecap="round" stroke-linejoin="round"/>
<path d="M9.99844 12.1926C9.94844 12.1842 9.8901 12.1842 9.8401 12.1926C8.6901 12.1509 7.77344 11.2092 7.77344 10.0426C7.77344 8.85091 8.73177 7.89258 9.92344 7.89258C11.1151 7.89258 12.0734 8.85925 12.0734 10.0426C12.0651 11.2092 11.1484 12.1592 9.99844 12.1926Z" stroke="#00171F" stroke-width="1.5" stroke-linecap="round" stroke-linejoin="round"/>
<path d="M7.57461 14.8187C6.39961 15.6021 6.39961 16.8854 7.57461 17.6687C8.90794 18.5604 11.0913 18.5604 12.4246 17.6687C13.5996 16.8854 13.5996 15.6021 12.4246 14.8187C11.0996 13.9354 8.90794 13.9354 7.57461 14.8187Z" stroke="#00171F" stroke-width="1.5" stroke-linecap="round" stroke-linejoin="round"/>
</svg>
