<svg width="26" height="28" viewBox="0 0 26 28" fill="none" xmlns="http://www.w3.org/2000/svg">
<rect opacity="0.2" x="7" y="8.11328" width="19" height="19" rx="5" fill="#295DE1"/>
<path d="M15.0195 19.9453C15.0195 21.5953 13.6695 22.9453 12.0195 22.9453C11.1995 22.9453 10.4395 22.6053 9.89953 22.0653C9.35953 21.5253 9.01953 20.7653 9.01953 19.9453" stroke="#295DE1" stroke-width="1.5" stroke-miterlimit="10"/>
<path d="M12.0225 3.79688C8.71253 3.79688 6.02253 6.48688 6.02253 9.79688V12.6869C6.02253 13.2969 5.76253 14.2269 5.45253 14.7469L4.30253 16.6569C3.59253 17.8369 4.08253 19.1469 5.38253 19.5869C9.69253 21.0269 14.3425 21.0269 18.6525 19.5869C19.8625 19.1869 20.3925 17.7569 19.7325 16.6569L18.5825 14.7469C18.2825 14.2269 18.0225 13.2969 18.0225 12.6869V9.79688C18.0225 6.49688 15.3225 3.79688 12.0225 3.79688Z" stroke="#00171F" stroke-width="1.5" stroke-miterlimit="10" stroke-linecap="round"/>
<path d="M13.8719 4.08812C13.5619 3.99812 13.2419 3.92812 12.9119 3.88812C11.9519 3.76812 11.0319 3.83812 10.1719 4.08812C10.4619 3.34812 11.1819 2.82812 12.0219 2.82812C12.8619 2.82812 13.5819 3.34812 13.8719 4.08812Z" stroke="#00171F" stroke-width="1.5" stroke-miterlimit="10" stroke-linecap="round" stroke-linejoin="round"/>
</svg>
