<svg width="20" height="20" viewBox="0 0 20 20" fill="none" xmlns="http://www.w3.org/2000/svg">
    <path d="M10 13.334V15.834" stroke="#295DE1" stroke-width="1.5" stroke-miterlimit="10" stroke-linecap="round" stroke-linejoin="round"/>
    <path d="M14.9993 17.5H11.666" stroke="#295DE1" stroke-width="1.5" stroke-miterlimit="10" stroke-linecap="round" stroke-linejoin="round"/>
    <path d="M8.33333 17.5H5" stroke="#295DE1" stroke-width="1.5" stroke-miterlimit="10" stroke-linecap="round" stroke-linejoin="round"/>
    <path d="M10.0007 19.1654C10.9211 19.1654 11.6673 18.4192 11.6673 17.4987C11.6673 16.5782 10.9211 15.832 10.0007 15.832C9.08018 15.832 8.33398 16.5782 8.33398 17.4987C8.33398 18.4192 9.08018 19.1654 10.0007 19.1654Z" stroke="#00171F" stroke-width="1.5" stroke-miterlimit="10" stroke-linecap="round" stroke-linejoin="round"/>
    <path d="M5.30859 7.92335C1.90859 8.16502 1.91693 13.09 5.30859 13.3317H13.3586C14.3336 13.34 15.2753 12.9734 16.0003 12.315C18.3836 10.2317 17.1086 6.065 13.9669 5.665C12.8419 -1.11833 3.01694 1.45669 5.34194 7.92335" stroke="#00171F" stroke-width="1.5" stroke-miterlimit="10" stroke-linecap="round" stroke-linejoin="round"/>
</svg>
