<svg width="20" height="20" viewBox="0 0 20 20" fill="none" xmlns="http://www.w3.org/2000/svg">
<path d="M12.9177 1.66797V8.21796C12.9177 8.58462 12.4843 8.76795 12.2177 8.52629L10.2844 6.74299C10.126 6.59299 9.876 6.59299 9.71766 6.74299L7.78437 8.52629C7.51771 8.76795 7.08435 8.58462 7.08435 8.21796V1.66797H12.9177Z" stroke="#295DE1" stroke-width="1.5" stroke-miterlimit="10" stroke-linecap="round" stroke-linejoin="round"/>
<path d="M11.0426 11.668H14.5843" stroke="#295DE1" stroke-width="1.5" stroke-miterlimit="10" stroke-linecap="round" stroke-linejoin="round"/>
<path d="M7.50098 15H14.5843" stroke="#295DE1" stroke-width="1.5" stroke-miterlimit="10" stroke-linecap="round" stroke-linejoin="round"/>
<path d="M17.501 5.83073V14.1641C17.501 16.6641 16.251 18.3307 13.3343 18.3307H6.66764C3.75098 18.3307 2.50098 16.6641 2.50098 14.1641V5.83073C2.50098 3.33073 3.75098 1.66406 6.66764 1.66406H13.3343C16.251 1.66406 17.501 3.33073 17.501 5.83073Z" stroke="#00171F" stroke-width="1.5" stroke-miterlimit="10" stroke-linecap="round" stroke-linejoin="round"/>
</svg>
