<svg width="24" height="24" viewBox="0 0 20 20" fill="none" xmlns="http://www.w3.org/2000/svg">
<path d="M8.7418 1.85781L4.58346 3.42448C3.62513 3.78281 2.8418 4.91615 2.8418 5.93281V12.1245C2.8418 13.1078 3.4918 14.3995 4.28346 14.9911L7.8668 17.6661C9.0418 18.5495 10.9751 18.5495 12.1501 17.6661L15.7335 14.9911C16.5251 14.3995 17.1751 13.1078 17.1751 12.1245V5.93281C17.1751 4.90781 16.3918 3.77448 15.4335 3.41615L11.2751 1.85781C10.5668 1.59948 9.43346 1.59948 8.7418 1.85781Z" stroke="#00171F" stroke-width="1.5" stroke-linecap="round" stroke-linejoin="round"/>
<path d="M9.9987 10.4154C10.9192 10.4154 11.6654 9.66917 11.6654 8.7487C11.6654 7.82822 10.9192 7.08203 9.9987 7.08203C9.07822 7.08203 8.33203 7.82822 8.33203 8.7487C8.33203 9.66917 9.07822 10.4154 9.9987 10.4154Z" stroke="#295DE1" stroke-width="1.5" stroke-miterlimit="10" stroke-linecap="round" stroke-linejoin="round"/>
<path d="M9.99805 10.416V12.916" stroke="#295DE1" stroke-width="1.5" stroke-miterlimit="10" stroke-linecap="round" stroke-linejoin="round"/>
</svg>
