<svg width="24" height="24" viewBox="0 0 20 20" fill="none" xmlns="http://www.w3.org/2000/svg">
<path d="M7.49935 18.3327H12.4993C16.666 18.3327 18.3327 16.666 18.3327 12.4993V7.49935C18.3327 3.33268 16.666 1.66602 12.4993 1.66602H7.49935C3.33268 1.66602 1.66602 3.33268 1.66602 7.49935V12.4993C1.66602 16.666 3.33268 18.3327 7.49935 18.3327Z" stroke="#00171F" stroke-width="1.5" stroke-linecap="round" stroke-linejoin="round"/>
<path d="M12.9167 15.4173C13.8333 15.4173 14.5833 14.6673 14.5833 13.7507V6.25065C14.5833 5.33398 13.8333 4.58398 12.9167 4.58398C12 4.58398 11.25 5.33398 11.25 6.25065V13.7507C11.25 14.6673 11.9917 15.4173 12.9167 15.4173Z" stroke="#295DE1" stroke-width="1.5" stroke-linecap="round" stroke-linejoin="round"/>
<path d="M7.08268 15.416C7.99935 15.416 8.74935 14.666 8.74935 13.7493V10.8327C8.74935 9.91602 7.99935 9.16602 7.08268 9.16602C6.16602 9.16602 5.41602 9.91602 5.41602 10.8327V13.7493C5.41602 14.666 6.15768 15.416 7.08268 15.416Z" stroke="#295DE1" stroke-width="1.5" stroke-linecap="round" stroke-linejoin="round"/>
</svg>
